<?xml version="1.0" encoding="utf-8"?>
<!-- Generator: Adobe Illustrator 26.0.2, SVG Export Plug-In . SVG Version: 6.00 Build 0)  -->
<svg version="1.1" id="Layer_1" xmlns="http://www.w3.org/2000/svg" xmlns:xlink="http://www.w3.org/1999/xlink" x="0px" y="0px"
	 viewBox="0 0 792 612" style="enable-background:new 0 0 792 612;" xml:space="preserve">
<style type="text/css">
	.st0{fill:#00AFE9;}
	.st1{fill:#0059A6;}
</style>
<g>
	<path class="st0" d="M202.38,340.95h-37.81l-5.09,16h-25.45l34.61-101.8h29.67l34.61,101.8h-25.45L202.38,340.95z M195.4,319.13
		l-11.93-37.38l-11.93,37.38H195.4z"/>
	<path class="st0" d="M232.07,333.82l20.07-11.63c3.64,8.43,9.89,14.11,21.38,14.11c11.05,0,13.82-4.36,13.82-8.29
		c0-6.26-5.82-8.73-21.09-12.94c-15.13-4.22-29.96-11.49-29.96-30.98c0-19.63,16.58-30.98,34.18-30.98c16.72,0,29.81,8,37.23,22.98
		l-19.63,11.49c-3.49-7.27-8.29-11.78-17.6-11.78c-7.27,0-10.91,3.64-10.91,7.71c0,4.65,2.47,7.85,18.32,12.65
		c15.42,4.65,32.72,10.04,32.72,31.56c0,19.63-15.71,31.27-37.81,31.27C251.41,358.98,237.74,348.8,232.07,333.82z"/>
	<path class="st0" d="M468.21,334.55v22.4h-59.63v-101.8h23.27v79.41H468.21z"/>
	<polygon class="st0" points="374.48,255.14 374.48,294.12 374.48,316.52 374.48,356.95 397.75,356.95 397.75,255.14 	"/>
	<polygon class="st0" points="342.48,294.12 342.48,255.14 319.21,255.14 319.21,356.95 342.48,356.95 342.48,316.52 342.48,316.52 
		342.48,294.12 	"/>
</g>
<g>
	<path class="st1" d="M541.79,340.95h-37.81l-5.09,16h-25.45l34.61-101.8h29.67l34.61,101.8h-25.45L541.79,340.95z M534.81,319.13
		l-11.93-37.38l-11.93,37.38H534.81z"/>
	<path class="st1" d="M613.08,323.5h-11.05v33.45h-23.27v-101.8h40.72c19.34,0,34.9,15.56,34.9,34.9c0,12.51-7.56,23.85-18.76,29.52
		l21.67,37.38h-25.01L613.08,323.5z M602.02,303.14h17.45c6.4,0,11.63-5.67,11.63-13.09s-5.24-13.09-11.63-13.09h-17.45V303.14z"/>
	<rect x="374.48" y="334.55" class="st1" width="23.27" height="22.4"/>
	<rect x="374.48" y="255.14" class="st1" width="23.27" height="22.4"/>
	<rect x="408.59" y="255.14" class="st1" width="23.27" height="22.4"/>
	<rect x="408.59" y="334.55" class="st1" width="59.63" height="22.4"/>
	<rect x="319.21" y="294.85" class="st1" width="78.53" height="22.4"/>
	<rect x="408.59" y="294.85" class="st1" width="23.27" height="22.4"/>
</g>
</svg>
