<svg id="Layer_1" data-name="Layer 1" xmlns="http://www.w3.org/2000/svg" width="142.96" height="21.88" viewBox="0 0 142.96 21.88"><path d="M108.57,10.87a2.88,2.88,0,0,0-.74-.44,2,2,0,0,0-.7-.15,1.13,1.13,0,0,0-.71.21.61.61,0,0,0-.27.54.51.51,0,0,0,.13.37,1.38,1.38,0,0,0,.36.26,3.25,3.25,0,0,0,.5.18l.56.17a3.52,3.52,0,0,1,1.61,1,2.44,2.44,0,0,1,.51,1.6,3.25,3.25,0,0,1-.22,1.2,2.44,2.44,0,0,1-.66.92,3.12,3.12,0,0,1-1.06.6,4.36,4.36,0,0,1-1.41.21,5.18,5.18,0,0,1-3-1l1-1.81a3.84,3.84,0,0,0,1,.66,2.31,2.31,0,0,0,1,.22,1.17,1.17,0,0,0,.82-.25.81.81,0,0,0,.27-.57.89.89,0,0,0-.07-.34.64.64,0,0,0-.23-.27,2.68,2.68,0,0,0-.42-.22l-.62-.23a8.64,8.64,0,0,1-.85-.31,2.38,2.38,0,0,1-.74-.44,2.27,2.27,0,0,1-.53-.69,2.49,2.49,0,0,1-.2-1.05,3.13,3.13,0,0,1,.21-1.17,2.6,2.6,0,0,1,1.53-1.47,3.52,3.52,0,0,1,1.25-.21,5.3,5.3,0,0,1,1.33.18,5.91,5.91,0,0,1,1.34.52Z" style="fill:#fff"/><path d="M114.56,10.57V17.3h-2.25V10.57h-1.85V8.67h5.94v1.9Z" style="fill:#fff"/><path d="M116.93,13a4.47,4.47,0,0,1,.35-1.79,4.3,4.3,0,0,1,1-1.45,4.61,4.61,0,0,1,1.51-1,5.47,5.47,0,0,1,3.85,0,4.45,4.45,0,0,1,1.52,1,4.16,4.16,0,0,1,1,1.45,4.43,4.43,0,0,1,.35,1.79,4.48,4.48,0,0,1-.35,1.8,4.56,4.56,0,0,1-1,1.45,4.77,4.77,0,0,1-1.52,1,5.47,5.47,0,0,1-3.85,0,4.46,4.46,0,0,1-1.51-1A4.44,4.44,0,0,1,116.93,13Zm2.35,0a2.41,2.41,0,0,0,1.49,2.22,2.54,2.54,0,0,0,1.88,0,2.21,2.21,0,0,0,.77-.51,2.57,2.57,0,0,0,.54-.75A2.5,2.5,0,0,0,124,12a2.29,2.29,0,0,0-.54-.76,2.51,2.51,0,0,0-2.65-.5,2.33,2.33,0,0,0-.77.5,2.42,2.42,0,0,0-.53.76A2.27,2.27,0,0,0,119.28,13Z" style="fill:#fff"/><path d="M135,17.3h-2.79L130,14V17.3h-2.25V8.66h3.49a3.39,3.39,0,0,1,1.26.21,2.46,2.46,0,0,1,.89.58,2.59,2.59,0,0,1,.53.85,2.94,2.94,0,0,1,.18,1,2.58,2.58,0,0,1-.48,1.6,2.41,2.41,0,0,1-1.41.84ZM130,12.52h.43a1.67,1.67,0,0,0,1-.27,1,1,0,0,0,0-1.58,1.61,1.61,0,0,0-1-.27H130Z" style="fill:#fff"/><path d="M137.55,13.15,134.4,8.67h2.69l1.6,2.36,1.59-2.36H143l-3.16,4.48V17.3h-2.25V13.15Z" style="fill:#fff"/><polygon points="24.68 17.3 27.46 3.07 32 13.36 36.71 3.07 39.21 17.3 37.16 17.3 35.88 9.31 31.97 17.9 28.16 9.3 26.74 17.3 24.68 17.3" style="fill:#fff"/><rect x="41.39" y="4.07" width="2" height="13.23" style="fill:#fff"/><polygon points="46.28 17.3 46.28 3.17 55.17 13.14 55.17 4.07 57.16 4.07 57.16 18.1 48.27 8.15 48.27 17.3 46.28 17.3" style="fill:#fff"/><polygon points="68.01 5.94 61.86 5.94 61.86 9.55 66.43 9.55 66.43 11.43 61.86 11.43 61.86 15.42 68.01 15.42 68.01 17.3 59.87 17.3 59.87 4.07 68.01 4.07 68.01 5.94" style="fill:#fff"/><path d="M76.43,11.66l4.09,5.63H78.08L74.3,11.88H72.48v5.41h-2V4.07h3.8a5.83,5.83,0,0,1,3.79,1A3.6,3.6,0,0,1,79.36,8a3.8,3.8,0,0,1-.81,2.42,3.61,3.61,0,0,1-2.12,1.29m-4-1.52h2.09c1.89,0,2.84-.72,2.84-2.17s-.92-2-2.76-2H72.48Z" style="fill:#fff"/><polygon points="82.24 4.07 85.9 13.24 89.61 4.07 91.79 4.07 85.86 18.3 80.05 4.07 82.24 4.07" style="fill:#fff"/><path d="M98.67,14.08H93l-1.47,3.21H89.38L95.93,3.23l6.32,14.06h-2.19Zm-.81-1.87-2-4.5-2.06,4.5Z" style="fill:#fff"/><path d="M22.2,13.82l-3.64-3.27,3.56.49L21.45,9l-4.74-.57,3.48-3.25-.67-2.08-2.59,2.5L18,.77,13.72,3.23,15.29,0H13.1l-2,4.32L9.08,0H6.9L8.46,3.23,4.22.77l1,4.79L2.66,3.06,2,5.14l3.5,3.25L.76,9,.09,11l3.55-.49L0,13.81l4.87.5L1.7,16l1.77,1.28L7.64,15l-.91,4.67L8.5,20.93l.63-3.53,2,4.48,2-4.48.63,3.53,1.77-1.28L14.58,15l4.17,2.31L20.52,16l-3.17-1.7Zm-8.07-1.06-.32-1.67L13,12.87l-1.93.19,1.48.83L11.1,17.28,9.62,13.89l1.48-.83-1.93-.19-.78-1.78-.32,1.67L4.38,12.4,7.15,9.94l1.24,1.15L8,9.2,9.42,7.92h0l-1.68.2L6.94,4.5l3.2,1.88L9.42,7.92h0l1.67-1,1.67,1-.71-1.54,3.2-1.88-.8,3.62-1.69-.2L14.21,9.2l-.42,1.89L15,9.94l2.78,2.46Z" style="fill:#fff"/><path d="M9.42,7.91Z" style="fill:#fff"/></svg>