<?xml version="1.0" encoding="UTF-8"?><svg id="Layer_1" xmlns="http://www.w3.org/2000/svg" width="91" height="21.55" viewBox="0 0 91 21.55"><path d="m25.68,13.64c0-2.39,1.6-4.07,3.99-4.07,1.91,0,3.03,1.04,3.59,2.55l-1.99.64c-.24-.88-.64-1.44-1.67-1.44-1.12,0-1.91.96-1.91,2.39v.08c0,1.36.64,2.39,1.83,2.39,1.12,0,1.6-.56,1.75-1.52l2.07.4c-.56,1.6-1.75,2.63-3.75,2.63-2.39.08-3.91-1.6-3.91-4.07Z" style="fill:#fff; stroke-width:0px;"/><path d="m33.9,13.72c0-2.47,1.67-4.15,3.99-4.15s3.83,1.6,3.83,4.07v.72h-5.74c.16,1.12.88,1.75,1.99,1.75,1.2,0,1.67-.56,1.91-1.2l1.83.64c-.56,1.28-1.67,2.23-3.75,2.23-2.47-.08-4.07-1.6-4.07-4.07Zm5.66-.8c-.08-1.12-.72-1.75-1.75-1.75s-1.75.64-1.91,1.75h3.67Z" style="fill:#fff; stroke-width:0px;"/><path d="m42.83,6.3h2.07v11.25h-2.07V6.3Z" style="fill:#fff; stroke-width:0px;"/><path d="m46.5,6.3h2.07v11.25h-2.07s0-11.25,0-11.25Z" style="fill:#fff; stroke-width:0px;"/><path d="m52.16,13.56l-2.55-3.83h2.31l1.52,2.39,1.52-2.39h2.15l-2.55,3.75,2.71,4.15h-2.31l-1.67-2.71-1.67,2.71h-2.15l2.71-4.07Z" style="fill:#fff; stroke-width:0px;"/><path d="m57.42,19.38c0-.72.56-1.36,1.36-1.75-.72-.16-1.28-.72-1.28-1.36,0-.72.56-1.2,1.44-1.44-.72-.56-1.12-1.36-1.12-2.23,0-1.75,1.44-3.03,3.43-3.03,1.28,0,2.23.56,2.87,1.36.32-.72.8-1.2,1.67-1.2v1.99c-.4-.16-.88-.16-1.2.16.08.24.08.4.08.64,0,1.83-1.36,3.03-3.43,3.03-.4,0-.8-.08-1.12-.16h-.08c-.4,0-.72.16-.72.4,0,.32.4.48.96.48h1.83c2.47,0,3.83.88,3.83,2.55s-1.6,2.71-4.39,2.71c-2.71.16-4.15-.72-4.15-2.15Zm6.7-.32c0-.72-.64-.96-2.15-.96h-1.6c-.72.08-1.28.48-1.28,1.04,0,.64.88,1.04,2.47,1.04,1.52,0,2.55-.4,2.55-1.12Zm-1.28-6.46v-.08c0-.8-.64-1.44-1.6-1.44-.88,0-1.52.64-1.52,1.44v.08c0,.88.64,1.44,1.52,1.44.96,0,1.6-.56,1.6-1.44Z" style="fill:#fff; stroke-width:0px;"/><path d="m66.2,13.72c0-2.47,1.67-4.15,3.99-4.15s3.83,1.6,3.83,4.07v.72h-5.74c.16,1.12.88,1.75,1.99,1.75,1.2,0,1.67-.56,1.91-1.2l1.83.64c-.56,1.28-1.67,2.23-3.75,2.23-2.55-.08-4.07-1.6-4.07-4.07Zm5.66-.8c-.08-1.12-.72-1.75-1.75-1.75s-1.75.64-1.91,1.75h3.67Z" style="fill:#fff; stroke-width:0px;"/><path d="m75.05,9.73h2.07v1.28c.4-.96,1.2-1.44,2.31-1.44,1.75,0,2.71,1.12,2.71,3.35v4.71h-2.07v-4.63c0-1.12-.4-1.67-1.36-1.67s-1.6.8-1.6,2.31v3.99h-2.07v-7.9h0Z" style="fill:#fff; stroke-width:0px;"/><path d="m83.18,13.72c0-2.47,1.67-4.15,3.99-4.15s3.83,1.6,3.83,4.07v.72h-5.74c.16,1.12.88,1.75,1.99,1.75,1.2,0,1.67-.56,1.91-1.2l1.83.64c-.56,1.28-1.67,2.23-3.75,2.23-2.47-.08-4.07-1.6-4.07-4.07Zm5.74-.8c-.08-1.12-.72-1.75-1.75-1.75s-1.75.64-1.91,1.75h3.67Z" style="fill:#fff; stroke-width:0px;"/><path d="m2.79,5.42H.48c-.24,0-.48.24-.48.48v14.12c0,.24.24.48.48.48h2.31c.24,0,.48-.24.48-.48V5.9c0-.24-.24-.48-.48-.48Z" style="fill:#fff; stroke-width:0px;"/><path d="m20.42,20.1c0,.24-.24.48-.48.48H5.82c-.24,0-.48-.24-.48-.48V5.98c0-.24.24-.48.48-.48h14.12c.24,0,.48.24.48.48v14.12Zm-11.8-3.35c0,.24.24.48.48.48h7.58c.24,0,.48-.24.48-.48v-7.58c0-.24-.24-.48-.48-.48h-7.58c-.24,0-.48.24-.48.48v7.58Z" style="fill:#fff; stroke-width:0px;"/><path d="m19.94,0H5.82c-.24,0-.48.24-.48.48v2.31c0,.24.24.48.48.48h14.12c.24,0,.48-.24.48-.48V.48c0-.24-.16-.48-.48-.48Z" style="fill:#fff; stroke-width:0px;"/></svg>