<?xml version="1.0" encoding="UTF-8"?><svg id="Layer_1" xmlns="http://www.w3.org/2000/svg" width="97.98" height="23.28" viewBox="0 0 97.98 23.28"><path d="m13.59.48c.16.56.4.95.87,1.27.24.16.48.4.79.56.16.08.4.24.64.32s.56.16.79.24c.24.08.4.08.64.16.4,0,.79.08,1.19.08s.72,0,1.11-.08h.08c-1.67-1.51-3.81-2.54-6.12-2.86-.08.08-.08.16,0,.32Z" style="fill:#fff; stroke-width:0px;"/><path d="m8.19.72c.32.48.79.72,1.43.64.32,0,.56-.08.87-.16.24-.08.4-.08.64-.08.72-.08,1.19-.4,1.67-.87l.08-.08c-.32,0-.72-.08-1.11-.08-1.19,0-2.46.16-3.58.64q0-.08,0,0Z" style="fill:#fff; stroke-width:0px;"/><path d="m4.93,4.69c.56.08,1.03-.16,1.35-.64.32-.4.56-.79.87-1.19.16-.24.32-.56.4-.87.16-.32.24-.72.24-1.11,0,0,0-.08.08-.08-.79.32-1.59.64-2.3,1.11v.24c0,.4-.32.64-.64.64-.16,0-.32-.08-.4-.16-.4.32-.79.72-1.19,1.11.16.16.4.32.56.48.32.16.64.4,1.03.48Z" style="fill:#fff; stroke-width:0px;"/><path d="m2.62,7.63c.24-.08.48-.24.64-.4.4-.32.72-.56,1.03-.95s.4-.79.24-1.27c-.16-.4-.4-.64-.72-.79-.16-.16-.4-.32-.56-.48-.48.56-.95,1.11-1.35,1.75.08.08.16.24.16.4,0,.4-.32.64-.64.64h-.08c-.24.48-.4.95-.64,1.43.32,0,.64,0,.87-.08.4,0,.72-.08,1.03-.24Z" style="fill:#fff; stroke-width:0px;"/><path d="m21.38,7.79c-.32,0-.64-.08-.95-.08-.56,0-.95.24-1.11.72-.08.24-.08.48-.08.72,0,.16,0,.32.08.48.08.4.08.87.16,1.27v.24c.08.64.16,1.27.24,1.99.08.32.24.56.48.79.24.24.56.32.87.4.32,0,.64,0,.95-.08.32-.08.56-.08.87-.08.08,0,.16,0,.32-.08.16-.79.24-1.59.24-2.38,0-1.27-.24-2.54-.64-3.74-.16,0-.32,0-.4-.08-.4,0-.72,0-1.03-.08Zm1.67,3.42c0,.4-.32.79-.72.79s-.72-.32-.72-.79c0-.4.32-.79.72-.79s.72.4.72.79Z" style="fill:#fff; stroke-width:0px;"/><path d="m20.26,5.32c-.16.24-.24.48-.4.72s-.24.4-.24.64c0,.4.24.72.56.79.32.08.64.08.95.16.48,0,.87.08,1.35.16.08,0,.16.08.24.08h.08c-.48-1.27-1.11-2.46-1.99-3.5,0,0,0,.08-.08.08-.16.24-.32.56-.48.87Z" style="fill:#fff; stroke-width:0px;"/><path d="m19.63,3.18h-2.3c-.32,0-.64.08-1.03.16-.16,0-.4.08-.56.16-.24.08-.48.16-.72.32-.32.16-.56.32-.87.48s-.56.32-.87.56c-.32.24-.72.4-1.03.64-.24.16-.48.32-.56.64-.08.24,0,.48.16.64.16.24.48.4.72.56.32.24.64.4.95.64.4.24.72.56,1.11.72.56.24,1.19.32,1.75.16.48-.08.79-.32,1.19-.56.48-.32.87-.64,1.27-1.03.48-.48.87-.95,1.11-1.51.24-.4.48-.87.72-1.27.08-.08.08-.24.16-.32h0c-.32-.32-.64-.64-.95-.95-.16,0-.24,0-.24,0Zm-3.74,3.89c-.4,0-.72-.32-.72-.79s.32-.79.72-.79.72.32.72.79-.32.79-.72.79Z" style="fill:#a6a8ab; stroke-width:0px;"/><path d="m6.99,21.69c-.32-.24-.56-.32-.95-.32h-.72c.72.48,1.51.87,2.3,1.19,0,0,0-.08-.08-.08-.08-.32-.32-.56-.56-.79Z" style="fill:#fff; stroke-width:0px;"/><path d="m6.28,21.22c.32,0,.64-.16.95-.32.48-.24.87-.48,1.19-.79.4-.4.64-.87.79-1.43.08-.4.16-.79.16-1.19,0-.32-.08-.64-.16-.95,0-.16-.08-.32-.16-.48-.08-.24-.08-.4-.16-.64-.08-.32-.16-.64-.48-.95-.32-.24-.72-.32-1.03-.08-.32.24-.72.48-1.03.72-.32.24-.64.4-.87.64-.32.24-.56.48-.72.79-.24.32-.4.64-.56,1.03-.08.24-.16.48-.16.79-.08.24-.08.56-.08.79v1.03c.4.4.79.72,1.27,1.03h1.03Zm.16-3.1c.32,0,.64.32.64.64s-.24.64-.64.64c-.32,0-.64-.32-.64-.64s.32-.64.64-.64Z" style="fill:#fff; stroke-width:0px;"/><path d="m22.49,14.38c-.4.08-.87.16-1.27.24s-.64.48-.56.95c0,.24.16.48.32.64.16.24.32.56.48.79.16.16.24.4.32.56v.08c.64-1.03,1.11-2.15,1.35-3.42h-.08c-.16.08-.4.08-.56.16Z" style="fill:#fff; stroke-width:0px;"/><path d="m13.83,20.82c.08-.24.08-.56,0-.87-.08-.4-.32-.64-.64-.87-.32-.16-.64-.24-1.03-.24-.4-.08-.87-.16-1.27-.16-.48,0-.87.16-1.27.32-.32.16-.64.4-.79.64s-.4.56-.56.87c-.16.24-.24.56-.32.79-.08.4-.16.72-.16,1.11v.16c1.19.48,2.54.72,3.89.72.48,0,1.03,0,1.51-.08.08-.48.16-.87.32-1.35.16-.32.32-.64.32-1.03Zm-2.78,1.67c-.32,0-.64-.32-.64-.64s.32-.64.64-.64.64.32.64.64-.32.64-.64.64Z" style="fill:#fff; stroke-width:0px;"/><path d="m16.69,20.42c-.4-.24-.72-.4-1.11-.56-.32-.16-.56-.16-.87,0-.4.16-.56.56-.64.95-.08.4-.16.79-.32,1.19-.08.24-.08.48-.16.72,0,.16-.08.32-.16.48.79-.08,1.51-.32,2.23-.56h0c0-.4.32-.72.72-.72.16,0,.4.08.48.24.48-.24.95-.48,1.43-.79-.24-.16-.48-.24-.79-.4-.24-.24-.56-.4-.79-.56Z" style="fill:#fff; stroke-width:0px;"/><path d="m3.66,19.71c.08-.4.08-.79.08-1.19,0-.08.08-.24,0-.32,0-.32-.08-.64-.16-.95s-.16-.64-.24-.95c-.16-.32-.32-.56-.48-.79s-.4-.56-.64-.72c-.4-.24-.72-.48-1.19-.56-.24-.08-.48-.08-.72-.16.48,2.3,1.67,4.37,3.26,5.96.08-.08.08-.16.08-.32Z" style="fill:#fff; stroke-width:0px;"/><path d="m20.74,16.29c-.16-.16-.24-.4-.4-.56-.24-.24-.48-.4-.79-.48-.32-.16-.72-.24-1.03-.24-.48,0-.95.08-1.35.32-.24.16-.56.32-.79.56-.24.16-.48.48-.64.72-.08.16-.16.4-.32.56-.08.16-.16.4-.24.56-.16.24-.16.56-.16.87.08.48.32.87.72,1.19.24.16.4.24.64.4s.48.24.72.4l.95.48c.16.08.24.16.4.24,1.35-.95,2.46-2.15,3.26-3.5-.08-.16-.24-.32-.32-.48-.16-.4-.4-.72-.64-1.03Zm-2.15,2.86c-.4,0-.79-.32-.79-.79,0-.4.32-.79.79-.79.4,0,.79.32.79.79-.08.4-.4.79-.79.79Z" style="fill:#fff; stroke-width:0px;"/><path d="m.48,13.91c.4-.08.79-.32,1.11-.56.48-.32.87-.72,1.19-1.19.24-.4.4-.79.4-1.27.08-.4,0-.87-.24-1.19-.16-.4-.48-.72-.87-.95-.24-.16-.48-.32-.72-.4-.16-.08-.4-.08-.64-.16-.08,0-.16,0-.16-.08-.4,1.11-.56,2.3-.56,3.58,0,.79.08,1.51.24,2.3.16-.08.24-.08.24-.08Z" style="fill:#fff; stroke-width:0px;"/><path d="m22.89,14.15c-.32,0-.56.08-.87.08-.32.08-.64.08-.95.08s-.64-.16-.87-.4c-.24-.24-.48-.48-.48-.79-.08-.64-.16-1.27-.24-1.99v-.24c-.08-.4-.08-.87-.16-1.27,0-.16,0-.32-.08-.48,0-.24-.08-.48.08-.72.16-.48.64-.79,1.11-.72.32,0,.64.08.95.08s.72.08,1.03.08c.16,0,.32,0,.4.08q0-.08-.08-.16h-.08c-.08,0-.16,0-.24-.08-.48-.08-.87-.08-1.35-.16-.32,0-.64,0-.95-.16-.4-.16-.56-.48-.56-.79,0-.24.08-.48.24-.64.16-.24.24-.48.4-.72.16-.32.32-.56.48-.87,0,0,0-.08.08-.08l-.16-.16h0c-.08.08-.08.24-.16.32-.24.4-.48.79-.72,1.27-.32.56-.72,1.03-1.11,1.51-.4.4-.79.72-1.27,1.03-.4.24-.72.48-1.19.56-.64.16-1.19.08-1.75-.16-.4-.16-.72-.48-1.11-.72-.32-.24-.64-.4-.95-.64-.24-.16-.56-.32-.72-.56,0-.16-.08-.32,0-.64s.32-.48.56-.64c.32-.24.72-.4,1.03-.64.32-.16.56-.32.87-.56.32-.16.56-.32.87-.48.24-.08.48-.24.72-.32.16-.08.4-.08.56-.16.32-.08.64-.16,1.03-.16h2.46c-.08-.08-.16-.16-.24-.24h-.08c-.4,0-.72.08-1.11.08s-.79,0-1.19-.08c-.24,0-.4-.08-.64-.16s-.56-.16-.79-.24c-.24-.08-.4-.16-.64-.32-.24-.16-.48-.32-.79-.56-.4-.32-.72-.79-.87-1.27-.08-.24-.08-.32-.16-.32-.16,0-.4-.08-.56-.08,0,0-.08,0-.08.08-.48.48-.95.79-1.67.87-.24,0-.4.08-.64.08-.32.08-.56.16-.87.16-.64.08-1.11-.16-1.43-.64,0,0,0-.08-.08-.08s-.16.08-.32.08c-.08,0-.08.08-.08.08-.08.4-.16.72-.24,1.11-.08.32-.24.64-.4.87-.24.4-.56.79-.87,1.19-.32.48-.79.64-1.35.64-.4,0-.72-.32-1.03-.56-.16-.16-.4-.32-.56-.48,0,.08-.08.08-.08.16.16.16.4.32.56.48.32.24.56.48.72.79.16.48.08.95-.24,1.27s-.64.64-1.03.95c-.16.16-.4.24-.64.4-.32.16-.64.24-.95.32-.32.08-.64.08-.87.08v.08s.08.08.16.08c.24.08.4.08.64.16s.48.24.72.4c.32.24.64.56.87.95.16.4.24.79.24,1.19-.08.48-.16.87-.4,1.27-.32.48-.72.87-1.19,1.19-.32.24-.72.4-1.11.56q-.08,0-.08.08v.08c.24.08.48.08.72.16.48.08.79.32,1.19.56.32.16.48.48.64.72.16.24.32.56.48.79.16.32.24.64.24.95.08.32.08.64.16.95v.32c0,.4-.08.79-.08,1.19v.32c.08.08.16.16.24.24v-1.03c0-.24.08-.56.08-.79.08-.24.08-.56.16-.79.16-.32.32-.72.56-1.03.16-.32.48-.56.72-.79.32-.24.56-.4.87-.64s.64-.48,1.03-.72c.32-.16.79-.16,1.03.08s.32.56.48.95c.08.16.08.4.16.64,0,.16.08.32.16.48.08.32.16.64.16.95,0,.4-.08.79-.16,1.19-.08.56-.4,1.03-.79,1.43-.32.4-.72.64-1.19.79-.32.16-.64.24-.95.32h-1.11c.08.08.16.08.16.16h.72c.32,0,.64.08.95.32.24.24.48.48.64.79,0,0,0,.08.08.08s.16.08.24.08v-.16c0-.4.08-.79.16-1.11.08-.24.16-.56.32-.79.16-.32.32-.56.56-.87.24-.32.48-.48.79-.64.4-.24.79-.32,1.27-.32.4,0,.87.08,1.27.16.32,0,.72.08,1.03.24.32.24.56.48.64.87.08.24,0,.56,0,.87-.08.4-.16.72-.24,1.11-.08.4-.16.87-.32,1.35h.16c.08-.16.08-.32.16-.48.08-.24.16-.48.16-.72.08-.4.16-.79.32-1.19.08-.4.24-.72.64-.95.32-.16.64-.16.87,0,.4.16.72.4,1.11.56.32.16.56.32.87.48.24.16.48.24.79.4.08,0,.08-.08.16-.08-.16-.08-.24-.16-.4-.24l-.95-.48c-.24-.16-.48-.24-.72-.4s-.4-.24-.64-.4c-.4-.32-.64-.72-.72-1.19,0-.32,0-.56.16-.87.08-.16.16-.4.24-.56.08-.16.16-.4.32-.56.16-.24.4-.56.64-.72s.48-.4.79-.56c.4-.24.87-.24,1.35-.32.4,0,.72.08,1.03.24s.56.32.79.48c.16.16.32.32.4.56.24.32.48.72.64,1.03.08.16.24.32.32.48l.08-.08v-.08c-.08-.16-.24-.4-.32-.56-.16-.24-.32-.56-.48-.79s-.24-.4-.32-.64c-.08-.4.24-.87.56-.95.4-.08.87-.16,1.27-.24.24,0,.4-.08.64-.08h.08v-.16c-.24-.16-.4-.08-.48-.08ZM6.36,4.29c.32-.48.64-.95,1.03-1.43.24-.24.48-.48.79-.64.32-.24.64-.4.95-.56.16-.08.32-.08.4-.16.32-.08.56-.08.87-.16s.64-.16.95-.16c.24,0,.56-.08.79-.08.56,0,1.03.16,1.51.4.24.16.56.32.79.48.16.16.32.24.48.48.24.32.24.79,0,1.11-.16.24-.4.4-.64.48-.56.32-1.11.64-1.59.95-.32.24-.72.4-1.03.56s-.64.24-.95.24c-.32.08-.64.08-.95.16-.24-.08-.48-.08-.72-.08-.16,0-.24,0-.4-.08-.48-.08-.95-.16-1.43-.24-.32-.08-.64-.24-.79-.64-.32-.16-.24-.4-.08-.64Zm1.67,8.98c-.16.4-.4.79-.79,1.03-.24.16-.48.32-.72.56-.24.16-.48.32-.72.48-.24.16-.48.4-.72.48-.32.16-.72.24-1.11.08-.56-.16-.87-.56-1.19-1.03-.24-.32-.32-.72-.32-1.11,0-.32.08-.56.16-.87.24-.72.79-1.19,1.35-1.59.4-.24.79-.48,1.19-.64.16-.08.24-.08.4-.08.24-.08.48-.08.72-.16.24-.08.4-.08.64-.16.24-.08.56,0,.79.08.48.24.64.64.64,1.19v.24c0,.56-.08,1.03-.32,1.51Zm-.72-3.34c-.24.08-.56.16-.79.24s-.48.16-.72.16c-.56.16-1.11.24-1.75-.08-.4-.16-.79-.48-.95-.87-.08-.24-.08-.48-.16-.72h0c0-.56.16-1.11.64-1.51.32-.32.72-.64,1.11-.87.24-.16.48-.24.72-.32.16-.08.32-.08.4-.16.4-.16.72-.08,1.11-.08.32,0,.64.08,1.03.16s.79.16,1.27.24c.48.08.87.64.72,1.11-.08.24-.24.4-.32.64-.16.24-.24.4-.4.64-.16.24-.4.4-.56.64-.48.4-.87.64-1.35.79Zm1.27,2.62c-.08-.24-.16-.48-.16-.79v-.16c0-.48.08-.95.16-1.43.08-.32.16-.64.24-.87.16-.32.32-.64.56-.95.08-.16.24-.4.4-.56.32-.56.87-.79,1.51-.72.32,0,.64.24.87.4.24.16.56.32.79.56.24.16.48.32.64.48.16.08.32.16.4.24.24.16.48.4.64.72.24.4.32.87.08,1.27-.16.32-.32.64-.48.87-.08.24-.24.4-.4.64-.32.4-.79.72-1.27.95s-.95.24-1.43.24c-.4,0-.87.08-1.27.08-.48-.08-1.03-.48-1.27-.95Zm6.91,3.97c-.08.24-.16.4-.32.56-.08.16-.16.32-.24.56-.24.4-.56.64-.95.87-.32.16-.72.24-1.03.24-.56-.08-1.03-.16-1.59-.24-.64-.08-1.19-.48-1.59-.95-.24-.24-.32-.56-.4-.87-.08-.24-.16-.4-.16-.64-.08-.24-.08-.4-.16-.64-.08-.16-.08-.32-.16-.48-.08-.48.24-1.03.64-1.27.32-.16.64-.16.95-.16.4,0,.79-.08,1.27-.08s.95,0,1.43.16c.32.08.56.16.87.32.56.24,1.03.48,1.27,1.03.24.48.32,1.03.16,1.59Zm3.1-1.83c-.24.16-.56.16-.87.16-.64.08-1.27-.08-1.91-.24-.4-.16-.87-.32-1.19-.72-.24-.24-.32-.48-.4-.79,0-.16-.08-.32-.08-.48,0-.4.16-.72.32-1.03.16-.24.24-.48.4-.72.16-.24.32-.48.48-.72.4-.48.79-.95,1.35-1.27.32-.24.64-.48,1.03-.64.4-.16.95-.08,1.11.4.16.32.16.72.24,1.03.08.48.08.87.16,1.27v.24c.08.56.16,1.03.24,1.59.24.87-.16,1.59-.87,1.91Z" style="fill:#765f75; stroke-width:0px;"/><path d="m6.36,4.29c.32-.48.64-.95,1.03-1.43.24-.24.48-.48.79-.64.32-.24.64-.4.95-.56.16-.08.32-.08.4-.16.32-.08.56-.08.87-.16s.64-.16.95-.16c.24,0,.56-.08.79-.08.56,0,1.03.16,1.51.4.24.16.56.32.79.48.16.16.32.24.48.48.24.32.24.79,0,1.11-.16.24-.4.4-.64.48-.56.32-1.11.64-1.59.95-.32.24-.72.4-1.03.56s-.64.24-.95.24c-.32.08-.64.08-.95.16-.24-.08-.48-.08-.72-.08-.16,0-.24,0-.4-.08-.48-.08-.95-.16-1.43-.24-.32-.08-.64-.24-.79-.64-.32-.16-.24-.4-.08-.64Zm1.67,8.98c-.16.4-.4.79-.79,1.03-.24.16-.48.32-.72.56-.24.16-.48.32-.72.48-.24.16-.48.4-.72.48-.32.16-.72.24-1.11.08-.56-.16-.87-.56-1.19-1.03-.24-.32-.32-.72-.32-1.11,0-.32.08-.56.16-.87.24-.72.79-1.19,1.35-1.59.4-.24.79-.48,1.19-.64.16-.08.24-.08.4-.08.24-.08.48-.08.72-.16.24-.08.4-.08.64-.16.24-.08.56,0,.79.08.48.24.64.64.64,1.19v.24c0,.56-.08,1.03-.32,1.51Zm-.72-3.34c-.24.08-.56.16-.79.24s-.48.16-.72.16c-.56.16-1.11.24-1.75-.08-.4-.16-.79-.48-.95-.87-.08-.24-.08-.48-.16-.72h0c0-.56.16-1.11.64-1.51.32-.32.72-.64,1.11-.87.24-.16.48-.24.72-.32.16-.08.32-.08.4-.16.4-.16.72-.08,1.11-.08.32,0,.64.08,1.03.16s.79.16,1.27.24c.48.08.87.64.72,1.11-.08.24-.24.4-.32.64-.16.24-.24.4-.4.64-.16.24-.4.4-.56.64-.48.4-.87.64-1.35.79Zm1.27,2.62c-.08-.24-.16-.48-.16-.79v-.16c0-.48.08-.95.16-1.43.08-.32.16-.64.24-.87.16-.32.32-.64.56-.95.08-.16.24-.4.4-.56.32-.56.87-.79,1.51-.72.32,0,.64.24.87.4.24.16.56.32.79.56.24.16.48.32.64.48.16.08.32.16.4.24.24.16.48.4.64.72.24.4.32.87.08,1.27-.16.32-.32.64-.48.87-.08.24-.24.4-.4.64-.32.4-.79.72-1.27.95s-.95.24-1.43.24c-.4,0-.87.08-1.27.08-.48-.08-1.03-.48-1.27-.95Zm6.91,3.97c-.08.24-.16.4-.32.56-.08.16-.16.32-.24.56-.24.4-.56.64-.95.87-.32.16-.72.24-1.03.24-.56-.08-1.03-.16-1.59-.24-.64-.08-1.19-.48-1.59-.95-.24-.24-.32-.56-.4-.87-.08-.24-.16-.4-.16-.64-.08-.24-.08-.4-.16-.64-.08-.16-.08-.32-.16-.48-.08-.48.24-1.03.64-1.27.32-.16.64-.16.95-.16.4,0,.79-.08,1.27-.08s.95,0,1.43.16c.32.08.56.16.87.32.56.24,1.03.48,1.27,1.03.24.48.32,1.03.16,1.59Zm3.1-1.83c-.24.16-.56.16-.87.16-.64.08-1.27-.08-1.91-.24-.4-.16-.87-.32-1.19-.72-.24-.24-.32-.48-.4-.79,0-.16-.08-.32-.08-.48,0-.4.16-.72.32-1.03.16-.24.24-.48.4-.72.16-.24.32-.48.48-.72.4-.48.79-.95,1.35-1.27.32-.24.64-.48,1.03-.64.4-.16.95-.08,1.11.4.16.32.16.72.24,1.03.08.48.08.87.16,1.27v.24c.08.56.16,1.03.24,1.59.24.87-.16,1.59-.87,1.91Z" style="fill:#231f20; isolation:isolate; opacity:.26; stroke-width:0px;"/><path d="m10.01,13.43c.4,0,.87-.08,1.27-.08.48,0,.95,0,1.43-.24.48-.24.87-.56,1.27-.95.16-.16.24-.4.4-.64.16-.32.32-.56.48-.87.16-.48.08-.87-.08-1.27-.16-.32-.32-.56-.64-.72-.16-.08-.32-.16-.4-.24-.24-.16-.48-.32-.64-.48-.24-.16-.56-.32-.79-.56-.24-.16-.56-.32-.87-.4-.64-.08-1.11.16-1.51.72-.16.16-.24.4-.4.56-.16.32-.4.64-.56.95s-.16.64-.24.87c-.16.48-.16.95-.16,1.43v.16c0,.24,0,.56.16.79.08.56.64.95,1.27.95Zm2.15-3.58c.4,0,.72.32.72.79,0,.4-.32.79-.72.79s-.72-.32-.72-.79c0-.48.32-.79.72-.79Z" style="fill:#fff; stroke-width:0px;"/><path d="m10.01,13.43c.4,0,.87-.08,1.27-.08.48,0,.95,0,1.43-.24.48-.24.87-.56,1.27-.95.16-.16.24-.4.4-.64.16-.32.32-.56.48-.87.16-.48.08-.87-.08-1.27-.16-.32-.32-.56-.64-.72-.16-.08-.32-.16-.4-.24-.24-.16-.48-.32-.64-.48-.24-.16-.56-.32-.79-.56-.24-.16-.56-.32-.87-.4-.64-.08-1.11.16-1.51.72-.16.16-.24.4-.4.56-.16.32-.4.64-.56.95s-.16.64-.24.87c-.16.48-.16.95-.16,1.43v.16c0,.24,0,.56.16.79.08.56.64.95,1.27.95Zm2.15-3.58c.4,0,.72.32.72.79,0,.4-.32.79-.72.79s-.72-.32-.72-.79c0-.48.32-.79.72-.79Z" style="fill:#fff; isolation:isolate; opacity:.26; stroke-width:0px;"/><path d="m6.99,5.64c.48.08.95.16,1.43.24.16,0,.24,0,.4.08.24,0,.48.08.72.08.32-.08.64-.08.95-.16l.95-.24c.4-.16.72-.4,1.03-.56.56-.32,1.11-.64,1.59-.95.24-.16.48-.32.64-.48.32-.32.24-.79,0-1.11-.16-.16-.32-.32-.48-.48-.24-.16-.48-.4-.79-.48-.48-.24-.95-.4-1.51-.4-.24,0-.56,0-.79.08-.32.08-.64.16-.95.16-.32.08-.56.08-.87.16-.16,0-.32.08-.4.16-.32.16-.64.32-.95.56-.24.16-.56.4-.79.64-.4.48-.72.95-1.03,1.43-.16.24-.24.48-.16.72.4.32.72.48,1.03.56Zm2.7-2.54c.4,0,.72.32.72.72s-.4.72-.72.72c-.4,0-.72-.32-.72-.72s.32-.72.72-.72Z" style="fill:#fff; stroke-width:0px;"/><path d="m6.99,5.64c.48.08.95.16,1.43.24.16,0,.24,0,.4.08.24,0,.48.08.72.08.32-.08.64-.08.95-.16l.95-.24c.4-.16.72-.4,1.03-.56.56-.32,1.11-.64,1.59-.95.24-.16.48-.32.64-.48.32-.32.24-.79,0-1.11-.16-.16-.32-.32-.48-.48-.24-.16-.48-.4-.79-.48-.48-.24-.95-.4-1.51-.4-.24,0-.56,0-.79.08-.32.08-.64.16-.95.16-.32.08-.56.08-.87.16-.16,0-.32.08-.4.16-.32.16-.64.32-.95.56-.24.16-.56.4-.79.64-.4.48-.72.95-1.03,1.43-.16.24-.24.48-.16.72.4.32.72.48,1.03.56Zm2.7-2.54c.4,0,.72.32.72.72s-.4.72-.72.72c-.4,0-.72-.32-.72-.72s.32-.72.72-.72Z" style="fill:#fff; isolation:isolate; opacity:.26; stroke-width:0px;"/><path d="m14.07,13.91c-.24-.08-.56-.16-.87-.32-.48-.16-.95-.16-1.43-.16-.4,0-.79.08-1.27.08-.32,0-.64.08-.95.16-.48.24-.72.79-.64,1.27,0,.16.08.32.16.48.08.24.08.4.16.64s.16.4.16.64c.08.32.24.64.4.87.4.48.87.87,1.59.95.56.08,1.03.16,1.59.24.4,0,.72-.08,1.03-.24.4-.24.72-.48.95-.87.08-.16.16-.32.24-.56.08-.16.24-.4.32-.56.24-.56.16-1.11-.08-1.59-.32-.56-.79-.87-1.35-1.03Zm-1.99,2.94c-.32,0-.64-.32-.64-.64,0-.4.32-.64.64-.64s.64.32.64.64-.24.64-.64.64Z" style="fill:#fff; stroke-width:0px;"/><path d="m14.07,13.91c-.24-.08-.56-.16-.87-.32-.48-.16-.95-.16-1.43-.16-.4,0-.79.08-1.27.08-.32,0-.64.08-.95.16-.48.24-.72.79-.64,1.27,0,.16.08.32.16.48.08.24.08.4.16.64s.16.4.16.64c.08.32.24.64.4.87.4.48.87.87,1.59.95.56.08,1.03.16,1.59.24.4,0,.72-.08,1.03-.24.4-.24.72-.48.95-.87.08-.16.16-.32.24-.56.08-.16.24-.4.32-.56.24-.56.16-1.11-.08-1.59-.32-.56-.79-.87-1.35-1.03Zm-1.99,2.94c-.32,0-.64-.32-.64-.64,0-.4.32-.64.64-.64s.64.32.64.64-.24.64-.64.64Z" style="fill:#fff; isolation:isolate; opacity:.26; stroke-width:0px;"/><path d="m19.31,11.36v-.24c-.08-.4-.16-.87-.16-1.27,0-.32-.08-.72-.24-1.03-.24-.48-.72-.56-1.11-.4-.32.16-.72.4-1.03.64-.48.4-.95.79-1.35,1.27-.16.24-.32.48-.48.72-.16.24-.24.48-.4.72-.16.32-.32.64-.32,1.03,0,.16.08.32.08.48.08.32.24.56.4.79.32.32.72.56,1.19.72.64.24,1.19.32,1.91.24.32,0,.64-.08.87-.16.72-.32,1.11-1.03.95-1.83-.16-.64-.24-1.19-.32-1.67Zm-1.99,1.75c-.4,0-.72-.32-.72-.72s.32-.72.72-.72.72.32.72.72-.32.72-.72.72Z" style="fill:#fff; stroke-width:0px;"/><path d="m19.31,11.36v-.24c-.08-.4-.16-.87-.16-1.27,0-.32-.08-.72-.24-1.03-.24-.48-.72-.56-1.11-.4-.32.16-.72.4-1.03.64-.48.4-.95.79-1.35,1.27-.16.24-.32.48-.48.72-.16.24-.24.48-.4.72-.16.32-.32.64-.32,1.03,0,.16.08.32.08.48.08.32.24.56.4.79.32.32.72.56,1.19.72.64.24,1.19.32,1.91.24.32,0,.64-.08.87-.16.72-.32,1.11-1.03.95-1.83-.16-.64-.24-1.19-.32-1.67Zm-1.99,1.75c-.4,0-.72-.32-.72-.72s.32-.72.72-.72.72.32.72.72-.32.72-.72.72Z" style="fill:#fff; isolation:isolate; opacity:.26; stroke-width:0px;"/><path d="m9.14,8.58c.16-.16.24-.4.4-.64s.24-.4.32-.64c.16-.48-.24-1.03-.72-1.11-.4-.08-.79-.16-1.27-.24-.32-.08-.64-.08-1.03-.16-.4,0-.72-.08-1.11.08-.16.08-.32.08-.4.16-.24.08-.48.16-.72.32-.4.24-.72.56-1.11.87-.4.4-.64.95-.64,1.51h0c.08.24.08.48.16.72.16.4.56.64.95.87.56.24,1.11.24,1.75.08.24-.08.48-.16.72-.16.24-.08.56-.16.79-.24.4-.24.87-.48,1.19-.79.32-.24.48-.48.72-.64Zm-1.91,0c-.4,0-.72-.32-.72-.79,0-.4.32-.79.72-.79s.72.32.72.79c0,.4-.32.79-.72.79Z" style="fill:#fff; stroke-width:0px;"/><path d="m9.14,8.58c.16-.16.24-.4.4-.64s.24-.4.32-.64c.16-.48-.24-1.03-.72-1.11-.4-.08-.79-.16-1.27-.24-.32-.08-.64-.08-1.03-.16-.4,0-.72-.08-1.11.08-.16.08-.32.08-.4.16-.24.08-.48.16-.72.32-.4.24-.72.56-1.11.87-.4.4-.64.95-.64,1.51h0c.08.24.08.48.16.72.16.4.56.64.95.87.56.24,1.11.24,1.75.08.24-.08.48-.16.72-.16.24-.08.56-.16.79-.24.4-.24.87-.48,1.19-.79.32-.24.48-.48.72-.64Zm-1.91,0c-.4,0-.72-.32-.72-.79,0-.4.32-.79.72-.79s.72.32.72.79c0,.4-.32.79-.72.79Z" style="fill:#fff; isolation:isolate; opacity:.26; stroke-width:0px;"/><path d="m8.34,11.6c0-.56-.16-.95-.64-1.19-.24-.08-.48-.16-.79-.08-.16.08-.4.08-.64.16-.24.08-.48.08-.72.16-.16,0-.24.08-.4.08-.4.16-.79.4-1.19.64-.56.4-1.11.95-1.35,1.59-.08.24-.16.56-.16.87,0,.4.08.79.32,1.11.32.48.64.87,1.19,1.03.4.08.79.08,1.11-.08.24-.16.48-.32.72-.48.24-.16.48-.32.72-.48.24-.16.48-.32.72-.56.32-.32.56-.64.79-1.03.24-.48.32-.95.32-1.43,0-.16,0-.24,0-.32Zm-3.66,2.3c-.32,0-.64-.32-.64-.64s.24-.64.64-.64c.32,0,.64.32.64.64,0,.32-.24.64-.64.64Z" style="fill:#fff; stroke-width:0px;"/><path d="m8.34,11.6c0-.56-.16-.95-.64-1.19-.24-.08-.48-.16-.79-.08-.16.08-.4.08-.64.16-.24.08-.48.08-.72.16-.16,0-.24.08-.4.08-.4.16-.79.4-1.19.64-.56.4-1.11.95-1.35,1.59-.08.24-.16.56-.16.87,0,.4.08.79.32,1.11.32.48.64.87,1.19,1.03.4.08.79.08,1.11-.08.24-.16.48-.32.72-.48.24-.16.48-.32.72-.48.24-.16.48-.32.72-.56.32-.32.56-.64.79-1.03.24-.48.32-.95.32-1.43,0-.16,0-.24,0-.32Zm-3.66,2.3c-.32,0-.64-.32-.64-.64s.24-.64.64-.64c.32,0,.64.32.64.64,0,.32-.24.64-.64.64Z" style="fill:#fff; isolation:isolate; opacity:.26; stroke-width:0px;"/><circle cx="9.7" cy="3.81" r=".72" style="fill:#fff; stroke-width:0px;"/><circle cx="9.7" cy="3.81" r=".72" style="fill:#a6a8ab; stroke-width:0px;"/><ellipse cx="7.23" cy="7.79" rx=".72" ry=".79" style="fill:#fff; stroke-width:0px;"/><ellipse cx="7.23" cy="7.79" rx=".72" ry=".79" style="fill:#a6a8ab; stroke-width:0px;"/><ellipse cx="12.16" cy="10.57" rx=".72" ry=".79" style="fill:#fff; stroke-width:0px;"/><ellipse cx="12.16" cy="10.57" rx=".72" ry=".79" style="fill:#a6a8ab; stroke-width:0px;"/><ellipse cx="15.89" cy="6.28" rx=".72" ry=".79" style="fill:#fff100; isolation:isolate; opacity:.7; stroke-width:0px;"/><ellipse cx="15.89" cy="6.28" rx=".72" ry=".79" style="fill:#fff; stroke-width:0px;"/><ellipse cx="22.33" cy="11.21" rx=".72" ry=".79" style="fill:#a6a8ab; stroke-width:0px;"/><path d="m17.32,11.68c-.4,0-.72.32-.72.72s.32.72.72.72.72-.32.72-.72-.32-.72-.72-.72Z" style="fill:#fff; stroke-width:0px;"/><path d="m17.32,11.68c-.4,0-.72.32-.72.72s.32.72.72.72.72-.32.72-.72-.32-.72-.72-.72Z" style="fill:#a6a8ab; stroke-width:0px;"/><circle cx="18.6" cy="18.36" r=".79" style="fill:#a6a8ab; stroke-width:0px;"/><path d="m16.37,21.93c-.4,0-.72.32-.72.72h0c.4-.16.79-.32,1.19-.48-.08-.16-.32-.24-.48-.24Z" style="fill:#a6a8ab; stroke-width:0px;"/><path d="m15.66,22.65h0c.4-.16.79-.32,1.19-.48" style="fill:#929497; isolation:isolate; opacity:.26; stroke-width:0px;"/><circle cx="11.05" cy="21.85" r=".64" style="fill:#a6a8ab; stroke-width:0px;"/><circle cx="12.08" cy="16.13" r=".64" style="fill:#fff; stroke-width:0px;"/><circle cx="12.08" cy="16.13" r=".64" style="fill:#fff100; isolation:isolate; opacity:.7; stroke-width:0px;"/><circle cx="12.08" cy="16.13" r=".64" style="fill:#a6a8ab; stroke-width:0px;"/><circle cx="6.44" cy="18.75" r=".64" style="fill:#a6a8ab; stroke-width:0px;"/><circle cx="4.69" cy="13.27" r=".64" style="fill:#fff; stroke-width:0px;"/><circle cx="4.69" cy="13.27" r=".64" style="fill:#a6a8ab; stroke-width:0px;"/><path d="m2.07,5.88c0-.16-.08-.32-.16-.4-.24.32-.4.72-.64,1.03h.08c.48.08.72-.24.72-.64Z" style="fill:#a6a8ab; stroke-width:0px;"/><path d="m5.64,2.07v-.24c-.32.24-.72.48-1.03.72.08.08.24.16.4.16.32,0,.64-.32.64-.64Z" style="fill:#a6a8ab; stroke-width:0px;"/><path d="m27.42,14.22c0-2.38,1.59-4.05,3.97-4.05,1.91,0,3.02,1.03,3.58,2.54l-1.99.64c-.24-.87-.64-1.43-1.67-1.43-1.11,0-1.91.95-1.91,2.38v.08c0,1.35.64,2.38,1.83,2.38,1.11,0,1.59-.56,1.75-1.51l1.99.56c-.56,1.59-1.75,2.62-3.74,2.62-2.3-.08-3.81-1.75-3.81-4.21Z" style="fill:#fff; stroke-width:0px;"/><path d="m36.08,7.07h4.45c2.54,0,3.89,1.03,3.89,2.94,0,1.11-.64,1.83-1.67,2.23,1.27.4,2.07,1.27,2.07,2.62,0,2.15-1.43,3.18-4.29,3.18h-4.45V7.07Zm4.13,4.53c1.27,0,1.91-.48,1.91-1.35.08-.95-.4-1.35-1.59-1.35h-2.3v2.7h1.99Zm.16,4.85c1.43,0,2.15-.48,2.15-1.59.08-1.11-.72-1.59-2.07-1.59h-2.23v3.18h2.15Z" style="fill:#fff; stroke-width:0px;"/><path d="m46.01,7.15h2.15v1.99h-2.15v-1.99Zm.08,3.18h2.07v7.87h-2.07v-7.87Z" style="fill:#fff; stroke-width:0px;"/><path d="m49.27,14.22c0-2.38,1.67-4.13,4.05-4.13s4.05,1.67,4.05,4.13-1.67,4.05-4.05,4.05c-2.38.08-4.05-1.59-4.05-4.05Zm6.04.08h0c0-1.59-.72-2.46-1.91-2.46s-1.99.87-1.99,2.38v.08c0,1.43.72,2.3,1.91,2.3s1.99-.79,1.99-2.3Z" style="fill:#fff; stroke-width:0px;"/><path d="m58.65,7.07h3.74c3.1,0,4.61,1.19,4.61,3.58s-1.59,3.66-4.69,3.66h-1.51v3.89h-2.15V7.07h0Zm3.58,5.56c1.83,0,2.54-.56,2.54-1.91s-.72-1.91-2.54-1.91h-1.51v3.81s1.51,0,1.51,0Z" style="fill:#fff; stroke-width:0px;"/><path d="m67.23,14.22c0-2.38,1.67-4.13,4.05-4.13s4.05,1.67,4.05,4.13-1.67,4.05-4.05,4.05c-2.38.08-4.05-1.59-4.05-4.05Zm6.04.08h0c0-1.59-.72-2.46-1.91-2.46s-1.99.87-1.99,2.38v.08c0,1.43.72,2.3,1.91,2.3s1.99-.79,1.99-2.3Z" style="fill:#fff; stroke-width:0px;"/><path d="m76.53,10.33h2.07v1.43c.24-.87.79-1.51,2.23-1.51h.16v1.99h-.79c-1.27,0-1.59.56-1.59,1.91v4.05h-2.07v-7.87Z" style="fill:#fff; stroke-width:0px;"/><path d="m82.81,16.13v-4.13h-1.11v-1.67h1.11v-1.51l1.99-1.11v2.62h1.59v1.67h-1.59v3.89c0,.4.16.56.56.56h.95v1.75h-1.59c-1.51-.08-1.83-.79-1.91-2.07Z" style="fill:#fff; stroke-width:0px;"/><path d="m87.18,16.13c0-1.75,1.35-2.15,3.1-2.54,1.43-.32,2.23-.32,2.23-.79v-.08c0-.48-.4-.87-1.51-.87-1.03,0-1.59.56-1.59,1.27v.08h-2.07c.08-1.75,1.43-2.94,3.66-2.94s3.42.95,3.42,3.1v4.93h-1.99v-1.03c-.48.79-1.43,1.27-2.54,1.27-1.67-.16-2.7-1.03-2.7-2.38Zm5.32-1.19v-.64c-.48.24-1.19.4-1.83.56-.79.24-1.43.48-1.43,1.19,0,.56.4.87,1.11.87,1.03,0,2.07-.56,2.15-1.99Z" style="fill:#fff; stroke-width:0px;"/><path d="m95.92,6.91h2.07v11.21h-2.07V6.91Z" style="fill:#fff; stroke-width:0px;"/></svg>