<svg id="Layer_1" data-name="Layer 1" xmlns="http://www.w3.org/2000/svg" width="30" height="37.11" viewBox="0 0 30 37.11"><g id="Pdf"><path d="M26.85,36.92H3.16a3,3,0,0,1-3-3V3.16a3,3,0,0,1,3-3H15.21a3,3,0,0,1,2.09.87L28.94,12.71a2.93,2.93,0,0,1,.86,2.09V34A3,3,0,0,1,26.85,36.92ZM3.16,1.38A1.78,1.78,0,0,0,1.38,3.16V34a1.78,1.78,0,0,0,1.78,1.78H26.85A1.78,1.78,0,0,0,28.63,34V14.8a1.8,1.8,0,0,0-.52-1.26L16.46,1.9a1.77,1.77,0,0,0-1.25-.52Z" style="fill:#ef4738"/><path d="M26.85,37.11H3.16A3.16,3.16,0,0,1,0,34V3.16A3.17,3.17,0,0,1,3.16,0H15.21a3.15,3.15,0,0,1,2.23.92L29.08,12.56A3.12,3.12,0,0,1,30,14.79V34A3.15,3.15,0,0,1,26.85,37.11ZM3.16.4A2.76,2.76,0,0,0,.4,3.16V34a2.77,2.77,0,0,0,2.76,2.77H26.85A2.77,2.77,0,0,0,29.61,34V14.8a2.74,2.74,0,0,0-.81-2L17.16,1.21A2.74,2.74,0,0,0,15.21.4ZM26.85,35.93H3.16a2,2,0,0,1-2-2V3.16a2,2,0,0,1,2-2H15.21a2,2,0,0,1,1.39.57L28.25,13.4a2,2,0,0,1,.57,1.4V34A2,2,0,0,1,26.85,35.93ZM3.16,1.58A1.57,1.57,0,0,0,1.58,3.15V34a1.58,1.58,0,0,0,1.58,1.58H26.85A1.58,1.58,0,0,0,28.43,34V14.8A1.57,1.57,0,0,0,28,13.68L16.32,2a1.53,1.53,0,0,0-1.11-.46Z" style="fill:#ef4738"/><path d="M24.25,23.39a1,1,0,0,0-.28-.47,3.77,3.77,0,0,0-2.44-.57,20.17,20.17,0,0,0-2.94.21,7.3,7.3,0,0,1-1.36-.94,10,10,0,0,1-2.46-3.82c0-.14.07-.26.1-.38A25.26,25.26,0,0,0,15.3,13a1.24,1.24,0,0,0-.08-.32l-.05-.13a1.06,1.06,0,0,0-1-.74h-.3a1.09,1.09,0,0,0-1.11.7c-.36,1.31,0,3.28.68,5.83l-.17.41c-.47,1.17-1.08,2.34-1.6,3.37l-.07.14c-.56,1.08-1.06,2-1.52,2.79l-.47.25s-.85.45-1,.56c-1.61,1-2.68,2.05-2.85,2.92a.7.7,0,0,0,.27.79l.45.23a1.39,1.39,0,0,0,.63.15c1.14,0,2.47-1.43,4.31-4.62a43.09,43.09,0,0,1,6.63-1.58,11.54,11.54,0,0,0,4.84,1.54,1.82,1.82,0,0,0,.56-.07.94.94,0,0,0,.57-.38A2.19,2.19,0,0,0,24.25,23.39ZM6.86,29a8,8,0,0,1,2.26-2.7c.08-.06.27-.24.44-.41C8.28,28,7.42,28.76,6.86,29ZM14.1,12.34c.37,0,.58.93.6,1.8a3.77,3.77,0,0,1-.44,1.93A9.37,9.37,0,0,1,14,13.66S13.93,12.34,14.1,12.34ZM11.94,24.23c.26-.46.52-.95.8-1.46a28,28,0,0,0,1.39-3.05,10.23,10.23,0,0,0,2.31,2.86l.36.29A29,29,0,0,0,11.94,24.23Zm11.68-.11a1.65,1.65,0,0,1-.65.11,7.54,7.54,0,0,1-2.66-.81c.45,0,.86-.05,1.23-.05a4.68,4.68,0,0,1,1.53.17C23.72,23.71,23.73,24.05,23.62,24.12Z" style="fill:#ef4738"/><path d="M7.11,30.08a1.49,1.49,0,0,1-.71-.17l-.47-.23a.91.91,0,0,1-.36-1,3.17,3.17,0,0,1,.94-1.52,10.16,10.16,0,0,1,2-1.53l1-.56.42-.22c.46-.78,1-1.7,1.49-2.74l.07-.13c.52-1,1.12-2.2,1.59-3.36l.14-.35c-.66-2.54-1-4.52-.66-5.87h0a1.3,1.3,0,0,1,1.31-.84h.33a1.26,1.26,0,0,1,1.11.86h0l.05.14a1.62,1.62,0,0,1,.09.35,25.44,25.44,0,0,1-.43,4.53h0a2.62,2.62,0,0,1-.09.33,9.91,9.91,0,0,0,2.39,3.69,7.33,7.33,0,0,0,1.27.88,20.92,20.92,0,0,1,2.9-.21,3.93,3.93,0,0,1,2.58.64,1.15,1.15,0,0,1,.33.58,2.21,2.21,0,0,1-.26,1.52,1.2,1.2,0,0,1-.68.47,2.77,2.77,0,0,1-.62.06A11.63,11.63,0,0,1,18,23.9a42.56,42.56,0,0,0-6.46,1.53,19.35,19.35,0,0,1-2.41,3.49A3,3,0,0,1,7.11,30.08Zm-1-.75.46.23a1.25,1.25,0,0,0,.53.13c1,0,2.36-1.44,4.14-4.53l0-.06.08,0A43,43,0,0,1,18,23.49h.06l.06,0A11.25,11.25,0,0,0,22.89,25,1.83,1.83,0,0,0,23.4,25a.8.8,0,0,0,.46-.3,2,2,0,0,0,.19-1.25.77.77,0,0,0-.22-.35,3.94,3.94,0,0,0-2.31-.52h-.13a19.13,19.13,0,0,0-2.78.22h-.06l-.06,0a7.27,7.27,0,0,1-1.4-1,10.22,10.22,0,0,1-2.51-3.89l0-.06,0,0c0-.12.06-.24.09-.38A23.87,23.87,0,0,0,15.1,13,1.07,1.07,0,0,0,15,12.7l0-.13c-.23-.53-.56-.62-.74-.62H13.9a.89.89,0,0,0-.92.56c-.35,1.28,0,3.22.68,5.73l0,.06-.2.47c-.48,1.18-1.08,2.35-1.61,3.39h0l-.07.13c-.46.92-.91,1.74-1.32,2.45l.1-.09L9.72,26C8.6,27.79,7.66,28.86,6.93,29.2l-.42.19L6.66,29A8.17,8.17,0,0,1,9,26.16a5.24,5.24,0,0,0,.43-.4l.44-.41-.12.06-1,.55a9.83,9.83,0,0,0-1.93,1.47A2.92,2.92,0,0,0,6,28.75C5.94,28.82,5.88,29.19,6.12,29.33Zm2.34-2.15a9.26,9.26,0,0,0-1,1.14A9.75,9.75,0,0,0,8.46,27.18Zm3-2.58.27-.48c.27-.49.54-1,.79-1.45a26.88,26.88,0,0,0,1.39-3l.15-.39.21.37a10,10,0,0,0,2.26,2.81l.35.29.34.26-.42.09A29,29,0,0,0,12,24.41Zm2.67-4.43a26.79,26.79,0,0,1-1.26,2.69l-.53,1a29.49,29.49,0,0,1,4-1.09l0,0h0A9.76,9.76,0,0,1,14.17,20.17ZM23,24.43a7.66,7.66,0,0,1-2.74-.82l-.74-.32.8-.06c.47,0,.89-.05,1.25-.05h.06a4.83,4.83,0,0,1,1.52.17c.2,0,.69.22.75.59a.34.34,0,0,1-.14.35A1.94,1.94,0,0,1,23,24.43Zm-1.78-.85A5.22,5.22,0,0,0,23,24a1.9,1.9,0,0,0,.49-.06c0-.06-.14-.17-.44-.24a4.43,4.43,0,0,0-1.42-.16h-.41Zm-7-7-.14-.44a9.52,9.52,0,0,1-.32-2.47s0-.3,0-.61c0-.64.1-.77.17-.83a.23.23,0,0,1,.17-.08c.27,0,.48.25.62.72a5.14,5.14,0,0,1,.17,1.27,3.87,3.87,0,0,1-.46,2Zm0-4a7.52,7.52,0,0,0,0,1h0a10.59,10.59,0,0,0,.17,1.8,3.67,3.67,0,0,0,.19-1.32A4.86,4.86,0,0,0,14.34,13,1.11,1.11,0,0,0,14.19,12.62Z" style="fill:#ef4738"/></g><g id="Pdf-2" data-name="Pdf"><path d="M6.86,29a8,8,0,0,1,2.26-2.7c.08-.06.27-.24.44-.41C8.28,28,7.42,28.76,6.86,29ZM14.1,12.34c.37,0,.58.93.6,1.8a3.77,3.77,0,0,1-.44,1.93A9.37,9.37,0,0,1,14,13.66S13.93,12.34,14.1,12.34Zm9.52,11.78a1.65,1.65,0,0,1-.65.11,7.47,7.47,0,0,1-2.66-.8c.45,0,.86-.05,1.23-.05a4.67,4.67,0,0,1,1.53.16C23.72,23.71,23.73,24.05,23.62,24.12Z" style="fill:#fff"/><path d="M8.46,27.18a9.26,9.26,0,0,0-1,1.14A8.88,8.88,0,0,0,8.46,27.18Zm12.73-3.6A5.22,5.22,0,0,0,23,24a1.9,1.9,0,0,0,.49-.06c0-.06-.14-.17-.44-.24a4.43,4.43,0,0,0-1.42-.16h-.41Zm-7-11a6.32,6.32,0,0,0,0,1h0a10.71,10.71,0,0,0,.17,1.81,4,4,0,0,0,.19-1.32A5.61,5.61,0,0,0,14.35,13,2,2,0,0,0,14.2,12.62Z" style="fill:#fff"/></g></svg>