<?xml version="1.0" encoding="UTF-8"?><svg id="Layer_1" xmlns="http://www.w3.org/2000/svg" width="185" height="21.38" viewBox="0 0 185 21.38"><path d="m20.26,9.81v7.04c0,1.42-.71,2.45-1.98,3.09-.47.24-1.03.4-1.66.4H5.14v-1.27h11.47c1.19,0,2.06-.63,2.29-1.82v-7.12c0-.24.08-.32.32-.32.4.08.63,0,1.03,0Z" style="fill:#fff; stroke-width:0px;"/><path d="m15.03,0v1.27H3.64c-1.11,0-1.98.63-2.29,1.74v6.73H.08V3.48C.08,1.9,1.27.4,2.93.08c.24-.08.47-.08.71-.08h11.16s.08,0,.24,0Z" style="fill:#fff; stroke-width:0px;"/><path d="m10.44,5.22h4.59v4.59h-4.59v-4.59Z" style="fill:#fff; stroke-width:0px;"/><path d="m9.73,10.52v4.59h-4.59v-4.59h4.59Z" style="fill:#fff; stroke-width:0px;"/><path d="m15.67.08h4.59v4.51h-4.59c0-1.5,0-3.01,0-4.51Z" style="fill:#fff; stroke-width:0px;"/><path d="m4.59,15.83v4.51H0v-4.27c0-.16,0-.24.24-.24h4.19s.08,0,.16,0Z" style="fill:#fff; stroke-width:0px;"/><path d="m9.73,9.89h-4.59c-.16-2.22,1.82-4.75,4.59-4.67,0,1.58,0,3.09,0,4.67Z" style="fill:#fff; stroke-width:0px;"/><path d="m15.67,9.81v-4.67h4.35q.32,0,.32.32c-.08.95-.4,1.82-.95,2.53-.71.95-1.74,1.58-2.93,1.74-.32.08-.55.08-.79.08Z" style="fill:#fff; stroke-width:0px;"/><path d="m4.59,15.19H.16c-.08,0-.16-.08-.16-.16.08-2.22,1.58-3.96,3.72-4.43.32-.08.55-.08.87-.08v4.67Z" style="fill:#fff; stroke-width:0px;"/><path d="m10.44,10.52h4.59c0,2.53-2.06,4.67-4.59,4.59v-4.59Z" style="fill:#fff; stroke-width:0px;"/><path d="m25.87,6.41h4.43c2.53,0,3.88,1.03,3.88,2.93,0,1.11-.63,1.82-1.66,2.22,1.27.4,2.06,1.27,2.06,2.61,0,2.14-1.42,3.17-4.27,3.17h-4.43V6.41Zm4.11,4.51c1.27,0,1.9-.47,1.9-1.35.08-.95-.4-1.35-1.58-1.35h-2.29v2.69h1.98Zm.24,4.83c1.42,0,2.14-.47,2.14-1.58.08-1.11-.71-1.58-2.06-1.58h-2.22v3.17h2.14Z" style="fill:#fff; stroke-width:0px;"/><path d="m35.84,9.65h2.06v1.42c.24-.87.79-1.5,2.22-1.5h.16v1.98h-.79c-1.27,0-1.58.55-1.58,1.9v4.04h-2.06v-7.83Z" style="fill:#fff; stroke-width:0px;"/><path d="m40.43,13.53c0-2.37,1.66-4.11,4.04-4.11s4.04,1.66,4.04,4.11-1.66,4.04-4.04,4.04c-2.37.08-4.04-1.58-4.04-4.04Zm6.01.08h0c0-1.58-.71-2.45-1.9-2.45s-1.98.87-1.98,2.37v.08c0,1.42.71,2.29,1.9,2.29s1.98-.79,1.98-2.29Z" style="fill:#fff; stroke-width:0px;"/><path d="m49.14,15.43c0-1.74,1.35-2.14,3.09-2.53,1.42-.32,2.22-.32,2.22-.79v-.08c0-.47-.4-.87-1.5-.87s-1.58.55-1.58,1.27v.08h-2.06c.08-1.74,1.42-2.93,3.64-2.93s3.4.95,3.4,3.09v4.91h-1.98v-1.03c-.47.79-1.42,1.27-2.53,1.27-1.58-.16-2.69-1.03-2.69-2.37Zm5.3-1.19v-.63c-.47.24-1.19.4-1.82.55-.79.24-1.42.47-1.42,1.19,0,.55.4.87,1.11.87,1.03,0,2.14-.55,2.14-1.98Z" style="fill:#fff; stroke-width:0px;"/><path d="m57.45,13.61c0-2.53,1.5-4.11,3.48-4.11,1.03,0,1.82.47,2.37,1.19v-4.43h1.98v11.16h-1.98v-1.03c-.55.71-1.42,1.19-2.37,1.19-1.9.08-3.48-1.42-3.48-3.96Zm6.01,0v-.16c0-1.42-.71-2.29-1.9-2.29-1.11,0-1.9.87-1.9,2.37v.08c0,1.58.71,2.29,1.9,2.29,1.19.08,1.9-.95,1.9-2.29Z" style="fill:#fff; stroke-width:0px;"/><path d="m69.55,13.93h2.22c.24,1.42,1.03,1.98,2.61,1.98,1.35,0,2.06-.55,2.06-1.58,0-.95-1.27-1.19-2.77-1.5-1.82-.4-3.8-.95-3.8-3.17,0-1.98,1.74-3.4,4.11-3.4,2.61,0,4.27,1.35,4.51,3.72h-2.14c-.16-1.35-.95-1.98-2.37-1.98-1.27,0-1.98.63-1.98,1.5,0,1.03,1.35,1.19,2.93,1.5,1.82.32,3.72.95,3.72,3.17s-1.58,3.48-4.11,3.48c-3.01,0-4.59-1.42-4.98-3.72Z" style="fill:#fff; stroke-width:0px;"/><path d="m79.68,6.49h2.14v1.98h-2.14v-1.98Zm.08,3.17h2.06v7.83h-2.06v-7.83Z" style="fill:#fff; stroke-width:0px;"/><path d="m83.4,9.65h2.06v1.27c.4-.95,1.19-1.42,2.29-1.42,1.74,0,2.69,1.11,2.69,3.32v4.67h-2.06v-4.59c0-1.11-.4-1.66-1.35-1.66s-1.58.79-1.58,2.29v3.96h-2.06s0-7.83,0-7.83Z" style="fill:#fff; stroke-width:0px;"/><path d="m91.31,19.23c0-.71.55-1.35,1.35-1.74-.71-.16-1.27-.71-1.27-1.35,0-.71.55-1.19,1.42-1.42-.71-.55-1.11-1.35-1.11-2.22,0-1.74,1.42-3.01,3.4-3.01,1.27,0,2.22.55,2.85,1.35.32-.71.79-1.19,1.66-1.19v1.98c-.4-.16-.87-.16-1.19.16.08.24.08.4.08.63,0,1.82-1.35,3.01-3.4,3.01-.4,0-.79-.08-1.11-.16h-.08c-.4,0-.71.16-.71.4,0,.32.4.47.95.47h1.82c2.45,0,3.8.87,3.8,2.53s-1.58,2.69-4.35,2.69c-2.69.16-4.11-.71-4.11-2.14Zm6.65-.32c0-.71-.63-.95-2.14-.95h-1.58c-.71.08-1.27.47-1.27,1.03,0,.63.87,1.03,2.45,1.03,1.5,0,2.53-.4,2.53-1.11Zm-1.35-6.41v-.08c0-.79-.63-1.42-1.58-1.42-.87,0-1.5.63-1.5,1.42v.08c0,.87.63,1.42,1.5,1.42,1.03,0,1.58-.55,1.58-1.42Z" style="fill:#fff; stroke-width:0px;"/><path d="m100.49,6.25h2.06v11.16h-2.06V6.25Z" style="fill:#fff; stroke-width:0px;"/><path d="m103.73,13.61c0-2.45,1.66-4.11,3.96-4.11s3.8,1.58,3.8,4.04v.71h-5.7c.16,1.11.87,1.74,1.98,1.74,1.19,0,1.66-.55,1.9-1.19l1.82.63c-.55,1.27-1.66,2.22-3.72,2.22-2.45-.08-4.04-1.58-4.04-4.04Zm5.62-.79c-.08-1.19-.71-1.74-1.74-1.74s-1.74.63-1.9,1.74h3.64Z" style="fill:#fff; stroke-width:0px;"/><path d="m115.52,11.95c0-3.4,2.14-5.7,5.22-5.7,2.61,0,4.43,1.35,4.91,4.11h-2.22c-.32-1.58-1.35-2.22-2.77-2.22-1.9,0-3.01,1.42-3.01,3.72v.16c0,2.37,1.11,3.72,3.01,3.72,1.5,0,2.53-.63,2.77-2.37h2.22c-.4,2.93-2.37,4.27-5.06,4.27-2.93.08-5.06-2.29-5.06-5.7Z" style="fill:#fff; stroke-width:0px;"/><path d="m126.36,13.61c0-2.45,1.66-4.11,3.96-4.11s3.8,1.58,3.8,4.04v.71h-5.7c.16,1.11.87,1.74,1.98,1.74,1.19,0,1.66-.55,1.9-1.19l1.82.63c-.55,1.27-1.66,2.22-3.72,2.22-2.45-.08-4.04-1.58-4.04-4.04Zm5.7-.79c-.08-1.19-.71-1.74-1.74-1.74s-1.74.63-1.9,1.74h3.64Z" style="fill:#fff; stroke-width:0px;"/><path d="m135.23,6.25h2.06v11.16h-2.06V6.25Z" style="fill:#fff; stroke-width:0px;"/><path d="m138.87,6.25h2.06v11.16h-2.06V6.25Z" style="fill:#fff; stroke-width:0px;"/><path d="m145.83,6.41h3.72c3.09,0,4.59,1.19,4.59,3.56s-1.58,3.64-4.67,3.64h-1.5v3.88h-2.14V6.41h0Zm3.64,5.54c1.82,0,2.53-.55,2.53-1.9s-.71-1.9-2.53-1.9h-1.5v3.8s1.5,0,1.5,0Z" style="fill:#fff; stroke-width:0px;"/><path d="m154.45,13.53c0-2.37,1.66-4.11,4.04-4.11s4.04,1.66,4.04,4.11-1.66,4.04-4.04,4.04c-2.45.08-4.04-1.58-4.04-4.04Zm5.93.08h0c0-1.58-.71-2.45-1.9-2.45s-1.98.87-1.98,2.37v.08c0,1.42.71,2.29,1.9,2.29,1.27,0,1.98-.79,1.98-2.29Z" style="fill:#fff; stroke-width:0px;"/><path d="m163.63,9.65h2.06v1.42c.24-.87.79-1.5,2.22-1.5h.16v1.98h-.79c-1.27,0-1.58.55-1.58,1.9v4.04h-2.06v-7.83Z" style="fill:#fff; stroke-width:0px;"/><path d="m169.96,15.43v-4.11h-1.11v-1.66h1.11v-1.5l1.98-1.11v2.61h1.58v1.66h-1.58v3.88c0,.4.16.55.55.55h.95v1.74h-1.58c-1.58-.08-1.9-.79-1.9-2.06Z" style="fill:#fff; stroke-width:0px;"/><path d="m174.23,15.43c0-1.74,1.35-2.14,3.09-2.53,1.42-.32,2.22-.32,2.22-.79v-.08c0-.47-.4-.87-1.5-.87-1.03,0-1.58.55-1.58,1.27v.08h-2.06c.08-1.74,1.42-2.93,3.64-2.93s3.4.95,3.4,3.09v4.91h-1.9v-1.03c-.47.79-1.42,1.27-2.53,1.27-1.74-.16-2.77-1.03-2.77-2.37Zm5.3-1.19v-.63c-.47.24-1.19.4-1.82.55-.79.24-1.42.47-1.42,1.19,0,.55.4.87,1.11.87,1.03,0,2.06-.55,2.14-1.98Z" style="fill:#fff; stroke-width:0px;"/><path d="m182.94,6.25h2.06v11.16h-2.06V6.25Z" style="fill:#fff; stroke-width:0px;"/></svg>