<?xml version="1.0" encoding="UTF-8"?><svg id="Layer_1" xmlns="http://www.w3.org/2000/svg" width="100.93" height="20.19" viewBox="0 0 100.93 20.19"><polygon points="17.6 0 5.92 0 0 10.09 5.92 20.19 17.6 20.19 23.44 10.09 17.6 0" style="fill:#fff; stroke-width:0px;"/><path d="m28.86,5.51h2.34l3.09,9.09,2.92-9.09h2.25l-4.09,11.59h-2.42l-4.09-11.59Z" style="fill:#fff; stroke-width:0px;"/><path d="m40.04,5.59h2.25v2.09h-2.25v-2.09Zm.08,3.34h2.17v8.26h-2.17v-8.26Z" style="fill:#fff; stroke-width:0px;"/><path d="m43.54,13.1c0-2.59,1.75-4.34,4.17-4.34s4,1.67,4,4.25v.75h-6.01c.17,1.17.92,1.84,2.09,1.84,1.25,0,1.75-.58,2-1.25l1.92.67c-.58,1.33-1.75,2.34-3.92,2.34-2.67-.08-4.25-1.67-4.25-4.25Zm5.92-.83c-.08-1.17-.75-1.84-1.84-1.84s-1.84.67-2,1.84h3.84Z" style="fill:#fff; stroke-width:0px;"/><path d="m51.8,8.93h2.25l1.42,5.26,1.5-5.26h2l1.5,5.34,1.42-5.34h2.17l-2.59,8.26h-1.92l-1.58-5.67-1.58,5.67h-2l-2.59-8.26Z" style="fill:#fff; stroke-width:0px;"/><path d="m68.32,5.51h4.25c3.67,0,5.84,2,5.84,5.84s-2.17,5.76-6.01,5.76h-4.09V5.51Zm4.17,9.84c2.42,0,3.67-1.25,3.67-3.92v-.08c0-2.67-1.08-3.92-3.5-3.92h-2v7.92h1.84Z" style="fill:#fff; stroke-width:0px;"/><path d="m79.16,15.02c0-1.84,1.42-2.25,3.25-2.67,1.5-.33,2.25-.33,2.34-.83v-.08c0-.5-.42-.92-1.58-.92-1.08,0-1.67.58-1.67,1.33v.08h-2.17c.08-1.84,1.5-3.09,3.84-3.09s3.59,1,3.59,3.25v5.17h-2.09v-1.08c-.5.83-1.5,1.33-2.67,1.33-1.75-.17-2.84-1.08-2.84-2.5Zm5.51-1.25v-.67c-.5.25-1.25.42-1.92.58-.83.25-1.5.5-1.5,1.25,0,.58.42.92,1.17.92,1.08,0,2.25-.58,2.25-2.09Z" style="fill:#fff; stroke-width:0px;"/><path d="m88.84,15.02v-4.34h-1.17v-1.75h1.17v-1.58l2.09-1.17v2.75h1.67v1.75h-1.67v4.09c0,.42.17.58.58.58h1v1.84h-1.67c-1.67-.08-2-.83-2-2.17Z" style="fill:#fff; stroke-width:0px;"/><path d="m93.34,15.02c0-1.84,1.42-2.25,3.25-2.67,1.5-.33,2.34-.33,2.34-.83v-.08c0-.5-.42-.92-1.58-.92s-1.67.58-1.67,1.33v.08h-2.17c.08-1.84,1.5-3.09,3.84-3.09s3.59,1,3.59,3.25v5.17h-2.09v-1.08c-.5.83-1.5,1.33-2.67,1.33-1.75-.17-2.84-1.08-2.84-2.5Zm5.59-1.25v-.67c-.5.25-1.25.42-1.92.58-.83.25-1.5.5-1.5,1.25,0,.58.42.92,1.17.92,1.08,0,2.17-.58,2.25-2.09Z" style="fill:#fff; stroke-width:0px;"/></svg>