<?xml version="1.0" encoding="utf-8"?>
<!-- Generator: Adobe Illustrator 25.4.1, SVG Export Plug-In . SVG Version: 6.00 Build 0)  -->
<svg version="1.1" id="Layer_2_1_" xmlns="http://www.w3.org/2000/svg" xmlns:xlink="http://www.w3.org/1999/xlink" x="0px" y="0px"
	 width="216px" height="30px" viewBox="0 0 216 30" style="enable-background:new 0 0 216 30;" xml:space="preserve">
<style type="text/css">
	.st0{fill:#FFFFFF;}
	.st1{clip-path:url(#SVGID_00000016072031715801053240000017372381991352028839_);fill:#FFFFFF;}
	.st2{clip-path:url(#SVGID_00000070084284367240044070000015169729297652913837_);fill:#FFFFFF;}
	.st3{clip-path:url(#SVGID_00000000923508352897692370000015361944649451370920_);fill:#FFFFFF;}
	.st4{clip-path:url(#SVGID_00000081638917441296721860000010074076112677280170_);fill:#FFFFFF;}
	.st5{clip-path:url(#SVGID_00000029742562463516058700000011393923511133154748_);fill:#FFFFFF;}
	.st6{clip-path:url(#SVGID_00000062884438054835759880000006671266380722569859_);fill:#FFFFFF;}
	.st7{clip-path:url(#SVGID_00000176734420673606757880000013570012626844787588_);fill:#FFFFFF;}
	.st8{clip-path:url(#SVGID_00000058568993688624327830000013832707913892424383_);fill:#FFFFFF;}
	.st9{clip-path:url(#SVGID_00000090263180779276652890000008252184491748201637_);fill:#FFFFFF;}
	.st10{clip-path:url(#SVGID_00000002384629237503347150000007504431570246835387_);fill:#FFFFFF;}
	.st11{clip-path:url(#SVGID_00000000188205089163746740000004116209257870050223_);fill:#FFFFFF;}
	.st12{clip-path:url(#SVGID_00000146463127337593337400000018373142928641360547_);fill:#FFFFFF;}
	.st13{clip-path:url(#SVGID_00000065067806510975141450000012118318922344176039_);fill:#FFFFFF;}
	.st14{clip-path:url(#SVGID_00000062180674212416586900000006657577134323200675_);fill:#FFFFFF;}
	.st15{clip-path:url(#SVGID_00000045617295005154285030000015397010403347672970_);fill:#FFFFFF;}
	.st16{clip-path:url(#SVGID_00000072268689759623266890000013251595846324062868_);fill:#FFFFFF;}
	.st17{clip-path:url(#SVGID_00000045583887373171784200000008959048244499030187_);fill:#FFFFFF;}
	.st18{clip-path:url(#SVGID_00000070107151387135965230000004666947069195748497_);fill:#FFFFFF;}
	.st19{clip-path:url(#SVGID_00000162342089648688976570000016228437056434887553_);fill:#FFFFFF;}
	.st20{clip-path:url(#SVGID_00000007410679512023433200000000701186500500739252_);fill:#FFFFFF;}
	.st21{clip-path:url(#SVGID_00000044891187361150236210000011684684367394825361_);fill:#FFFFFF;}
	.st22{clip-path:url(#SVGID_00000129185409640913415270000004851186720557305756_);fill:#FFFFFF;}
	.st23{clip-path:url(#SVGID_00000111164522321321435740000013046341527883324072_);fill:#FFFFFF;}
	.st24{clip-path:url(#SVGID_00000150083809332236828040000003057571663086078355_);fill:#FFFFFF;}
	.st25{clip-path:url(#SVGID_00000072987298704816752480000003953381706338199466_);fill:#FFFFFF;}
	.st26{clip-path:url(#SVGID_00000093177777441638781580000016421954486747613843_);fill:#FFFFFF;}
	.st27{clip-path:url(#SVGID_00000096020249892309399970000010878235255749078663_);fill:#FFFFFF;}
	.st28{clip-path:url(#SVGID_00000132076665260193308790000009749525345060210093_);fill:#FFFFFF;}
	.st29{clip-path:url(#SVGID_00000010294460366390655190000016346235535398743187_);fill:#FFFFFF;}
	.st30{clip-path:url(#SVGID_00000093139931235383278260000012712238393047626112_);fill:#FFFFFF;}
</style>
<g>
	<g>
		<g>
			<path id="SVGID_1_" class="st0" d="M2.5,24.6h4.6c1.7,0,2.2,0.9,2.2,1.8c0,0.9-0.5,1.9-2.3,1.9H2.5V24.6z M2.5,20h4.4
				c1.4,0,1.9,0.6,1.9,1.6c0,0.9-0.6,1.6-1.8,1.6H2.5V20z M0.9,18.5v11.1h6.6c2.4,0,3.5-1.6,3.5-3.2c0-1.6-0.8-2.5-2.1-2.8v0
				c0.9-0.3,1.6-1,1.6-2.4c0-1.7-1.1-2.8-3.4-2.8L0.9,18.5L0.9,18.5z"/>
		</g>
		<g>
			<defs>
				<path id="SVGID_00000155860098918950464400000003060465633201935805_" d="M2.5,24.6h4.6c1.7,0,2.2,0.9,2.2,1.8
					c0,0.9-0.5,1.9-2.3,1.9H2.5V24.6z M2.5,20h4.4c1.4,0,1.9,0.6,1.9,1.6c0,0.9-0.6,1.6-1.8,1.6H2.5V20z M0.9,18.5v11.1h6.6
					c2.4,0,3.5-1.6,3.5-3.2c0-1.6-0.8-2.5-2.1-2.8v0c0.9-0.3,1.6-1,1.6-2.4c0-1.7-1.1-2.8-3.4-2.8L0.9,18.5L0.9,18.5z"/>
			</defs>
			<clipPath id="SVGID_00000008119844465820893050000005729936152883441077_">
				<use xlink:href="#SVGID_00000155860098918950464400000003060465633201935805_"  style="overflow:visible;"/>
			</clipPath>
			
				<rect x="0.9" y="18.5" style="clip-path:url(#SVGID_00000008119844465820893050000005729936152883441077_);fill:#FFFFFF;" width="10.1" height="11.1"/>
		</g>
	</g>
</g>
<g>
	<g>
		<g>
			<rect id="SVGID_3_" x="13.9" y="18.5" class="st0" width="1.7" height="11.1"/>
		</g>
		<g>
			<defs>
				<rect id="SVGID_00000128485652253878330180000016576302595892110481_" x="13.9" y="18.5" width="1.7" height="11.1"/>
			</defs>
			<clipPath id="SVGID_00000070833877070791705190000010911170468483943096_">
				<use xlink:href="#SVGID_00000128485652253878330180000016576302595892110481_"  style="overflow:visible;"/>
			</clipPath>
			
				<rect x="13.9" y="18.5" style="clip-path:url(#SVGID_00000070833877070791705190000010911170468483943096_);fill:#FFFFFF;" width="1.7" height="11.1"/>
		</g>
	</g>
</g>
<g>
	<g>
		<g>
			<path id="SVGID_5_" class="st0" d="M20.1,24.2c0-3,2-4.4,4.5-4.4c2.6,0,4.5,1.5,4.5,4.4s-2,4.4-4.5,4.4
				C22.1,28.5,20.1,27.1,20.1,24.2 M18.5,24.2c0,2.9,1.7,5.9,6.2,5.9s6.2-3,6.2-5.9s-1.7-5.9-6.2-5.9C20.2,18.3,18.5,21.3,18.5,24.2
				"/>
		</g>
		<g>
			<defs>
				<path id="SVGID_00000094606725095374534620000004089226235661479844_" d="M20.1,24.2c0-3,2-4.4,4.5-4.4c2.6,0,4.5,1.5,4.5,4.4
					s-2,4.4-4.5,4.4C22.1,28.5,20.1,27.1,20.1,24.2 M18.5,24.2c0,2.9,1.7,5.9,6.2,5.9s6.2-3,6.2-5.9s-1.7-5.9-6.2-5.9
					C20.2,18.3,18.5,21.3,18.5,24.2"/>
			</defs>
			<clipPath id="SVGID_00000021813739183133901110000003849557398081948843_">
				<use xlink:href="#SVGID_00000094606725095374534620000004089226235661479844_"  style="overflow:visible;"/>
			</clipPath>
			
				<rect x="18.5" y="18.3" style="clip-path:url(#SVGID_00000021813739183133901110000003849557398081948843_);fill:#FFFFFF;" width="12.3" height="11.7"/>
		</g>
	</g>
</g>
<g>
	<g>
		<g>
			<polygon id="SVGID_7_" class="st0" points="33.6,18.5 33.6,29.7 42,29.7 42,28.2 35.2,28.2 35.2,18.5 			"/>
		</g>
		<g>
			<defs>
				<polygon id="SVGID_00000025410764063476718160000002044803635435787147_" points="33.6,18.5 33.6,29.7 42,29.7 42,28.2 
					35.2,28.2 35.2,18.5 				"/>
			</defs>
			<clipPath id="SVGID_00000002386747580695975680000009771262025868530332_">
				<use xlink:href="#SVGID_00000025410764063476718160000002044803635435787147_"  style="overflow:visible;"/>
			</clipPath>
			
				<rect x="33.6" y="18.5" style="clip-path:url(#SVGID_00000002386747580695975680000009771262025868530332_);fill:#FFFFFF;" width="8.4" height="11.1"/>
		</g>
	</g>
</g>
<g>
	<g>
		<g>
			<path id="SVGID_9_" class="st0" d="M45.4,24.2c0-3,2-4.4,4.5-4.4c2.6,0,4.5,1.5,4.5,4.4s-2,4.4-4.5,4.4
				C47.3,28.5,45.4,27.1,45.4,24.2 M43.7,24.2c0,2.9,1.7,5.9,6.2,5.9s6.2-3,6.2-5.9s-1.7-5.9-6.2-5.9C45.4,18.3,43.7,21.3,43.7,24.2
				"/>
		</g>
		<g>
			<defs>
				<path id="SVGID_00000065782899640215387710000013387115760060425907_" d="M45.4,24.2c0-3,2-4.4,4.5-4.4c2.6,0,4.5,1.5,4.5,4.4
					s-2,4.4-4.5,4.4C47.3,28.5,45.4,27.1,45.4,24.2 M43.7,24.2c0,2.9,1.7,5.9,6.2,5.9s6.2-3,6.2-5.9s-1.7-5.9-6.2-5.9
					C45.4,18.3,43.7,21.3,43.7,24.2"/>
			</defs>
			<clipPath id="SVGID_00000077310156237472119970000011453594931858376326_">
				<use xlink:href="#SVGID_00000065782899640215387710000013387115760060425907_"  style="overflow:visible;"/>
			</clipPath>
			
				<rect x="43.7" y="18.3" style="clip-path:url(#SVGID_00000077310156237472119970000011453594931858376326_);fill:#FFFFFF;" width="12.3" height="11.7"/>
		</g>
	</g>
</g>
<g>
	<g>
		<g>
			<path id="SVGID_11_" class="st0" d="M58.4,24.3c0,2.5,1.4,5.7,5.9,5.7c2.4,0,3.5-1,4.3-1.9l0.3,1.6H70v-6h-5.1v1.4h3.6
				c-0.1,2-1.7,3.4-4.2,3.4c-2.3,0-4.3-1.2-4.3-4.4c0-2.4,1.3-4.5,4.2-4.5c2.1,0,3.2,0.8,3.8,2.4h1.7c-0.7-3.1-3.3-3.8-5.6-3.8
				C61.4,18.3,58.4,20,58.4,24.3"/>
		</g>
		<g>
			<defs>
				<path id="SVGID_00000084515974699912884600000006179284965826693508_" d="M58.4,24.3c0,2.5,1.4,5.7,5.9,5.7c2.4,0,3.5-1,4.3-1.9
					l0.3,1.6H70v-6h-5.1v1.4h3.6c-0.1,2-1.7,3.4-4.2,3.4c-2.3,0-4.3-1.2-4.3-4.4c0-2.4,1.3-4.5,4.2-4.5c2.1,0,3.2,0.8,3.8,2.4h1.7
					c-0.7-3.1-3.3-3.8-5.6-3.8C61.4,18.3,58.4,20,58.4,24.3"/>
			</defs>
			<clipPath id="SVGID_00000140707294325526344910000017706026288671139752_">
				<use xlink:href="#SVGID_00000084515974699912884600000006179284965826693508_"  style="overflow:visible;"/>
			</clipPath>
			
				<rect x="58.4" y="18.3" style="clip-path:url(#SVGID_00000140707294325526344910000017706026288671139752_);fill:#FFFFFF;" width="11.6" height="11.7"/>
		</g>
	</g>
</g>
<g>
	<g>
		<g>
			<polygon id="SVGID_13_" class="st0" points="81.4,18.5 77.7,23.6 74.1,18.5 72,18.5 76.9,25.1 76.9,29.7 78.5,29.7 78.5,25 
				83.4,18.5 			"/>
		</g>
		<g>
			<defs>
				<polygon id="SVGID_00000098180867015740611110000018407525288252797071_" points="81.4,18.5 77.7,23.6 74.1,18.5 72,18.5 
					76.9,25.1 76.9,29.7 78.5,29.7 78.5,25 83.4,18.5 				"/>
			</defs>
			<clipPath id="SVGID_00000170275771031638646160000004597525847351921594_">
				<use xlink:href="#SVGID_00000098180867015740611110000018407525288252797071_"  style="overflow:visible;"/>
			</clipPath>
			
				<rect x="72" y="18.5" style="clip-path:url(#SVGID_00000170275771031638646160000004597525847351921594_);fill:#FFFFFF;" width="11.4" height="11.1"/>
		</g>
	</g>
</g>
<g>
	<g>
		<g>
			<path id="SVGID_15_" class="st0" d="M90.9,24.1c0,4.3,3.1,5.9,5.9,5.9c3.2,0,5.3-2.1,5.6-4.5h-1.7c-0.5,2.2-2,3.1-3.9,3.1
				c-3.1,0-4.2-2.2-4.2-4.3c0-3.1,1.7-4.5,4.3-4.5c2.4,0,3.5,1.3,3.8,2.9h1.7c-0.3-3.3-3.3-4.3-5.6-4.3
				C92.9,18.3,90.9,20.9,90.9,24.1"/>
		</g>
		<g>
			<defs>
				<path id="SVGID_00000083066046716206507060000001595370961445288876_" d="M90.9,24.1c0,4.3,3.1,5.9,5.9,5.9
					c3.2,0,5.3-2.1,5.6-4.5h-1.7c-0.5,2.2-2,3.1-3.9,3.1c-3.1,0-4.2-2.2-4.2-4.3c0-3.1,1.7-4.5,4.3-4.5c2.4,0,3.5,1.3,3.8,2.9h1.7
					c-0.3-3.3-3.3-4.3-5.6-4.3C92.9,18.3,90.9,20.9,90.9,24.1"/>
			</defs>
			<clipPath id="SVGID_00000003101772628503003260000012716220556084850620_">
				<use xlink:href="#SVGID_00000083066046716206507060000001595370961445288876_"  style="overflow:visible;"/>
			</clipPath>
			
				<rect x="90.9" y="18.3" style="clip-path:url(#SVGID_00000003101772628503003260000012716220556084850620_);fill:#FFFFFF;" width="11.4" height="11.7"/>
		</g>
	</g>
</g>
<g>
	<g>
		<g>
			<path id="SVGID_17_" class="st0" d="M106.2,24.2c0-3,2-4.4,4.5-4.4c2.6,0,4.5,1.5,4.5,4.4s-2,4.4-4.5,4.4
				C108.1,28.5,106.2,27.1,106.2,24.2 M104.5,24.2c0,2.9,1.7,5.9,6.2,5.9c4.5,0,6.2-3,6.2-5.9s-1.7-5.9-6.2-5.9
				C106.2,18.3,104.5,21.3,104.5,24.2"/>
		</g>
		<g>
			<defs>
				<path id="SVGID_00000178163389493040311930000012425218684072002748_" d="M106.2,24.2c0-3,2-4.4,4.5-4.4c2.6,0,4.5,1.5,4.5,4.4
					s-2,4.4-4.5,4.4C108.1,28.5,106.2,27.1,106.2,24.2 M104.5,24.2c0,2.9,1.7,5.9,6.2,5.9c4.5,0,6.2-3,6.2-5.9s-1.7-5.9-6.2-5.9
					C106.2,18.3,104.5,21.3,104.5,24.2"/>
			</defs>
			<clipPath id="SVGID_00000092425030248833759870000017792825701675259291_">
				<use xlink:href="#SVGID_00000178163389493040311930000012425218684072002748_"  style="overflow:visible;"/>
			</clipPath>
			
				<rect x="104.5" y="18.3" style="clip-path:url(#SVGID_00000092425030248833759870000017792825701675259291_);fill:#FFFFFF;" width="12.3" height="11.7"/>
		</g>
	</g>
</g>
<g>
	<g>
		<g>
			<polygon id="SVGID_19_" class="st0" points="128.8,18.5 128.8,27.4 128.8,27.4 121.6,18.5 119.7,18.5 119.7,29.7 121.4,29.7 
				121.4,20.9 121.4,20.9 128.6,29.7 130.5,29.7 130.5,18.5 			"/>
		</g>
		<g>
			<defs>
				<polygon id="SVGID_00000120554839327075075600000001981039690866699927_" points="128.8,18.5 128.8,27.4 128.8,27.4 121.6,18.5 
					119.7,18.5 119.7,29.7 121.4,29.7 121.4,20.9 121.4,20.9 128.6,29.7 130.5,29.7 130.5,18.5 				"/>
			</defs>
			<clipPath id="SVGID_00000133516024926711665620000009390656002060663988_">
				<use xlink:href="#SVGID_00000120554839327075075600000001981039690866699927_"  style="overflow:visible;"/>
			</clipPath>
			
				<rect x="119.7" y="18.5" style="clip-path:url(#SVGID_00000133516024926711665620000009390656002060663988_);fill:#FFFFFF;" width="10.7" height="11.1"/>
		</g>
	</g>
</g>
<g>
	<g>
		<g>
			<path id="SVGID_21_" class="st0" d="M133.3,21.6c0,2.2,2,2.7,3.3,2.9l2.5,0.4c1.3,0.2,2.1,0.6,2.1,1.7c0,1.2-1.2,1.9-3,1.9
				c-1.7,0-3.5-0.5-3.6-2.5h-1.7c0,3.1,2.6,3.9,5.1,3.9c2.3,0,4.8-0.8,4.8-3.6c0-2.3-2.5-2.7-3.3-2.9l-2.7-0.4
				c-1.4-0.2-1.8-0.8-1.8-1.5c0-1.3,1.4-1.8,2.6-1.8c2.7,0,3.1,1.2,3.3,2.1h1.7c-0.1-2.7-2.5-3.5-4.7-3.5
				C134.9,18.3,133.3,19.6,133.3,21.6"/>
		</g>
		<g>
			<defs>
				<path id="SVGID_00000112618884392608978440000013845281055888198301_" d="M133.3,21.6c0,2.2,2,2.7,3.3,2.9l2.5,0.4
					c1.3,0.2,2.1,0.6,2.1,1.7c0,1.2-1.2,1.9-3,1.9c-1.7,0-3.5-0.5-3.6-2.5h-1.7c0,3.1,2.6,3.9,5.1,3.9c2.3,0,4.8-0.8,4.8-3.6
					c0-2.3-2.5-2.7-3.3-2.9l-2.7-0.4c-1.4-0.2-1.8-0.8-1.8-1.5c0-1.3,1.4-1.8,2.6-1.8c2.7,0,3.1,1.2,3.3,2.1h1.7
					c-0.1-2.7-2.5-3.5-4.7-3.5C134.9,18.3,133.3,19.6,133.3,21.6"/>
			</defs>
			<clipPath id="SVGID_00000060028185024438892810000014823713269516441763_">
				<use xlink:href="#SVGID_00000112618884392608978440000013845281055888198301_"  style="overflow:visible;"/>
			</clipPath>
			
				<rect x="132.9" y="18.3" style="clip-path:url(#SVGID_00000060028185024438892810000014823713269516441763_);fill:#FFFFFF;" width="9.9" height="11.7"/>
		</g>
	</g>
</g>
<g>
	<g>
		<g>
			<path id="SVGID_23_" class="st0" d="M146.2,24.2c0-3,2-4.4,4.5-4.4c2.6,0,4.5,1.5,4.5,4.4s-2,4.4-4.5,4.4
				C148.2,28.5,146.2,27.1,146.2,24.2 M144.6,24.2c0,2.9,1.7,5.9,6.2,5.9s6.2-3,6.2-5.9s-1.7-5.9-6.2-5.9
				C146.3,18.3,144.6,21.3,144.6,24.2"/>
		</g>
		<g>
			<defs>
				<path id="SVGID_00000149374377335391454340000007995143336151966625_" d="M146.2,24.2c0-3,2-4.4,4.5-4.4c2.6,0,4.5,1.5,4.5,4.4
					s-2,4.4-4.5,4.4C148.2,28.5,146.2,27.1,146.2,24.2 M144.6,24.2c0,2.9,1.7,5.9,6.2,5.9s6.2-3,6.2-5.9s-1.7-5.9-6.2-5.9
					C146.3,18.3,144.6,21.3,144.6,24.2"/>
			</defs>
			<clipPath id="SVGID_00000066502044744957997040000015568928873428073106_">
				<use xlink:href="#SVGID_00000149374377335391454340000007995143336151966625_"  style="overflow:visible;"/>
			</clipPath>
			
				<rect x="144.6" y="18.3" style="clip-path:url(#SVGID_00000066502044744957997040000015568928873428073106_);fill:#FFFFFF;" width="12.3" height="11.7"/>
		</g>
	</g>
</g>
<g>
	<g>
		<g>
			<path id="SVGID_25_" class="st0" d="M161.2,20h4.7c1.3,0,2,0.7,2,1.8c0,0.8-0.4,1.8-2,1.8h-4.6V20z M159.6,18.5v11.1h1.7v-4.7
				h4.3c1.4,0,2,0.6,2.2,2.6c0.1,1.3,0.1,1.8,0.3,2.1h1.7c-0.4-0.4-0.4-0.9-0.5-3c0-1.3-0.6-2.2-1.6-2.4v0c1.2-0.4,1.9-1.4,1.9-2.8
				c0-1.4-0.8-3-3.1-3C166.5,18.5,159.6,18.5,159.6,18.5z"/>
		</g>
		<g>
			<defs>
				<path id="SVGID_00000082358808594196313680000013915908488642332351_" d="M161.2,20h4.7c1.3,0,2,0.7,2,1.8c0,0.8-0.4,1.8-2,1.8
					h-4.6V20z M159.6,18.5v11.1h1.7v-4.7h4.3c1.4,0,2,0.6,2.2,2.6c0.1,1.3,0.1,1.8,0.3,2.1h1.7c-0.4-0.4-0.4-0.9-0.5-3
					c0-1.3-0.6-2.2-1.6-2.4v0c1.2-0.4,1.9-1.4,1.9-2.8c0-1.4-0.8-3-3.1-3C166.5,18.5,159.6,18.5,159.6,18.5z"/>
			</defs>
			<clipPath id="SVGID_00000106826265181530922290000005767649930458873765_">
				<use xlink:href="#SVGID_00000082358808594196313680000013915908488642332351_"  style="overflow:visible;"/>
			</clipPath>
			
				<rect x="159.6" y="18.5" style="clip-path:url(#SVGID_00000106826265181530922290000005767649930458873765_);fill:#FFFFFF;" width="10.2" height="11.1"/>
		</g>
	</g>
</g>
<g>
	<g>
		<g>
			<polygon id="SVGID_27_" class="st0" points="171,18.5 171,20 175.3,20 175.3,29.7 176.9,29.7 176.9,20 181.1,20 181.1,18.5 			
				"/>
		</g>
		<g>
			<defs>
				<polygon id="SVGID_00000087392364854720141370000012379862012766142111_" points="171,18.5 171,20 175.3,20 175.3,29.7 
					176.9,29.7 176.9,20 181.1,20 181.1,18.5 				"/>
			</defs>
			<clipPath id="SVGID_00000016787483898159191950000004788367029170856358_">
				<use xlink:href="#SVGID_00000087392364854720141370000012379862012766142111_"  style="overflow:visible;"/>
			</clipPath>
			
				<rect x="171" y="18.5" style="clip-path:url(#SVGID_00000016787483898159191950000004788367029170856358_);fill:#FFFFFF;" width="10.1" height="11.1"/>
		</g>
	</g>
</g>
<g>
	<g>
		<g>
			<rect id="SVGID_29_" x="183.3" y="18.5" class="st0" width="1.7" height="11.1"/>
		</g>
		<g>
			<defs>
				<rect id="SVGID_00000145039137563201469830000017050515693265116338_" x="183.3" y="18.5" width="1.7" height="11.1"/>
			</defs>
			<clipPath id="SVGID_00000114783870157812706160000013904135509591339666_">
				<use xlink:href="#SVGID_00000145039137563201469830000017050515693265116338_"  style="overflow:visible;"/>
			</clipPath>
			
				<rect x="183.3" y="18.5" style="clip-path:url(#SVGID_00000114783870157812706160000013904135509591339666_);fill:#FFFFFF;" width="1.7" height="11.1"/>
		</g>
	</g>
</g>
<g>
	<g>
		<g>
			<path id="SVGID_31_" class="st0" d="M196.9,18.5v7.1c0,2-1.3,2.9-3.4,2.9c-2,0-3.4-0.8-3.4-2.9v-7.1h-1.7v6.9c0,3,1.7,4.5,5,4.5
				c3.4,0,5-1.5,5-4.5v-6.9H196.9z"/>
		</g>
		<g>
			<defs>
				<path id="SVGID_00000045603791576465402020000007927468183242585240_" d="M196.9,18.5v7.1c0,2-1.3,2.9-3.4,2.9
					c-2,0-3.4-0.8-3.4-2.9v-7.1h-1.7v6.9c0,3,1.7,4.5,5,4.5c3.4,0,5-1.5,5-4.5v-6.9H196.9z"/>
			</defs>
			<clipPath id="SVGID_00000173144917530521125690000011615518641036229053_">
				<use xlink:href="#SVGID_00000045603791576465402020000007927468183242585240_"  style="overflow:visible;"/>
			</clipPath>
			
				<rect x="188.5" y="18.5" style="clip-path:url(#SVGID_00000173144917530521125690000011615518641036229053_);fill:#FFFFFF;" width="10.1" height="11.4"/>
		</g>
	</g>
</g>
<g>
	<g>
		<g>
			<polygon id="SVGID_33_" class="st0" points="213,18.5 208.5,27.8 204.1,18.5 201.8,18.5 201.8,29.7 203.5,29.7 203.5,20.7 
				203.5,20.7 207.8,29.7 209.3,29.7 213.6,20.5 213.6,20.5 213.6,29.7 215.3,29.7 215.3,18.5 			"/>
		</g>
		<g>
			<defs>
				<polygon id="SVGID_00000088814713127810674260000009024775614759997368_" points="213,18.5 208.5,27.8 204.1,18.5 201.8,18.5 
					201.8,29.7 203.5,29.7 203.5,20.7 203.5,20.7 207.8,29.7 209.3,29.7 213.6,20.5 213.6,20.5 213.6,29.7 215.3,29.7 215.3,18.5 
									"/>
			</defs>
			<clipPath id="SVGID_00000050659938483317581920000015191592337502032306_">
				<use xlink:href="#SVGID_00000088814713127810674260000009024775614759997368_"  style="overflow:visible;"/>
			</clipPath>
			
				<rect x="201.8" y="18.5" style="clip-path:url(#SVGID_00000050659938483317581920000015191592337502032306_);fill:#FFFFFF;" width="13.5" height="11.1"/>
		</g>
	</g>
</g>
<g>
	<g>
		<g>
			<path id="SVGID_35_" class="st0" d="M0,6.7c0,3.1,1.8,6.8,6.8,6.8c3.5,0,6.2-2.2,6.5-5.3l0-0.4h-2.5l0,0.3
				c-0.5,2.6-2.5,3.1-3.9,3.1c-3.9,0-4.3-3.3-4.3-4.3c0-3,1.5-4.6,4.4-4.6c2.1,0,3.5,1,3.8,2.8l0,0.3h2.5l0-0.3C13,1.3,9.7,0,6.8,0
				C2.7,0,0,2.7,0,6.7"/>
		</g>
		<g>
			<defs>
				<path id="SVGID_00000117668482538203503050000004993014144197104785_" d="M0,6.7c0,3.1,1.8,6.8,6.8,6.8c3.5,0,6.2-2.2,6.5-5.3
					l0-0.4h-2.5l0,0.3c-0.5,2.6-2.5,3.1-3.9,3.1c-3.9,0-4.3-3.3-4.3-4.3c0-3,1.5-4.6,4.4-4.6c2.1,0,3.5,1,3.8,2.8l0,0.3h2.5l0-0.3
					C13,1.3,9.7,0,6.8,0C2.7,0,0,2.7,0,6.7"/>
			</defs>
			<clipPath id="SVGID_00000108295409131371266220000000507929643848322971_">
				<use xlink:href="#SVGID_00000117668482538203503050000004993014144197104785_"  style="overflow:visible;"/>
			</clipPath>
			
				<rect style="clip-path:url(#SVGID_00000108295409131371266220000000507929643848322971_);fill:#FFFFFF;" width="13.3" height="13.6"/>
		</g>
	</g>
</g>
<g>
	<g>
		<g>
			<path id="SVGID_37_" class="st0" d="M23.6,3.3l1.8,4.1h-3.5L23.6,3.3z M22.4,0.3l-5.9,13h2.8l1.6-3.5h5.5l1.6,3.5h2.9l-5.9-13
				C24.9,0.3,22.4,0.3,22.4,0.3z"/>
		</g>
		<g>
			<defs>
				<path id="SVGID_00000021106879021920386820000011652421169138311047_" d="M23.6,3.3l1.8,4.1h-3.5L23.6,3.3z M22.4,0.3l-5.9,13
					h2.8l1.6-3.5h5.5l1.6,3.5h2.9l-5.9-13C24.9,0.3,22.4,0.3,22.4,0.3z"/>
			</defs>
			<clipPath id="SVGID_00000013173112645870270840000014370955059578848677_">
				<use xlink:href="#SVGID_00000021106879021920386820000011652421169138311047_"  style="overflow:visible;"/>
			</clipPath>
			
				<rect x="16.5" y="0.3" style="clip-path:url(#SVGID_00000013173112645870270840000014370955059578848677_);fill:#FFFFFF;" width="14.3" height="13"/>
		</g>
	</g>
</g>
<g>
	<g>
		<g>
			<polygon id="SVGID_39_" class="st0" points="44.2,0.3 44.2,9.4 36.9,0.3 34.2,0.3 34.2,13.3 36.8,13.3 36.8,4.2 44.1,13.3 
				46.8,13.3 46.8,0.3 			"/>
		</g>
		<g>
			<defs>
				<polygon id="SVGID_00000179611940161557296490000004037478536968765841_" points="44.2,0.3 44.2,9.4 36.9,0.3 34.2,0.3 
					34.2,13.3 36.8,13.3 36.8,4.2 44.1,13.3 46.8,13.3 46.8,0.3 				"/>
			</defs>
			<clipPath id="SVGID_00000119077964821928947010000011691199358606243470_">
				<use xlink:href="#SVGID_00000179611940161557296490000004037478536968765841_"  style="overflow:visible;"/>
			</clipPath>
			
				<rect x="34.2" y="0.3" style="clip-path:url(#SVGID_00000119077964821928947010000011691199358606243470_);fill:#FFFFFF;" width="12.5" height="13"/>
		</g>
	</g>
</g>
<g>
	<g>
		<g>
			<path id="SVGID_41_" class="st0" d="M51.2,6.7c0,3.1,1.8,6.8,6.8,6.8c3.5,0,6.2-2.2,6.5-5.3l0-0.4H62l0,0.3
				c-0.5,2.6-2.5,3.1-3.9,3.1c-3.9,0-4.3-3.3-4.3-4.3c0-3,1.6-4.6,4.4-4.6c2.1,0,3.5,1,3.8,2.8l0,0.3h2.5l0-0.4C64.2,1.3,61,0,58,0
				C53.9,0,51.2,2.7,51.2,6.7"/>
		</g>
		<g>
			<defs>
				<path id="SVGID_00000114047866054916603910000006208032710398539197_" d="M51.2,6.7c0,3.1,1.8,6.8,6.8,6.8
					c3.5,0,6.2-2.2,6.5-5.3l0-0.4H62l0,0.3c-0.5,2.6-2.5,3.1-3.9,3.1c-3.9,0-4.3-3.3-4.3-4.3c0-3,1.6-4.6,4.4-4.6
					c2.1,0,3.5,1,3.8,2.8l0,0.3h2.5l0-0.4C64.2,1.3,61,0,58,0C53.9,0,51.2,2.7,51.2,6.7"/>
			</defs>
			<clipPath id="SVGID_00000163036938840053333900000011936433491380998573_">
				<use xlink:href="#SVGID_00000114047866054916603910000006208032710398539197_"  style="overflow:visible;"/>
			</clipPath>
			
				<rect x="51.2" style="clip-path:url(#SVGID_00000163036938840053333900000011936433491380998573_);fill:#FFFFFF;" width="13.3" height="13.6"/>
		</g>
	</g>
</g>
<g>
	<g>
		<g>
			<polygon id="SVGID_43_" class="st0" points="69.1,0.3 69.1,13.3 79.9,13.3 79.9,11 71.7,11 71.7,7.8 79.5,7.8 79.5,5.4 71.7,5.4 
				71.7,2.6 79.7,2.6 79.7,0.3 			"/>
		</g>
		<g>
			<defs>
				<polygon id="SVGID_00000158737149699868674140000018398277482405424002_" points="69.1,0.3 69.1,13.3 79.9,13.3 79.9,11 
					71.7,11 71.7,7.8 79.5,7.8 79.5,5.4 71.7,5.4 71.7,2.6 79.7,2.6 79.7,0.3 				"/>
			</defs>
			<clipPath id="SVGID_00000020400615299620888910000001579359003509429431_">
				<use xlink:href="#SVGID_00000158737149699868674140000018398277482405424002_"  style="overflow:visible;"/>
			</clipPath>
			
				<rect x="69.1" y="0.3" style="clip-path:url(#SVGID_00000020400615299620888910000001579359003509429431_);fill:#FFFFFF;" width="10.8" height="13"/>
		</g>
	</g>
</g>
<g>
	<g>
		<g>
			<path id="SVGID_45_" class="st0" d="M87,2.6h4.8c1.2,0,1.8,0.5,1.8,1.6c0,0.7-0.3,1.6-1.8,1.6H87V2.6z M84.4,0.3v13H87V8.1h4.4
				c1.2,0,1.9,0.4,2,2.5V11c0,1.2,0.1,1.8,0.4,2.2l0.1,0.1h2.9l-0.5-0.6c-0.3-0.4-0.4-0.8-0.5-3.1c0-1.2-0.5-2.2-1.2-2.7
				c1-0.6,1.5-1.7,1.5-3c0-1.7-1-3.6-3.7-3.6L84.4,0.3L84.4,0.3z"/>
		</g>
		<g>
			<defs>
				<path id="SVGID_00000103972064757887788290000000239168752100296837_" d="M87,2.6h4.8c1.2,0,1.8,0.5,1.8,1.6
					c0,0.7-0.3,1.6-1.8,1.6H87V2.6z M84.4,0.3v13H87V8.1h4.4c1.2,0,1.9,0.4,2,2.5V11c0,1.2,0.1,1.8,0.4,2.2l0.1,0.1h2.9l-0.5-0.6
					c-0.3-0.4-0.4-0.8-0.5-3.1c0-1.2-0.5-2.2-1.2-2.7c1-0.6,1.5-1.7,1.5-3c0-1.7-1-3.6-3.7-3.6L84.4,0.3L84.4,0.3z"/>
			</defs>
			<clipPath id="SVGID_00000174582758645945251980000002279491810193695156_">
				<use xlink:href="#SVGID_00000103972064757887788290000000239168752100296837_"  style="overflow:visible;"/>
			</clipPath>
			
				<rect x="84.4" y="0.3" style="clip-path:url(#SVGID_00000174582758645945251980000002279491810193695156_);fill:#FFFFFF;" width="12.4" height="13"/>
		</g>
	</g>
</g>
<g>
	<g>
		<g>
			<path id="SVGID_47_" class="st0" d="M108.7,4.1c0,2.9,3,3.4,3.9,3.6l2.8,0.4c1.7,0.3,2,0.9,2,1.5c0,1.3-1.5,1.7-3,1.7
				c-1.6,0-3.5-0.4-3.6-2.4V8.6h-2.6V9c0,3,2.2,4.7,6,4.7c3.5,0,5.6-1.6,5.6-4.4c0-2.8-3-3.3-4-3.5l-3-0.5c-1.7-0.3-1.7-1-1.7-1.2
				c0-1.3,1.6-1.6,2.5-1.6c2.6,0,3.1,1,3.2,2l0,0.3h2.5V4.3c-0.1-2.7-2.2-4.2-5.6-4.2C110.8,0,108.7,1.6,108.7,4.1"/>
		</g>
		<g>
			<defs>
				<path id="SVGID_00000039124587354146519800000015194122879103286717_" d="M108.7,4.1c0,2.9,3,3.4,3.9,3.6l2.8,0.4
					c1.7,0.3,2,0.9,2,1.5c0,1.3-1.5,1.7-3,1.7c-1.6,0-3.5-0.4-3.6-2.4V8.6h-2.6V9c0,3,2.2,4.7,6,4.7c3.5,0,5.6-1.6,5.6-4.4
					c0-2.8-3-3.3-4-3.5l-3-0.5c-1.7-0.3-1.7-1-1.7-1.2c0-1.3,1.6-1.6,2.5-1.6c2.6,0,3.1,1,3.2,2l0,0.3h2.5V4.3
					c-0.1-2.7-2.2-4.2-5.6-4.2C110.8,0,108.7,1.6,108.7,4.1"/>
			</defs>
			<clipPath id="SVGID_00000170964594543154691910000003525106175217698733_">
				<use xlink:href="#SVGID_00000039124587354146519800000015194122879103286717_"  style="overflow:visible;"/>
			</clipPath>
			
				<rect x="108.4" style="clip-path:url(#SVGID_00000170964594543154691910000003525106175217698733_);fill:#FFFFFF;" width="11.6" height="13.6"/>
		</g>
	</g>
</g>
<g>
	<g>
		<g>
			<polygon id="SVGID_49_" class="st0" points="133.5,0.3 129.7,5.6 125.9,0.3 122.6,0.3 128.4,8 128.4,13.3 130.9,13.3 130.9,7.9 
				136.7,0.3 			"/>
		</g>
		<g>
			<defs>
				<polygon id="SVGID_00000064344213565773736500000013947631701642427816_" points="133.5,0.3 129.7,5.6 125.9,0.3 122.6,0.3 
					128.4,8 128.4,13.3 130.9,13.3 130.9,7.9 136.7,0.3 				"/>
			</defs>
			<clipPath id="SVGID_00000000910023878198217280000010880983794363408273_">
				<use xlink:href="#SVGID_00000064344213565773736500000013947631701642427816_"  style="overflow:visible;"/>
			</clipPath>
			
				<rect x="122.6" y="0.3" style="clip-path:url(#SVGID_00000000910023878198217280000010880983794363408273_);fill:#FFFFFF;" width="14.1" height="13"/>
		</g>
	</g>
</g>
<g>
	<g>
		<g>
			<path id="SVGID_51_" class="st0" d="M139.3,4.1c0,2.9,3,3.4,3.9,3.6l2.8,0.4c1.7,0.3,2,0.9,2,1.5c0,1.3-1.5,1.7-3,1.7
				c-1.6,0-3.5-0.4-3.6-2.4V8.6h-2.6V9c0,3,2.2,4.7,6,4.7c3.5,0,5.6-1.6,5.6-4.4c0-2.8-3-3.3-4-3.5l-3-0.5c-1.7-0.3-1.7-1-1.7-1.2
				c0-1.3,1.6-1.6,2.5-1.6c2.6,0,3.1,1,3.2,2l0,0.3h2.5V4.3c-0.1-2.7-2.2-4.2-5.6-4.2C141.3,0,139.3,1.6,139.3,4.1"/>
		</g>
		<g>
			<defs>
				<path id="SVGID_00000107575391510769378240000002511806165480053901_" d="M139.3,4.1c0,2.9,3,3.4,3.9,3.6l2.8,0.4
					c1.7,0.3,2,0.9,2,1.5c0,1.3-1.5,1.7-3,1.7c-1.6,0-3.5-0.4-3.6-2.4V8.6h-2.6V9c0,3,2.2,4.7,6,4.7c3.5,0,5.6-1.6,5.6-4.4
					c0-2.8-3-3.3-4-3.5l-3-0.5c-1.7-0.3-1.7-1-1.7-1.2c0-1.3,1.6-1.6,2.5-1.6c2.6,0,3.1,1,3.2,2l0,0.3h2.5V4.3
					c-0.1-2.7-2.2-4.2-5.6-4.2C141.3,0,139.3,1.6,139.3,4.1"/>
			</defs>
			<clipPath id="SVGID_00000139983314022436709280000009827844748086902201_">
				<use xlink:href="#SVGID_00000107575391510769378240000002511806165480053901_"  style="overflow:visible;"/>
			</clipPath>
			
				<rect x="138.9" style="clip-path:url(#SVGID_00000139983314022436709280000009827844748086902201_);fill:#FFFFFF;" width="11.6" height="13.6"/>
		</g>
	</g>
</g>
<g>
	<g>
		<g>
			<polygon id="SVGID_53_" class="st0" points="153.7,0.3 153.7,2.6 158.3,2.6 158.3,13.3 160.9,13.3 160.9,2.6 165.5,2.6 
				165.5,0.3 			"/>
		</g>
		<g>
			<defs>
				<polygon id="SVGID_00000104677055565019124350000014744924739759498116_" points="153.7,0.3 153.7,2.6 158.3,2.6 158.3,13.3 
					160.9,13.3 160.9,2.6 165.5,2.6 165.5,0.3 				"/>
			</defs>
			<clipPath id="SVGID_00000097470193035346457360000008985671331652841628_">
				<use xlink:href="#SVGID_00000104677055565019124350000014744924739759498116_"  style="overflow:visible;"/>
			</clipPath>
			
				<rect x="153.7" y="0.3" style="clip-path:url(#SVGID_00000097470193035346457360000008985671331652841628_);fill:#FFFFFF;" width="11.8" height="13"/>
		</g>
	</g>
</g>
<g>
	<g>
		<g>
			<polygon id="SVGID_55_" class="st0" points="169.2,0.3 169.2,13.3 179.9,13.3 179.9,11 171.7,11 171.7,7.8 179.5,7.8 179.5,5.4 
				171.7,5.4 171.7,2.6 179.7,2.6 179.7,0.3 			"/>
		</g>
		<g>
			<defs>
				<polygon id="SVGID_00000141422231700178937540000018356265597535317435_" points="169.2,0.3 169.2,13.3 179.9,13.3 179.9,11 
					171.7,11 171.7,7.8 179.5,7.8 179.5,5.4 171.7,5.4 171.7,2.6 179.7,2.6 179.7,0.3 				"/>
			</defs>
			<clipPath id="SVGID_00000038379375695405103240000011070454472374130853_">
				<use xlink:href="#SVGID_00000141422231700178937540000018356265597535317435_"  style="overflow:visible;"/>
			</clipPath>
			
				<rect x="169.2" y="0.3" style="clip-path:url(#SVGID_00000038379375695405103240000011070454472374130853_);fill:#FFFFFF;" width="10.8" height="13"/>
		</g>
	</g>
</g>
<g>
	<g>
		<g>
			<polygon id="SVGID_57_" class="st0" points="197.2,0.3 192.5,10 187.9,0.3 184.7,0.3 184.7,13.3 187.3,13.3 187.3,4.5 
				191.4,13.3 193.6,13.3 197.7,4.3 197.7,13.3 200.3,13.3 200.3,0.3 			"/>
		</g>
		<g>
			<defs>
				<polygon id="SVGID_00000026156322044367644130000000414307392236743865_" points="197.2,0.3 192.5,10 187.9,0.3 184.7,0.3 
					184.7,13.3 187.3,13.3 187.3,4.5 191.4,13.3 193.6,13.3 197.7,4.3 197.7,13.3 200.3,13.3 200.3,0.3 				"/>
			</defs>
			<clipPath id="SVGID_00000149343573309474487310000014317794664893832860_">
				<use xlink:href="#SVGID_00000026156322044367644130000000414307392236743865_"  style="overflow:visible;"/>
			</clipPath>
			
				<rect x="184.7" y="0.3" style="clip-path:url(#SVGID_00000149343573309474487310000014317794664893832860_);fill:#FFFFFF;" width="15.5" height="13"/>
		</g>
	</g>
</g>
<g>
	<g>
		<g>
			<path id="SVGID_59_" class="st0" d="M204.8,4.1c0,2.9,3,3.4,3.9,3.6l2.8,0.4c1.7,0.3,2,0.9,2,1.5c0,1.3-1.5,1.7-3,1.7
				c-1.6,0-3.5-0.4-3.6-2.4V8.6h-2.6V9c0,3,2.2,4.7,6,4.7c3.5,0,5.6-1.6,5.6-4.4c0-2.8-3-3.3-4-3.5l-3-0.5c-1.7-0.3-1.7-1-1.7-1.2
				c0-1.3,1.6-1.6,2.5-1.6c2.6,0,3.1,1,3.2,2l0,0.3h2.5V4.3c0-2.8-2.1-4.3-5.5-4.3C206.8,0,204.8,1.6,204.8,4.1"/>
		</g>
		<g>
			<defs>
				<path id="SVGID_00000083790721559533902520000015325341111343859589_" d="M204.8,4.1c0,2.9,3,3.4,3.9,3.6l2.8,0.4
					c1.7,0.3,2,0.9,2,1.5c0,1.3-1.5,1.7-3,1.7c-1.6,0-3.5-0.4-3.6-2.4V8.6h-2.6V9c0,3,2.2,4.7,6,4.7c3.5,0,5.6-1.6,5.6-4.4
					c0-2.8-3-3.3-4-3.5l-3-0.5c-1.7-0.3-1.7-1-1.7-1.2c0-1.3,1.6-1.6,2.5-1.6c2.6,0,3.1,1,3.2,2l0,0.3h2.5V4.3
					c0-2.8-2.1-4.3-5.5-4.3C206.8,0,204.8,1.6,204.8,4.1"/>
			</defs>
			<clipPath id="SVGID_00000073706041458813177890000013699565962180017331_">
				<use xlink:href="#SVGID_00000083790721559533902520000015325341111343859589_"  style="overflow:visible;"/>
			</clipPath>
			
				<rect x="204.4" style="clip-path:url(#SVGID_00000073706041458813177890000013699565962180017331_);fill:#FFFFFF;" width="11.6" height="13.6"/>
		</g>
	</g>
</g>
</svg>
