<svg id="Layer_1" data-name="Layer 1" xmlns="http://www.w3.org/2000/svg" width="255" height="53.76" viewBox="0 0 255 53.76"><path d="M42.35,8.15H44.3v13h7.77v1.64H42.35V8.15Z" style="fill:#fff"/><path d="M62.91,22.79a2.31,2.31,0,0,1-1.25.29c-.91,0-1.48-.49-1.48-1.64a4.72,4.72,0,0,1-3.74,1.64c-1.94,0-3.52-.86-3.52-3,0-2.41,1.79-2.92,3.6-3.27s3.58-.25,3.58-1.57c0-1.52-1.26-1.77-2.37-1.77-1.48,0-2.57.46-2.65,2H53.33c.1-2.63,2.14-3.56,4.51-3.56,1.91,0,4,.43,4,2.92v5.48c0,.82,0,1.19.56,1.19a1.47,1.47,0,0,0,.53-.1v1.35Zm-2.84-5.45c-.67.49-2,.52-3.16.72s-2.14.62-2.14,1.92c0,1.15,1,1.56,2,1.56,2.31,0,3.25-1.44,3.25-2.41V17.34Z" style="fill:#fff"/><path d="M64.32,8.15h1.75v5.49h0A3.57,3.57,0,0,1,69.5,12c3.27,0,4.9,2.6,4.9,5.6s-1.61,5.53-4.86,5.53a4.05,4.05,0,0,1-3.43-1.67h0v1.42H64.32Zm4.93,5.34c-2.34,0-3.24,2-3.24,4s.94,4,3.35,4,3.18-2,3.18-4.12S71.52,13.49,69.25,13.49Z" style="fill:#fff"/><path d="M81,12c3.37,0,5.16,2.45,5.16,5.57S84.41,23.08,81,23.08s-5.17-2.45-5.17-5.56S77.66,12,81,12Zm0,9.59c1.83,0,3.31-1.44,3.31-4s-1.48-4-3.31-4-3.31,1.44-3.31,4S79.21,21.54,81,21.54Z" style="fill:#fff"/><path d="M87.91,12.2h1.65v2.24h0A3.84,3.84,0,0,1,93.51,12v1.85c-2.82,0-3.85,1.6-3.85,4.29v4.73H87.91V12.2Z" style="fill:#fff"/><path d="M104,22.79a2.26,2.26,0,0,1-1.25.29c-.9,0-1.48-.49-1.48-1.64a4.72,4.72,0,0,1-3.74,1.64c-1.93,0-3.52-.86-3.52-3,0-2.41,1.79-2.92,3.6-3.27s3.58-.25,3.58-1.57c0-1.52-1.26-1.77-2.37-1.77-1.48,0-2.57.46-2.65,2H94.38c.11-2.63,2.14-3.56,4.51-3.56,1.91,0,4,.43,4,2.92v5.48c0,.82,0,1.19.55,1.19a1.56,1.56,0,0,0,.54-.1v1.35Zm-2.83-5.45c-.68.49-2,.52-3.17.72s-2.14.62-2.14,1.92c0,1.15,1,1.56,2.06,1.56,2.3,0,3.24-1.44,3.24-2.41V17.34Z" style="fill:#fff"/><path d="M108,12.2h2.12v1.54H108v6.6c0,.8.23.95,1.32.95h.8v1.54h-1.34c-1.81,0-2.53-.37-2.53-2.32V13.74h-1.81V12.2h1.81V9H108V12.2Z" style="fill:#fff"/><path d="M116.1,12c3.37,0,5.16,2.45,5.16,5.57s-1.79,5.56-5.16,5.56-5.17-2.45-5.17-5.56S112.72,12,116.1,12Zm0,9.59c1.83,0,3.31-1.44,3.31-4s-1.48-4-3.31-4-3.31,1.44-3.31,4S114.26,21.54,116.1,21.54Z" style="fill:#fff"/><path d="M122.69,12.2h1.65v2.24h0A3.84,3.84,0,0,1,128.29,12v1.85c-2.82,0-3.85,1.6-3.85,4.29v4.73h-1.75V12.2Z" style="fill:#fff"/><path d="M134.06,24.25c-.8,2.08-1.52,2.84-3.09,2.84a3.33,3.33,0,0,1-1.21-.19V25.3a3.68,3.68,0,0,0,1,.24,1.51,1.51,0,0,0,1.44-1l.72-1.81L128.73,12.2h2l3.11,8.69h0l3-8.69h1.85Z" style="fill:#fff"/><path d="M150.47,12c3.37,0,5.16,2.45,5.16,5.57s-1.79,5.56-5.16,5.56-5.17-2.45-5.17-5.56S147.09,12,150.47,12Zm0,9.59c1.83,0,3.31-1.44,3.31-4s-1.48-4-3.31-4-3.31,1.44-3.31,4S148.64,21.54,150.47,21.54Z" style="fill:#fff"/><path d="M158.4,13.74h-1.79V12.2h1.79V10.62c0-1.73,1-2.63,2.94-2.63a4.4,4.4,0,0,1,1.13.16V9.67a3.27,3.27,0,0,0-1-.14c-.85,0-1.34.26-1.34,1.19V12.2h2.06v1.54h-2.06v9.09h-1.74V13.74Z" style="fill:#fff"/><path d="M50.84,34c-.23-2.1-1.63-3-3.64-3-1.65,0-3.29.59-3.29,2.51s2.34,2.08,4.71,2.61,4.69,1.36,4.69,4.24c0,3.12-3.07,4.38-5.74,4.38-3.29,0-6.07-1.61-6.07-5.19h1.85c0,2.47,2.06,3.54,4.28,3.54,1.77,0,3.72-.55,3.72-2.67S49,38.05,46.66,37.53,42,36.34,42,33.64c0-3,2.66-4.29,5.33-4.29,3,0,5.28,1.42,5.41,4.65Z" style="fill:#fff"/><path d="M59.28,45.79c-.8,2.08-1.52,2.84-3.08,2.84A3.61,3.61,0,0,1,55,48.45V46.84a3.69,3.69,0,0,0,1,.25,1.51,1.51,0,0,0,1.44-1l.72-1.81L54,33.74h2l3.1,8.7h0l3-8.7h1.85Z" style="fill:#fff"/><path d="M66.18,41c.06,1.57,1.42,2.06,2.86,2.06,1.09,0,2.57-.25,2.57-1.59s-1.73-1.58-3.48-2-3.47-1-3.47-3,2.12-3,4-3c2.34,0,4.22.74,4.36,3.34H71.24C71.12,35.47,69.92,35,68.77,35s-2.26.28-2.26,1.36c0,1.25,1.85,1.46,3.48,1.85s3.47,1,3.47,3c0,2.53-2.36,3.35-4.52,3.35-2.39,0-4.4-1-4.51-3.6Z" style="fill:#fff"/><path d="M77.82,33.74h2.12v1.54H77.82v6.6c0,.81.22.95,1.31.95h.81v1.54H78.6c-1.81,0-2.53-.37-2.53-2.32V35.28H74.26V33.74h1.81V30.55h1.75v3.19Z" style="fill:#fff"/><path d="M90.66,41a4.28,4.28,0,0,1-4.55,3.62c-3.39,0-5-2.34-5.09-5.59s2.09-5.54,5-5.54c3.76,0,4.92,3.52,4.81,6.09H82.87a3.13,3.13,0,0,0,3.31,3.5A2.56,2.56,0,0,0,88.93,41ZM89,38a3.05,3.05,0,0,0-6.1,0Z" style="fill:#fff"/><path d="M92.63,33.74h1.65v1.57h0a3.92,3.92,0,0,1,3.44-1.82,2.82,2.82,0,0,1,2.92,1.82A3.92,3.92,0,0,1,104,33.49c2.12,0,3.54.89,3.54,3.09v7.79H105.8v-7c0-1.31-.35-2.36-2-2.36A2.58,2.58,0,0,0,101,37.75v6.63H99.22v-7c0-1.38-.43-2.37-2-2.37a2.87,2.87,0,0,0-2.84,2.72v6.62H92.65l0-10.64Z" style="fill:#fff"/><path d="M111,41c.06,1.57,1.41,2.06,2.86,2.06,1.09,0,2.57-.25,2.57-1.59s-1.73-1.58-3.48-2-3.47-1-3.47-3,2.11-3,4-3c2.34,0,4.21.74,4.36,3.34H116c-.12-1.36-1.32-1.79-2.47-1.79s-2.26.28-2.26,1.36c0,1.25,1.85,1.46,3.47,1.85s3.48,1,3.48,3c0,2.53-2.37,3.35-4.52,3.35-2.39,0-4.41-1-4.51-3.6Z" style="fill:#fff"/><path d="M126.18,29.69h6.44c2.92,0,4.5,1.63,4.5,4.34s-1.58,4.36-4.5,4.34h-4.49v6h-1.95V29.69Zm1.95,7H132c2.2,0,3.21-.94,3.21-2.69s-1-2.69-3.21-2.69h-3.83Z" style="fill:#fff"/><path d="M138.94,29.69h1.75v5.62h0a3.6,3.6,0,0,1,3.35-1.82c2.8,0,3.66,1.61,3.66,3.89v7H146v-7.2A2,2,0,0,0,143.84,35c-2.12,0-3.15,1.42-3.15,3.34v6h-1.75V29.69Z" style="fill:#fff"/><path d="M159.24,44.33a2.32,2.32,0,0,1-1.26.29c-.9,0-1.48-.49-1.48-1.64a4.7,4.7,0,0,1-3.74,1.64c-1.94,0-3.52-.86-3.52-3,0-2.41,1.79-2.92,3.6-3.27s3.58-.25,3.58-1.57c0-1.52-1.26-1.76-2.37-1.76-1.48,0-2.57.45-2.65,2h-1.75c.11-2.63,2.14-3.56,4.51-3.56,1.91,0,4,.43,4,2.92v5.47c0,.82,0,1.19.55,1.19a1.35,1.35,0,0,0,.54-.1v1.36Zm-2.84-5.45c-.68.5-2,.52-3.17.72s-2.14.62-2.14,1.92c0,1.15,1,1.56,2.06,1.56,2.3,0,3.25-1.44,3.25-2.41V38.88Z" style="fill:#fff"/><path d="M160.8,33.74h1.64V36h0a3.87,3.87,0,0,1,3.91-2.48v1.85c-2.82,0-3.85,1.6-3.85,4.29v4.73H160.8V33.74Z" style="fill:#fff"/><path d="M167.71,33.74h1.64v1.57h0a3.92,3.92,0,0,1,3.44-1.82,2.82,2.82,0,0,1,2.92,1.82,3.92,3.92,0,0,1,3.33-1.82c2.12,0,3.54.89,3.54,3.09v7.79h-1.75v-7c0-1.31-.35-2.36-2.05-2.36A2.58,2.58,0,0,0,176,37.75v6.63h-1.75v-7c0-1.38-.43-2.37-2-2.37a2.87,2.87,0,0,0-2.84,2.72v6.62h-1.74V33.74Z" style="fill:#fff"/><path d="M194.39,44.33a2.32,2.32,0,0,1-1.26.29c-.9,0-1.48-.49-1.48-1.64a4.7,4.7,0,0,1-3.74,1.64c-1.93,0-3.52-.86-3.52-3,0-2.41,1.79-2.92,3.6-3.27s3.58-.25,3.58-1.57c0-1.52-1.25-1.76-2.36-1.76-1.48,0-2.57.45-2.66,2h-1.74c.1-2.63,2.14-3.56,4.5-3.56,1.91,0,4,.43,4,2.92v5.47c0,.82,0,1.19.56,1.19a1.34,1.34,0,0,0,.53-.1v1.36Zm-2.84-5.45c-.68.5-2,.52-3.17.72s-2.14.62-2.14,1.92c0,1.15,1,1.56,2.06,1.56,2.3,0,3.25-1.44,3.25-2.41V38.88Z" style="fill:#fff"/><path d="M203,37.16A2.47,2.47,0,0,0,200.32,35c-2.53,0-3.31,2-3.31,4.15,0,2,.89,3.89,3.11,3.89a2.76,2.76,0,0,0,2.92-2.6h1.79a4.42,4.42,0,0,1-4.69,4.14c-3.25,0-5-2.26-5-5.43s1.65-5.7,5-5.7c2.41,0,4.34,1.13,4.59,3.66H203Z" style="fill:#fff"/><path d="M211.36,33.49c3.37,0,5.17,2.45,5.17,5.58s-1.79,5.55-5.17,5.55-5.16-2.45-5.16-5.55S208,33.49,211.36,33.49Zm0,9.59c1.83,0,3.31-1.44,3.31-4s-1.48-4-3.31-4-3.31,1.43-3.31,4S209.53,43.08,211.36,43.08Z" style="fill:#fff"/><path d="M218.41,29.69h1.74V44.38h-1.74Z" style="fill:#fff"/><path d="M227.17,33.49c3.38,0,5.17,2.45,5.17,5.58s-1.79,5.55-5.17,5.55S222,42.17,222,39.07,223.8,33.49,227.17,33.49Zm0,9.59c1.83,0,3.31-1.44,3.31-4s-1.48-4-3.31-4-3.31,1.43-3.31,4S225.34,43.08,227.17,43.08Z" style="fill:#fff"/><path d="M243.56,43.47c0,3.45-1.58,5.22-4.93,5.22-2,0-4.3-.8-4.4-3.12H236c.08,1.27,1.6,1.72,2.75,1.72,2.29,0,3.19-1.64,3.19-4v-.69h0a3.56,3.56,0,0,1-3.31,1.93c-3.17,0-4.75-2.49-4.75-5.39,0-2.51,1.23-5.61,4.91-5.61a3.46,3.46,0,0,1,3.17,1.77h0V33.74h1.64v9.73Zm-1.72-4.63c0-1.87-.83-3.8-3-3.8s-3.14,1.83-3.14,3.86.7,4.05,3,4.05S241.84,40.84,241.84,38.84Z" style="fill:#fff"/><path d="M250.37,45.79c-.8,2.08-1.52,2.84-3.08,2.84a3.57,3.57,0,0,1-1.22-.18V46.84a3.69,3.69,0,0,0,1,.25,1.51,1.51,0,0,0,1.44-1l.72-1.81-4.21-10.57h2l3.11,8.7h0l3-8.7H255Z" style="fill:#fff"/><path d="M16.84,14.06C10.63,17.4,1.28,20.13.18,26.88c-1.1-6.75,3.07-10.55,9.58-14.06S25.32,6.75,26.42,0c1.09,6.75-2.87,10.45-9.58,14.06" style="fill:#fff"/><path d="M16.84,39.71c6.51,3.5,10.68,7.3,9.58,14C25.33,47,16,44.28,9.77,40.94,3.06,37.33-.92,33.63.18,26.88c1.1,6.75,10.3,9.41,16.66,12.83" style="fill:#fff"/><path d="M30.4,25.73a5.33,5.33,0,1,1-5.32-5.32A5.32,5.32,0,0,1,30.4,25.73Z" style="fill:#d1d3d4;opacity:0.8999999761581421;isolation:isolate"/><path d="M25.11,29.73a7.34,7.34,0,1,1-7.35-7.33A7.34,7.34,0,0,1,25.11,29.73Z" style="fill:#fff;opacity:0.550000011920929;isolation:isolate"/><path d="M21.68,22.65a5.77,5.77,0,1,1-5.77-5.77A5.77,5.77,0,0,1,21.68,22.65Z" style="fill:#e6e7e8;opacity:0.7400000095367432;isolation:isolate"/></svg>