<?xml version="1.0" encoding="UTF-8"?><svg id="Layer_1" xmlns="http://www.w3.org/2000/svg" width="348" height="51.1" viewBox="0 0 348 51.1"><polygon points="34.5 0 34.4 23.1 14.3 23.1 14.3 31.5 34.4 31.5 34.4 50.5 50.8 50.5 50.9 0 34.5 0" style="fill:#fff; stroke-width:0px;"/><polygon points="141.2 31.5 123 31.5 137 0 120.6 0 98.1 50.5 114.6 50.5 119.3 39.8 141.2 39.8 141.2 31.5" style="fill:#fff; stroke-width:0px;"/><polygon points="157.6 50.5 137 0 120.6 0 141.2 50.5 157.6 50.5" style="fill:#fff; stroke-width:0px;"/><rect width="16.4" height="50.5" style="fill:#fff; stroke-width:0px;"/><polygon points="89.1 50.5 89.2 6.1 72.7 6.1 72.6 50.5 89.1 50.5" style="fill:#fff; stroke-width:0px;"/><rect x="57.6" width="46.5" height="12.2" style="fill:#fff; stroke-width:0px;"/><path d="M171.1,12.5v10.1h-4.7V0h4.7v8.6h8.8V0h4.7v22.6h-4.7v-10.1h-8.8Z" style="fill:#fff; stroke-width:0px;"/><path d="M202.3,19.3c0,2,.5,2.4,1,2.6v.6h-4.7c-.2-.8-.3-1.1-.4-2-1,1.1-2.4,2.4-5.4,2.4-2.5,0-5.1-1.4-5.1-4.9,0-3.3,2.1-4.9,4.9-5.3l4-.6c.7-.1,1.5-.4,1.5-1.3,0-1.8-1.7-1.9-2.9-1.9-2.2,0-2.6,1.3-2.7,2.3h-4.2c.5-5.1,4.1-5.8,7.5-5.8,2.3,0,6.7.7,6.7,4.8l-.2,9.1h0ZM198,14.5c-.5.4-1.2.6-3,.9-1.7.3-3,.7-3,2.5,0,1.5,1.2,2,2,2,1.9,0,3.9-1.2,3.9-3.3l.1-2.1h0Z" style="fill:#fff; stroke-width:0px;"/><path d="M206.1,5.8h4.2v2.9h0c.9-1.7,1.9-3.3,4.6-3.3h.8v4.5h-1.2c-3.4,0-4.1,2.1-4.1,4v8.7h-4.4l.1-16.8h0Z" style="fill:#fff; stroke-width:0px;"/><path d="M228.1,22.6h-4.6l-6-16.7h4.9l3.5,12.3h0l3.5-12.3h4.7l-6,16.7Z" style="fill:#fff; stroke-width:0px;"/><path d="M250,19.3c0,2,.5,2.4,1,2.6v.6h-4.7c-.2-.8-.3-1.1-.4-2-1,1.1-2.4,2.4-5.4,2.4-2.5,0-5.1-1.4-5.1-4.9,0-3.3,2.1-4.9,4.9-5.3l4-.6c.7-.1,1.5-.4,1.5-1.3,0-1.8-1.7-1.9-2.9-1.9-2.2,0-2.6,1.3-2.7,2.3h-4.2c.5-5.1,4.1-5.8,7.5-5.8,2.3,0,6.7.7,6.7,4.8l-.2,9.1h0ZM245.7,14.5c-.5.4-1.2.6-3,.9-1.7.3-3,.7-3,2.5,0,1.5,1.2,2,2,2,1.9,0,3.9-1.2,3.9-3.3l.1-2.1h0Z" style="fill:#fff; stroke-width:0px;"/><path d="M253.7,5.8h4.2v2.9h0c.9-1.7,1.9-3.3,4.6-3.3h.8v4.5h-1.2c-3.4,0-4.1,2.1-4.1,4v8.7h-4.4l.1-16.8h0Z" style="fill:#fff; stroke-width:0px;"/><path d="M281.1,22.6h-4.3v-2.1h0c-1.1,1.9-3,2.5-4.8,2.5-5,0-7-4.4-7-9,0-5.8,3.3-8.6,7-8.6,2.8,0,4.1,1.5,4.8,2.6h0V0h4.4l-.1,22.6h0ZM273,19.4c2.8,0,3.9-2.3,3.9-4.8,0-2.7-.7-5.4-3.8-5.4-2.8,0-3.7,2.5-3.7,5.1,0,2,.8,5.1,3.6,5.1Z" style="fill:#fff; stroke-width:0px;"/><path d="M178,50.5h-4.7v-18.5h-6.8v-4h18.4v4h-6.9v18.5h0Z" style="fill:#fff; stroke-width:0px;"/><path d="M191.5,31.9h-4.4v-4.1h4.4v4.1ZM191.5,33.8v16.7h-4.4v-16.7h4.4Z" style="fill:#fff; stroke-width:0px;"/><path d="M205,38.9c-.2-1.1-.6-2.2-2.9-2.2s-2.7.9-2.7,1.7c0,2.6,10.4.7,10.4,6.9,0,4.9-4.7,5.8-7.3,5.8-3.8,0-7.9-1.3-8.1-5.8h4.5c0,1.4.9,2.4,3.6,2.4,2.3,0,2.8-1.1,2.8-1.7,0-2.8-10.4-.7-10.4-7,0-2.4,1.5-5.6,6.8-5.6,3.3,0,7.2.8,7.5,5.5h-4.2Z" style="fill:#fff; stroke-width:0px;"/><path d="M222.4,38.9c-.2-1.1-.6-2.2-2.9-2.2s-2.7.9-2.7,1.7c0,2.6,10.4.7,10.4,6.9,0,4.9-4.7,5.8-7.3,5.8-3.8,0-7.9-1.3-8.1-5.8h4.5c0,1.4.9,2.4,3.6,2.4,2.3,0,2.8-1.1,2.8-1.7,0-2.8-10.4-.7-10.4-7,0-2.4,1.5-5.6,6.8-5.6,3.3,0,7.2.8,7.5,5.5h-4.2Z" style="fill:#fff; stroke-width:0px;"/><path d="M244.8,50.5h-4.2v-2.3h0c-1,1.8-2.8,2.8-5.1,2.8-3.3,0-5.7-1.9-5.7-6.2v-11h4.4v10.4c0,2.6,1.5,3.1,2.9,3.1s3.4-.8,3.4-3.8v-9.7h4.4l-.1,16.7h0Z" style="fill:#fff; stroke-width:0px;"/><path d="M263.2,45.6c-1.2,4-4.5,5.3-7.4,5.3-4.7,0-8.3-2.3-8.3-9.2,0-2,.7-8.5,8-8.5,3.3,0,7.9,1.6,7.9,9.2v.8h-11.5c.1,1.2.4,4.1,3.9,4.1,1.2,0,2.5-.6,2.8-1.8l4.6.1h0ZM258.8,40.5c-.2-2.7-2-3.5-3.4-3.5-2.1,0-3.2,1.3-3.4,3.5h6.8Z" style="fill:#fff; stroke-width:0px;"/><path d="M279,50.5h-5l8.1-22.6h5.4l8,22.6h-5.1l-1.4-4.6h-8.3l-1.7,4.6ZM281.8,42h5.8l-2.8-8.9h0l-3,8.9Z" style="fill:#fff; stroke-width:0px;"/><path d="M302,33.8h2.7v3.2h-2.7v9c0,1,0,1.3,1.8,1.3h.9v3.3h-2.7c-3.8,0-4.5-1.4-4.5-3.6v-10.1h-2.3v-3.1h2.3v-4.5h4.4l.1,4.5h0Z" style="fill:#fff; stroke-width:0px;"/><path d="M312.4,50.5h-4.4v-22.5h4.4v22.5Z" style="fill:#fff; stroke-width:0px;"/><path d="M330,47.3c0,2,.5,2.4,1,2.6v.6h-4.7c-.2-.8-.3-1.1-.4-2-1,1.1-2.4,2.4-5.4,2.4-2.5,0-5.1-1.4-5.1-4.9,0-3.3,2.1-4.9,4.9-5.3l4-.6c.7-.1,1.5-.4,1.5-1.3,0-1.8-1.7-1.9-2.9-1.9-2.2,0-2.6,1.3-2.7,2.3h-4.2c.5-5.1,4.1-5.8,7.5-5.8,2.3,0,6.7.7,6.7,4.8l-.2,9.1h0ZM325.6,42.4c-.5.4-1.2.6-3,.9-1.7.3-3,.7-3,2.5,0,1.5,1.2,2,2,2,1.9,0,3.9-1.2,3.9-3.3l.1-2.1h0Z" style="fill:#fff; stroke-width:0px;"/><path d="M343.2,38.9c-.2-1.1-.6-2.2-2.9-2.2s-2.7.9-2.7,1.7c0,2.6,10.4.7,10.4,6.9,0,4.9-4.7,5.8-7.3,5.8-3.8,0-7.9-1.3-8.1-5.8h4.5c0,1.4.9,2.4,3.6,2.4,2.3,0,2.8-1.1,2.8-1.7,0-2.8-10.4-.7-10.4-7,0-2.4,1.5-5.6,6.8-5.6,3.3,0,7.2.8,7.5,5.5h-4.2Z" style="fill:#fff; stroke-width:0px;"/></svg>