<?xml version="1.0" encoding="utf-8"?>
<!-- Generator: Adobe Illustrator 25.4.1, SVG Export Plug-In . SVG Version: 6.00 Build 0)  -->
<svg version="1.1" id="Layer_1" xmlns="http://www.w3.org/2000/svg" xmlns:xlink="http://www.w3.org/1999/xlink" x="0px" y="0px"
	 width="348px" height="51px" viewBox="0 0 348 51" style="enable-background:new 0 0 348 51;" xml:space="preserve">
<style type="text/css">
	.st0{fill:#00B3F0;}
	.st1{fill:#A0A311;}
	.st2{fill:#C0CF29;}
	.st3{fill:#0059A6;}
	.st4{fill:#940066;}
	.st5{fill:#E43D96;}
	.st6{fill:#6D6E71;}
</style>
<polygon class="st0" points="34.5,0 34.4,23.1 14.3,23.1 14.3,31.5 34.4,31.5 34.4,50.5 50.8,50.5 50.9,0 "/>
<polygon class="st1" points="141.2,31.5 123,31.5 137,0 120.6,0 98.1,50.5 114.6,50.5 119.3,39.8 141.2,39.8 "/>
<polygon class="st2" points="157.6,50.5 137,0 120.6,0 141.2,50.5 "/>
<rect y="0" class="st3" width="16.4" height="50.5"/>
<polygon class="st4" points="89.1,50.5 89.2,6.1 72.7,6.1 72.6,50.5 "/>
<rect x="57.6" y="0" class="st5" width="46.5" height="12.2"/>
<g>
	<path class="st6" d="M171.1,12.5v10.1h-4.7V0h4.7v8.6h8.8V0h4.7v22.6h-4.7V12.5H171.1z"/>
	<path class="st6" d="M202.3,19.3c0,2,0.5,2.4,1,2.6v0.6h-4.7c-0.2-0.8-0.3-1.1-0.4-2c-1,1.1-2.4,2.4-5.4,2.4
		c-2.5,0-5.1-1.4-5.1-4.9c0-3.3,2.1-4.9,4.9-5.3l4-0.6c0.7-0.1,1.5-0.4,1.5-1.3c0-1.8-1.7-1.9-2.9-1.9c-2.2,0-2.6,1.3-2.7,2.3h-4.2
		c0.5-5.1,4.1-5.8,7.5-5.8c2.3,0,6.7,0.7,6.7,4.8L202.3,19.3L202.3,19.3z M198,14.5c-0.5,0.4-1.2,0.6-3,0.9c-1.7,0.3-3,0.7-3,2.5
		c0,1.5,1.2,2,2,2c1.9,0,3.9-1.2,3.9-3.3L198,14.5L198,14.5z"/>
	<path class="st6" d="M206.1,5.8h4.2v2.9h0c0.9-1.7,1.9-3.3,4.6-3.3c0.3,0,0.6,0,0.8,0v4.5c-0.4,0-0.8,0-1.2,0c-3.4,0-4.1,2.1-4.1,4
		v8.7H206L206.1,5.8L206.1,5.8z"/>
	<path class="st6" d="M228.1,22.6h-4.6l-6-16.7h4.9l3.5,12.3h0l3.5-12.3h4.7L228.1,22.6z"/>
	<path class="st6" d="M250,19.3c0,2,0.5,2.4,1,2.6v0.6h-4.7c-0.2-0.8-0.3-1.1-0.4-2c-1,1.1-2.4,2.4-5.4,2.4c-2.5,0-5.1-1.4-5.1-4.9
		c0-3.3,2.1-4.9,4.9-5.3l4-0.6c0.7-0.1,1.5-0.4,1.5-1.3c0-1.8-1.7-1.9-2.9-1.9c-2.2,0-2.6,1.3-2.7,2.3h-4.2c0.5-5.1,4.1-5.8,7.5-5.8
		c2.3,0,6.7,0.7,6.7,4.8L250,19.3L250,19.3z M245.7,14.5c-0.5,0.4-1.2,0.6-3,0.9c-1.7,0.3-3,0.7-3,2.5c0,1.5,1.2,2,2,2
		c1.9,0,3.9-1.2,3.9-3.3L245.7,14.5L245.7,14.5z"/>
	<path class="st6" d="M253.7,5.8h4.2v2.9h0c0.9-1.7,1.9-3.3,4.6-3.3c0.3,0,0.6,0,0.8,0v4.5c-0.4,0-0.8,0-1.2,0c-3.4,0-4.1,2.1-4.1,4
		v8.7h-4.4L253.7,5.8L253.7,5.8z"/>
	<path class="st6" d="M281.1,22.6h-4.3v-2.1h0c-1.1,1.9-3,2.5-4.8,2.5c-5,0-7-4.4-7-9c0-5.8,3.3-8.6,7-8.6c2.8,0,4.1,1.5,4.8,2.6h0
		V0h4.4L281.1,22.6L281.1,22.6z M273,19.4c2.8,0,3.9-2.3,3.9-4.8c0-2.7-0.7-5.4-3.8-5.4c-2.8,0-3.7,2.5-3.7,5.1
		C269.4,16.3,270.2,19.4,273,19.4z"/>
	<path class="st6" d="M178,50.5h-4.7V32h-6.8v-4h18.4v4H178L178,50.5L178,50.5z"/>
	<path class="st6" d="M191.5,31.9h-4.4v-4.1h4.4V31.9z M191.5,33.8v16.7h-4.4V33.8H191.5z"/>
	<path class="st6" d="M205,38.9c-0.2-1.1-0.6-2.2-2.9-2.2s-2.7,0.9-2.7,1.7c0,2.6,10.4,0.7,10.4,6.9c0,4.9-4.7,5.8-7.3,5.8
		c-3.8,0-7.9-1.3-8.1-5.8h4.5c0,1.4,0.9,2.4,3.6,2.4c2.3,0,2.8-1.1,2.8-1.7c0-2.8-10.4-0.7-10.4-7c0-2.4,1.5-5.6,6.8-5.6
		c3.3,0,7.2,0.8,7.5,5.5L205,38.9L205,38.9z"/>
	<path class="st6" d="M222.4,38.9c-0.2-1.1-0.6-2.2-2.9-2.2s-2.7,0.9-2.7,1.7c0,2.6,10.4,0.7,10.4,6.9c0,4.9-4.7,5.8-7.3,5.8
		c-3.8,0-7.9-1.3-8.1-5.8h4.5c0,1.4,0.9,2.4,3.6,2.4c2.3,0,2.8-1.1,2.8-1.7c0-2.8-10.4-0.7-10.4-7c0-2.4,1.5-5.6,6.8-5.6
		c3.3,0,7.2,0.8,7.5,5.5L222.4,38.9L222.4,38.9z"/>
	<path class="st6" d="M244.8,50.5h-4.2v-2.3h0c-1,1.8-2.8,2.8-5.1,2.8c-3.3,0-5.7-1.9-5.7-6.2v-11h4.4v10.4c0,2.6,1.5,3.1,2.9,3.1
		c1.4,0,3.4-0.8,3.4-3.8v-9.7h4.4L244.8,50.5L244.8,50.5z"/>
	<path class="st6" d="M263.2,45.6c-1.2,4-4.5,5.3-7.4,5.3c-4.7,0-8.3-2.3-8.3-9.2c0-2,0.7-8.5,8-8.5c3.3,0,7.9,1.6,7.9,9.2v0.8
		h-11.5c0.1,1.2,0.4,4.1,3.9,4.1c1.2,0,2.5-0.6,2.8-1.8L263.2,45.6L263.2,45.6z M258.8,40.5c-0.2-2.7-2-3.5-3.4-3.5
		c-2.1,0-3.2,1.3-3.4,3.5H258.8z"/>
	<path class="st6" d="M279,50.5h-5l8.1-22.6h5.4l8,22.6h-5.1l-1.4-4.6h-8.3L279,50.5z M281.8,42h5.8l-2.8-8.9h0L281.8,42z"/>
	<path class="st6" d="M302,33.8h2.7V37H302V46c0,1,0,1.3,1.8,1.3c0.3,0,0.6,0,0.9,0v3.3c-0.7,0-1.4,0-2.1,0h-0.6
		c-3.8,0-4.5-1.4-4.5-3.6V36.9h-2.3v-3.1h2.3v-4.5h4.4L302,33.8L302,33.8z"/>
	<path class="st6" d="M312.4,50.5H308V28h4.4V50.5z"/>
	<path class="st6" d="M330,47.3c0,2,0.5,2.4,1,2.6v0.6h-4.7c-0.2-0.8-0.3-1.1-0.4-2c-1,1.1-2.4,2.4-5.4,2.4c-2.5,0-5.1-1.4-5.1-4.9
		c0-3.3,2.1-4.9,4.9-5.3l4-0.6c0.7-0.1,1.5-0.4,1.5-1.3c0-1.8-1.7-1.9-2.9-1.9c-2.2,0-2.6,1.3-2.7,2.3h-4.2c0.5-5.1,4.1-5.8,7.5-5.8
		c2.3,0,6.7,0.7,6.7,4.8L330,47.3L330,47.3z M325.6,42.4c-0.5,0.4-1.2,0.6-3,0.9c-1.7,0.3-3,0.7-3,2.5c0,1.5,1.2,2,2,2
		c1.9,0,3.9-1.2,3.9-3.3L325.6,42.4L325.6,42.4z"/>
	<path class="st6" d="M343.2,38.9c-0.2-1.1-0.6-2.2-2.9-2.2c-2.4,0-2.7,0.9-2.7,1.7c0,2.6,10.4,0.7,10.4,6.9c0,4.9-4.7,5.8-7.3,5.8
		c-3.8,0-7.9-1.3-8.1-5.8h4.5c0,1.4,0.9,2.4,3.6,2.4c2.3,0,2.8-1.1,2.8-1.7c0-2.8-10.4-0.7-10.4-7c0-2.4,1.5-5.6,6.8-5.6
		c3.3,0,7.2,0.8,7.5,5.5L343.2,38.9L343.2,38.9z"/>
</g>
</svg>
