<svg id="Layer_1" data-name="Layer 1" xmlns="http://www.w3.org/2000/svg" width="88" height="43.59" viewBox="0 0 88 43.59"><path d="M.7.47A.37.37,0,0,1,1.06.12H2.57a.37.37,0,0,1,.36.35v9h4a.31.31,0,0,1,.35.35V11.1a.37.37,0,0,1-.35.35H1.06c-.24,0-.36-.11-.36-.35Z" style="fill:#fff"/><path d="M9.12.47A.37.37,0,0,1,9.47.12H11a.31.31,0,0,1,.35.35V7A2.34,2.34,0,1,0,16,7V.47a.37.37,0,0,1,.35-.35h1.52a.36.36,0,0,1,.35.35V7.13a4.44,4.44,0,0,1-4.44,4.44A4.37,4.37,0,0,1,9.35,7.13V.47Z" style="fill:#fff"/><path d="M21.39.47c0-.12.12-.35.23-.35h3.86a5.61,5.61,0,0,1,0,11.22H21.62c-.11,0-.23-.12-.23-.36Zm4,9A3.53,3.53,0,0,0,29,5.73,3.5,3.5,0,0,0,25.36,2.1H23.49V9.47Z" style="fill:#fff"/><path d="M32.61.58c-.12-.23.11-.35.23-.35h1.52a.25.25,0,0,1,.23.24l1.64,6.42h.12L38.92.23A.26.26,0,0,1,39.15,0h.47a.25.25,0,0,1,.23.23l2.57,6.66h.12L44.18.47a.25.25,0,0,1,.23-.24h1.52c.23,0,.35.12.23.35l-3,10.76a.26.26,0,0,1-.24.23h-.23a.26.26,0,0,1-.24-.23L39.5,4.09h-.11l-2.81,7.25a.26.26,0,0,1-.23.23h-.24a.26.26,0,0,1-.23-.23Z" style="fill:#fff"/><path d="M49.09.47a.36.36,0,0,1,.35-.35H51a.37.37,0,0,1,.35.35V11.1a.37.37,0,0,1-.35.35H49.44a.36.36,0,0,1-.35-.35Z" style="fill:#fff"/><path d="M60,0a6.46,6.46,0,0,1,4,1.52.38.38,0,0,1,0,.47L62.87,3c-.11.12-.23.12-.46,0A3.7,3.7,0,1,0,60,9.58a4.56,4.56,0,0,0,1.87-.35V7.71H60.65c-.23,0-.35-.11-.35-.23V6.19a.31.31,0,0,1,.35-.35h3c.12,0,.24.12.24.35v4.09a.42.42,0,0,1-.12.24,8,8,0,0,1-4,1.05A5.79,5.79,0,0,1,60,0" style="fill:#fff"/><path d="M5.73,15.89a5,5,0,0,1,3.86,1.52.38.38,0,0,1,0,.47l-.94,1.05a.22.22,0,0,1-.35,0A4,4,0,0,0,5.85,18a3.74,3.74,0,0,0,0,7.48,3.74,3.74,0,0,0,2.45-.94c.12-.12.35-.12.35,0l1,1.05a.35.35,0,0,1,0,.47,5.37,5.37,0,0,1-3.85,1.52,5.85,5.85,0,0,1-.12-11.69" style="fill:#fff"/><path d="M11.57,27l5-10.86a.25.25,0,0,1,.23-.24H17a.25.25,0,0,1,.23.24L22.09,27c.12.24,0,.47-.23.47H20.45c-.23,0-.35-.11-.46-.35l-.82-1.75H14.38l-.82,1.75c-.12.12-.23.35-.47.35h-1.4c-.12-.11-.23-.35-.12-.47m6.9-3.5L16.83,20h0L15.2,23.49Z" style="fill:#fff"/><path d="M24.78,16.24c0-.11.12-.23.35-.23h.35l6.66,7.13h0V16.36a.37.37,0,0,1,.35-.35H34a.37.37,0,0,1,.35.35V27.23c0,.12-.12.23-.35.23h-.35L26.88,20.1h0V27a.38.38,0,0,1-.35.36H25a.38.38,0,0,1-.35-.36V16.24Z" style="fill:#fff"/><path d="M43.13,15.89A5,5,0,0,1,47,17.41a.35.35,0,0,1,0,.47l-.93,1.05a.22.22,0,0,1-.35,0A3.79,3.79,0,0,0,43.24,18a3.74,3.74,0,0,0,0,7.48,3.75,3.75,0,0,0,2.46-.94c.11-.12.35-.12.35,0l1.05,1.05a.35.35,0,0,1,0,.47,5.4,5.4,0,0,1-3.86,1.52,5.85,5.85,0,0,1-.11-11.69" style="fill:#fff"/><path d="M50,16.36a.37.37,0,0,1,.35-.35h6.55a.31.31,0,0,1,.35.35v1.29a.38.38,0,0,1-.35.35h-4.8v2.68h4a.38.38,0,0,1,.35.35v1.29a.31.31,0,0,1-.35.35h-4v2.81h4.8a.31.31,0,0,1,.35.35v1.28a.37.37,0,0,1-.35.35H50.37a.31.31,0,0,1-.35-.35Z" style="fill:#fff"/><path d="M60.54,16.36a.36.36,0,0,1,.35-.35h4.56A3.44,3.44,0,0,1,69,19.52a3.52,3.52,0,0,1-2.34,3.27l2.22,4.09a.3.3,0,0,1-.23.47H67a.42.42,0,0,1-.24-.12L64.63,23H62.87v4.09a.36.36,0,0,1-.35.35H61c-.24,0-.36-.11-.36-.35V16.36Zm4.67,4.91a1.67,1.67,0,0,0,1.64-1.64,1.57,1.57,0,0,0-1.64-1.52H62.64v3.16Z" style="fill:#fff"/><path d="M.7,32.37A.37.37,0,0,1,1.06,32H5.61a3.45,3.45,0,0,1,3.51,3.51A3.53,3.53,0,0,1,6.78,38.8L9,42.89a.3.3,0,0,1-.23.47H7a.42.42,0,0,1-.24-.12L4.56,38.91H2.81V43a.38.38,0,0,1-.35.36H1.06A.32.32,0,0,1,.7,43Zm4.8,4.79a1.67,1.67,0,0,0,1.63-1.63A1.57,1.57,0,0,0,5.5,34H2.81v3.15Z" style="fill:#fff"/><path d="M12.16,32.37a.36.36,0,0,1,.35-.35h6.54a.31.31,0,0,1,.35.35v1.29a.37.37,0,0,1-.35.35H14.26v2.68h4a.37.37,0,0,1,.35.35v1.29a.31.31,0,0,1-.35.35h-4v2.81h4.79a.3.3,0,0,1,.35.35v1.28a.36.36,0,0,1-.35.35H12.51a.3.3,0,0,1-.35-.35Z" style="fill:#fff"/><path d="M22.09,41.72l.58-1c.12-.24.36-.24.59-.12a6.17,6.17,0,0,0,2.45,1.05,1.43,1.43,0,0,0,1.52-1.28c0-.82-.7-1.41-2-2-1.52-.58-3-1.52-3-3.51,0-1.4,1.05-3,3.62-3a6,6,0,0,1,3.27,1.05.5.5,0,0,1,.12.58l-.59.94a.42.42,0,0,1-.58.23,5,5,0,0,0-2.22-.93,1.24,1.24,0,0,0-1.4,1.16c0,.71.58,1.29,1.87,1.76,1.52.58,3.39,1.52,3.39,3.62,0,1.64-1.41,3.16-3.74,3.16a4.72,4.72,0,0,1-3.51-1.29c-.47,0-.58-.12-.35-.35" style="fill:#fff"/><path d="M32.37,32.37a.37.37,0,0,1,.35-.35h6.55a.31.31,0,0,1,.35.35v1.29a.38.38,0,0,1-.35.35H34.48v2.68h4a.37.37,0,0,1,.35.35v1.29a.31.31,0,0,1-.35.35h-4v2.81h4.79a.31.31,0,0,1,.35.35v1.28a.37.37,0,0,1-.35.35H32.61a.3.3,0,0,1-.35-.35V32.37Z" style="fill:#fff"/><path d="M41.72,42.89l5-10.87a.24.24,0,0,1,.23-.23h.12a.24.24,0,0,1,.23.23l4.91,10.87a.3.3,0,0,1-.23.47H50.6c-.23,0-.35-.12-.46-.36l-.82-1.75H44.53L43.71,43c-.12.12-.23.36-.47.36H42c-.24,0-.35-.24-.24-.47m6.9-3.39L47,36h0L45.46,39.5Z" style="fill:#fff"/><path d="M54.93,32.37a.37.37,0,0,1,.35-.35h4.56a3.44,3.44,0,0,1,3.5,3.51A3.52,3.52,0,0,1,61,38.8l2.22,4.09c.11.23,0,.47-.24.47H61.36a.42.42,0,0,1-.24-.12L59,39H57.27v4.09a.37.37,0,0,1-.35.35H55.4a.3.3,0,0,1-.35-.35V32.37Zm4.67,4.79a1.67,1.67,0,0,0,1.64-1.63A1.57,1.57,0,0,0,59.6,34H57v3.15Z" style="fill:#fff"/><path d="M71.52,31.9a5,5,0,0,1,3.86,1.52.35.35,0,0,1,0,.47l-.94,1a.22.22,0,0,1-.35,0A3.79,3.79,0,0,0,71.64,34a3.74,3.74,0,0,0,0,7.48,3.8,3.8,0,0,0,2.45-.94c.12-.12.35-.12.35,0L75.5,41.6a.38.38,0,0,1,0,.47,5.41,5.41,0,0,1-3.86,1.52,5.76,5.76,0,0,1-5.84-5.73,5.64,5.64,0,0,1,5.72-6" style="fill:#fff"/><path d="M78.3,32.37a.37.37,0,0,1,.35-.35h1.52a.31.31,0,0,1,.35.35v4.32h5.26V32.37a.37.37,0,0,1,.35-.35h1.52a.37.37,0,0,1,.35.35V43a.38.38,0,0,1-.35.36H86.13a.32.32,0,0,1-.35-.36V38.56H80.52V43a.38.38,0,0,1-.35.36H78.65A.37.37,0,0,1,78.3,43Z" style="fill:#fff"/></svg>