<?xml version="1.0" encoding="utf-8"?>
<!-- Generator: Adobe Illustrator 25.4.1, SVG Export Plug-In . SVG Version: 6.00 Build 0)  -->
<svg version="1.1" id="Layer_1" xmlns="http://www.w3.org/2000/svg" xmlns:xlink="http://www.w3.org/1999/xlink" x="0px" y="0px"
	 width="228.1px" height="57.7px" viewBox="0 0 228.1 57.7" style="enable-background:new 0 0 228.1 57.7;" xml:space="preserve">
<style type="text/css">
	.st0{fill:#C41230;}
	.st1{fill:#FFFFFF;}
	.st2{fill:none;stroke:#000000;stroke-width:0.8426;}
	.st3{fill:none;stroke:#000000;stroke-width:0.1722;}
	.st4{fill:none;stroke:#000000;stroke-width:0.1754;}
</style>
<g>
	<path class="st0" d="M23.8,0.4l-23.6,0l0,18.9c0,23.1,23.2,37.9,23.4,38l0.1,0c0.1,0,0.2-0.1,0.2-0.1c3.9-2.6,23.6-16.5,23.6-37.9
		l0-19C47.4,0.4,23.8,0.4,23.8,0.4L23.8,0.4L23.8,0.4z M47.4,17.1H0.6v-2.7h46.7V17.1L47.4,17.1z"/>
	<path d="M8.2,2.7c1.6-0.7,3.3-0.2,5-0.3c0.4,0.1,1.1-0.2,1.4,0.3c0,0.5,0,1,0,1.5c0.2,0.4,0.7,0.1,1,0.3c0.2,0.1,0.4,0.2,0.4,0.4
		c0.1,0.2,0,0.5-0.1,0.7c-0.3,0.4-0.7,0.2-1.2,0.3l-0.1,0.2c0.1,0.9-0.2,1.8,0,2.6c0,0.2-0.1,0.4,0.1,0.6c0.4,0,0.9,0,1.2,0.3
		c0.1,0.2,0.1,0.5,0.1,0.8c-0.2,1-1.7-0.1-1.5,1c0,0.4,0.1,1-0.1,1.4c-1.7,0-3.5-0.1-5.1,0c-0.3,0.3-0.7,0.4-1.1,0.5
		c-0.4-0.1-0.6-0.3-0.9-0.5c-1.6-0.1-3.1-0.1-4.6-0.1c-0.5-0.4-0.1-1.1-0.3-1.7c-0.3-0.3-0.6-0.1-0.9-0.2c-0.2,0-0.3-0.3-0.4-0.4
		c0-0.4,0-0.6,0.3-0.9C1.6,9.2,2,9.2,2.3,9.2L2.5,9C2.4,8,2.6,7,2.4,5.8C2.3,5.6,2,5.8,1.8,5.7C1.5,5.6,1.2,5.5,1.1,5.2
		C1,4.9,1,4.7,1.2,4.4c0.4-0.4,1,0.1,1.3-0.3l0.1-1.5c0.3-0.4,0.9-0.2,1.3-0.2c0.8-0.2,1.7,0,2.6,0C7.1,2.4,7.6,2.5,8.2,2.7L8.2,2.7
		L8.2,2.7L8.2,2.7z"/>
	<path d="M134.7,9.9c-0.5-1.1-1.2-1.8-2.5-2.1V7.1c0.8,0,3.4,0.1,4,0.1c0.6,0,2.9-0.1,3.7-0.1v0.6c-0.7,0.1-1.5,0.5-1.5,1.3
		c0,0.5,0.3,1.2,0.9,2.6l5.7,12.9l5.3-12.9c0.4-1,0.7-1.8,0.7-2.5c0-0.7-0.6-1.2-1.5-1.3V7.1c0.7,0,2.4,0.1,3,0.1
		c0.5,0,2.5-0.1,3.3-0.1v0.6c-1.3,0.4-2.1,1.1-2.9,2.8L145,29.2h-1.7L134.7,9.9L134.7,9.9L134.7,9.9z"/>
	<path d="M58.2,28.5c1-0.2,1.8-0.7,1.8-1.9v-17c0-1.1-0.7-1.6-1.8-1.9V7.1c0.5,0,2.9,0.1,3.4,0.1c0.7,0,3.1-0.1,3.7-0.1v0.6
		c-1,0.2-1.8,0.7-1.8,1.9v7.1h12.7V9.6c0-1.2-0.7-1.6-1.7-1.9V7.1c0.5,0,3,0.1,3.6,0.1c0.6,0,2.9-0.1,3.5-0.1v0.6
		c-1,0.2-1.8,0.7-1.8,1.9v17c0,1.1,0.7,1.6,1.8,1.9V29c-0.5,0-2.9,0-3.5,0c-0.7,0-3.1,0-3.6,0v-0.6c1-0.2,1.7-0.7,1.7-1.9v-8.1H63.5
		v8.1c0,1.2,0.7,1.6,1.8,1.9V29c-0.5,0-3,0-3.7,0c-0.6,0-2.9,0-3.4,0V28.5L58.2,28.5L58.2,28.5z M85,28.5c1.4-0.3,2.1-1.2,2.7-2.4
		l7-16.9C95,8.4,95.3,7,95.3,7h2c0,0,0.4,1.4,0.6,2.1l7.4,16.9c0.5,1.2,1.1,2,2.6,2.4V29c-0.8,0-3.3,0-3.9,0s-3,0-3.8,0v-0.6
		c1.1-0.3,1.4-0.8,1.4-1.3c0-0.5-0.2-1-0.4-1.5l-1.6-3.6h-8.2l-1.4,3.6c-0.2,0.4-0.4,1-0.4,1.4c0,0.6,0.3,1.1,1.5,1.4V29
		c-0.7,0-2.6,0-3.1,0L85,29L85,28.5L85,28.5L85,28.5z M99,20.3l-3.5-8.1l-3.2,8.1H99L99,20.3z M85,28.5c1.4-0.3,2.1-1.2,2.7-2.4
		l7-16.9C95,8.4,95.3,7,95.3,7h2c0,0,0.4,1.4,0.6,2.1l7.4,16.9c0.5,1.2,1.1,2,2.6,2.4V29c-0.8,0-3.3,0-3.9,0s-3,0-3.8,0v-0.6
		c1.1-0.3,1.4-0.8,1.4-1.3c0-0.5-0.2-1-0.4-1.5l-1.6-3.6h-8.2l-1.4,3.6c-0.2,0.4-0.4,1-0.4,1.4c0,0.6,0.3,1.1,1.5,1.4V29
		c-0.7,0-2.6,0-3.1,0L85,29L85,28.5L85,28.5L85,28.5z M99,20.3l-3.5-8.1l-3.2,8.1H99L99,20.3z M154.6,28.5c1.4-0.3,2.1-1.2,2.6-2.4
		l7-16.9c0.3-0.7,0.6-2.1,0.6-2.1h2c0,0,0.4,1.4,0.6,2.1l7.4,16.9c0.5,1.2,1.1,2,2.6,2.4l0,0.6c-0.8,0-3.3,0-3.9,0c-0.6,0-3,0-3.8,0
		l0-0.6c1.1-0.3,1.4-0.8,1.4-1.3c0-0.5-0.2-1-0.4-1.5l-1.6-3.6h-8.2l-1.4,3.6c-0.2,0.4-0.4,1-0.4,1.4c0,0.6,0.3,1.1,1.5,1.4V29
		c-0.7,0-2.6,0-3,0l-3.2,0L154.6,28.5L154.6,28.5L154.6,28.5z M168.5,20.3l-3.5-8.1l-3.3,8.1H168.5L168.5,20.3z M205.3,28.5
		c1.3-0.2,2-0.8,2-2V9.6c0-1.2-0.7-1.6-2-1.9V7.1c0.7,0,3.2,0.1,3.8,0.1c1.1,0,4.1-0.2,6.4-0.2c7.8,0,12.6,4.4,12.6,11
		c0,6.4-4.9,11.2-13,11.2c-2.3,0-5.1-0.2-6.2-0.2c-0.7,0-2.9,0.1-3.6,0.1L205.3,28.5L205.3,28.5L205.3,28.5z M210.9,27.3
		c0.8,0.1,2.3,0.2,3.4,0.2c6.6,0,10-3.9,10-9.5c0-5.7-3.6-9.7-9.7-9.7c-1.3,0-2.8,0.1-3.7,0.2V27.3L210.9,27.3L210.9,27.3z"/>
	<path d="M116.7,26.4c0,1.1,0.7,1.7,2,2v0.6c-0.7,0-3.1-0.1-3.8-0.1c-0.6,0-2.9,0.1-3.7,0.1v-0.6c1.2-0.2,1.9-0.8,1.9-2V9.6
		c0-1-0.6-1.7-1.9-1.9V7.1c0.7,0,3.1,0.1,3.7,0.1c1.1,0,4.1-0.2,5.3-0.2c5.3,0,8.2,2.2,8.2,5.9c0,2.9-2.2,4.9-5.5,5.7
		c0,0,0.8,0.4,1.5,1.3c0.9,1.1,3.6,4.7,4.6,6c1,1.3,2.4,2.7,3.8,2.8v0.5c-0.7,0.1-1.8,0.3-2.6,0.3c-1.8,0-3.2-0.6-4.6-2.3
		c-1.2-1.5-3.4-4.5-4.6-6.1c-0.8-1-1.7-1.7-3.4-2c-0.3-0.1-0.6-0.1-1-0.1L116.7,26.4L116.7,26.4L116.7,26.4z M116.7,17.5
		c0.7,0.1,1.7,0.1,2.7,0.1c4.1,0,5.4-2.4,5.4-4.5c0-3-2-4.8-5.6-4.8c-0.7,0-1.8,0.1-2.6,0.2L116.7,17.5L116.7,17.5L116.7,17.5z"/>
	<path d="M185.9,26.4c0,1.1,0.7,1.7,2,2v0.6c-0.7,0-3.1-0.1-3.8-0.1c-0.6,0-2.9,0.1-3.7,0.1v-0.6c1.2-0.2,1.9-0.8,1.9-2V9.6
		c0-1-0.6-1.7-1.9-1.9V7.1c0.7,0,3,0.1,3.7,0.1c1.1,0,4.1-0.2,5.3-0.2c5.2,0,8.2,2.2,8.2,5.9c0,2.9-2.2,4.9-5.5,5.7
		c0,0,0.8,0.4,1.5,1.3c0.9,1.1,3.5,4.7,4.5,6c1,1.3,2.4,2.7,3.8,2.8v0.5c-0.7,0.1-1.8,0.3-2.6,0.3c-1.8,0-3.2-0.6-4.6-2.3
		c-1.2-1.5-3.3-4.5-4.5-6.1c-0.8-1-1.7-1.7-3.4-2c-0.3-0.1-0.6-0.1-1-0.1L185.9,26.4L185.9,26.4L185.9,26.4z M185.9,17.5
		c0.7,0.1,1.7,0.1,2.7,0.1c4.1,0,5.4-2.4,5.4-4.5c0-3-2-4.8-5.6-4.8c-0.7,0-1.8,0.1-2.6,0.2V17.5L185.9,17.5L185.9,17.5z"/>
	<path class="st0" d="M151.4,48h0.3c0.2,0.6,0.5,1.2,1,1.5c0.5,0.4,1.4,0.6,2,0.6c1.5,0,2.4-0.7,2.4-1.9c0-1.2-1.2-1.8-2.7-2.5
		c-1.1-0.5-3.3-1.3-3.3-3.5c0-1.9,1.5-3.1,3.8-3.1c1.5,0,2.3,0.4,3.3,0.3l0,2.3h-0.3c-0.4-1.4-1.7-1.8-3-1.8c-1.5,0-2.1,0.9-2.1,1.8
		c0,1.3,1.4,2,2.7,2.6c1.6,0.7,3.3,1.5,3.3,3.5c0,1.9-1.5,3.2-4.1,3.2c-1.6,0-2.5-0.4-3.4-0.5L151.4,48L151.4,48z"/>
	<path class="st0" d="M175.4,50.3c0.5-0.1,0.9-0.4,0.9-1v-8.8c0-0.6-0.4-0.8-0.9-1v-0.3c0.3,0,1.5,0,1.8,0c0.3,0,1.6,0,1.9,0v0.3
		c-0.5,0.1-0.9,0.4-0.9,1v3.7h6.5v-3.7c0-0.6-0.4-0.8-0.9-1v-0.3c0.3,0,1.5,0,1.9,0c0.3,0,1.5,0,1.8,0v0.3c-0.5,0.1-0.9,0.4-0.9,1
		v8.8c0,0.6,0.4,0.8,0.9,1v0.3c-0.3,0-1.5,0-1.8,0c-0.3,0-1.6,0-1.9,0v-0.3c0.5-0.1,0.9-0.4,0.9-1v-4.2h-6.5v4.2
		c0,0.6,0.4,0.8,0.9,1v0.3c-0.3,0-1.5,0-1.9,0c-0.3,0-1.5,0-1.8,0V50.3L175.4,50.3z"/>
	<path class="st0" d="M172.2,47.8l-0.1,2.5c-0.8-0.1-2,0.6-4,0.6c-4.2,0-6.1-2.6-6.1-5.8c0-3.5,2.4-6,6-6c1.8,0,2.8,0.6,3.9,0.6
		l0.1,2.5h-0.3c-0.6-1.5-2.1-2.3-3.7-2.3c-2.6,0-4,2.3-4,5.1c0,2.3,1.1,5.1,4.3,5.1c1.8,0,3.1-0.6,3.6-2.3L172.2,47.8L172.2,47.8z"
		/>
	<path class="st0" d="M190.2,45c0-3.3,2.3-5.9,5.8-5.9c3.6,0,5.8,2.7,5.8,5.9c0,3.3-2.3,5.9-5.8,5.9C192.5,50.9,190.2,48.3,190.2,45
		L190.2,45z M199.9,45c0-2.6-1.2-5.1-3.8-5.1c-2.7,0-3.8,2.5-3.8,5.1s1.2,5,3.8,5C198.7,50,199.9,47.6,199.9,45L199.9,45z"/>
	<path class="st0" d="M204.5,45c0-3.3,2.3-5.9,5.8-5.9c3.6,0,5.8,2.7,5.8,5.9c0,3.3-2.3,5.9-5.8,5.9C206.8,50.9,204.5,48.3,204.5,45
		L204.5,45z M214.2,45c0-2.6-1.2-5.1-3.8-5.1s-3.8,2.5-3.8,5.1s1.2,5,3.8,5C213,50,214.2,47.6,214.2,45L214.2,45z"/>
	<path class="st0" d="M75.9,39.3h7.1c0.2,0,0.6,0,0.8-0.1h0.3l0,2.3h-0.3c-0.3-0.7-0.7-1.3-2.1-1.3h-3v4.1c0,0,2.3,0,2.5,0
		c0.3,0,0.8,0,0.9-0.1c0.5-0.1,0.8-0.4,0.9-0.9h0.3c0,0.4,0,1.1,0,1.3c0,0.2,0,1.1,0,1.4H83c-0.1-0.5-0.4-0.8-0.9-0.9
		c-0.2,0-0.6-0.1-0.9-0.1c-0.2,0-2.5,0-2.5,0v4.6h3.4c1.5,0,1.9-0.6,2.2-1.5l0.3,0.1l-0.3,2.4c-1.1-0.1-1.7-0.1-3-0.1h-3.6
		c-0.3,0-1.6,0-1.9,0v-0.3c0.6-0.1,1-0.4,1-1v-8.7c0-0.5-0.3-0.9-1-1V39.3L75.9,39.3z"/>
	<path class="st0" d="M103.2,40.6c0-0.6-0.4-0.9-1-1v-0.3c0.4,0,1.6,0,2,0c0.3,0,1.6,0,1.9,0v0.3c-0.7,0.1-1,0.4-1,1v8.6
		c0,0.6,0.4,0.9,1,1v0.3c-0.4,0-1.6,0-1.9,0c-0.3,0-1.6,0-2,0v-0.3c0.7-0.1,1-0.4,1-1V40.6L103.2,40.6z"/>
	<path class="st0" d="M120.7,50.3c0.7-0.2,1.1-0.6,1.4-1.3l3.6-8.7c0.2-0.4,0.3-1.1,0.3-1.1h1c0,0,0.2,0.7,0.3,1.1l3.8,8.7
		c0.3,0.6,0.6,1,1.3,1.2v0.3c-0.4,0-1.7,0-2,0s-1.5,0-1.9,0v-0.3c0.6-0.1,0.7-0.4,0.7-0.7c0-0.2-0.1-0.5-0.2-0.8l-0.8-1.9h-4.3
		l-0.7,1.9c-0.1,0.2-0.2,0.5-0.2,0.7c0,0.3,0.2,0.6,0.8,0.7v0.3c-0.4,0-1.3,0-1.6,0l-1.7,0L120.7,50.3L120.7,50.3z M128,46l-1.8-4.2
		l-1.7,4.2H128L128,46z"/>
	<path class="st0" d="M119.2,47.8l-0.1,2.5c-0.8-0.1-2,0.6-4,0.6c-4.2,0-6.1-2.6-6.1-5.8c0-3.5,2.4-6,6-6c1.8,0,2.8,0.6,3.9,0.6
		l0.1,2.5h-0.3c-0.6-1.5-2.1-2.3-3.7-2.3c-2.6,0-4,2.3-4,5.1c0,2.3,1.1,5.1,4.3,5.1c1.8,0,3.1-0.6,3.6-2.3L119.2,47.8L119.2,47.8z"
		/>
	<path class="st0" d="M143.3,48.2c-0.4,0.9-0.8,1.5-2.2,1.5h-3.4v-9.1c0-0.6,0.4-0.9,1-1v-0.3c-0.4,0-1.6,0-1.9,0c-0.4,0-1.6,0-2,0
		v0.3c0.7,0.1,1,0.5,1,1v8.6c0,0.6-0.3,0.9-1,1v0.3c0.4,0,1.7,0,2,0c0,0,0,0,0,0l0,0h3.6c1.2,0,1.9,0,3,0.1l0.3-2.4L143.3,48.2
		L143.3,48.2z"/>
	<path class="st0" d="M227.4,48.2c-0.4,0.9-0.8,1.5-2.2,1.5h-3.4v-9.1c0-0.6,0.4-0.9,1-1v-0.3c-0.4,0-1.6,0-1.9,0c-0.4,0-1.6,0-2,0
		v0.3c0.7,0.1,1,0.5,1,1v8.6c0,0.6-0.3,0.9-1,1v0.3c0.4,0,1.7,0,2,0c0,0,0,0,0,0l0,0h3.6c1.2,0,1.9,0,3,0.1l0.3-2.4L227.4,48.2
		L227.4,48.2z"/>
	<path class="st0" d="M87.8,50.3c0.7-0.1,1.1-0.4,1.1-1v-8.7c0-0.6-0.4-0.8-1-1v-0.3c0.4,0,1.6,0,2,0c0.6,0,2-0.1,3.2-0.1
		c4,0,6.5,2.3,6.5,5.7c0,3.3-2.5,5.8-6.7,5.8c-1.2,0-2.6-0.1-3.1-0.1c-0.3,0-1.5,0-1.9,0L87.8,50.3L87.8,50.3z M90.7,49.7
		c0.4,0.1,1.1,0.1,1.7,0.1c3.4,0,5.1-1.9,5.1-4.9c0-3-1.9-5-5-5c-0.6,0-1.4,0-1.8,0.1V49.7L90.7,49.7z"/>
	<path class="st0" d="M71.7,49l-0.6-8.4c0-0.6,0.2-0.9,0.9-1v-0.3c-0.4,0-1.2,0-1.5,0c-0.3,0-0.8,0-1.2,0L65.6,48l-3.7-8.7
		c-0.4,0-1,0-1.2,0c-0.3,0-1.1,0-1.6,0v0.3c0.7,0.1,1,0.4,0.9,1L59.4,49c-0.1,0.7-0.4,1.1-1.1,1.3v0.3l1.6,0c0.2,0,1.2,0,1.6,0v-0.3
		c-0.8-0.2-1-0.6-0.9-1.2l0.5-7.5l3.9,8.9h0.7l3.9-9l0.5,7.5c0,0.5-0.2,0.9-0.9,1.2v0.3c0.4,0,1.7,0,2,0l1.9,0v-0.3
		C72.1,50.2,71.8,49.7,71.7,49L71.7,49z"/>
	<path class="st1" d="M10.3,19.3c0,0-0.1,0.3-0.1,0.3c0,0.2-0.2,0.3-0.3,0.3l-0.7-0.1c-0.3-0.1-0.5-0.1-0.7-0.1
		c-0.1,0.1-0.2,0.2-0.4,0.3c0,0,0.1,0,0.1,0c0.2,0.1,0.5,0.2,0.6,0.6c0,0.3,0.2,0.5,0.3,0.7l0.1,0.2c0,0.1,0.1,0.1,0.1,0.2
		c0,0.1,0,0.1-0.1,0.2l-0.3,0.4l-0.2,0.2c0,0-0.1,0.4-0.2,0.6c0.1,0.1,0.1,0.2,0.2,0.3c0.3-0.1,0.5,0,0.8,0l0.4,0.1c0,0,0.1,0,0.1,0
		l0.2,0c0.2,0,0.5-0.1,0.7,0.1c0,0,0.2,0.4,0.2,0.5c0,0.1,0.1,0.3,0.1,0.4c0,0.2,0,0.3-0.1,0.5l0,0.3c0,0,0,0.1-0.1,0.2
		c-0.4,0.6-1,1.1-1.7,1.4c0,0,0,0,0,0c0,0,0,0,0,0.1c0,0,0,0,0,0c0.1,0.1,0.3,0,0.5,0l0.2,0c0.3,0,0.6-0.1,0.8-0.2l0.9-0.2
		c0.2,0,0.3,0,0.3,0.2c0.2,0.3,0.4,0.6,0.6,0.7c0,0,0,0,0.2-0.1c0.2-0.1,0.5-0.4,0.9-0.2c0,0,0.1,0,0.1,0c0.3,0.2,0.4,0.6,0.5,0.8
		c0.1,0.2,0.1,0.4,0.2,0.5c0.1,0.1,0.1,0.1,0.1,0.2c0,0,0,0.1,0,0.1c0,0.3-0.3,0.5-0.4,0.5l-0.1,0c0,0-0.1,0-0.1,0L13.4,29
		c-0.3,0-0.5,0.1-0.6,0.1c0,0,0,0.1,0.1,0.1c0.4,0.2,0.8,0.3,1.3,0.3l0.3,0c0,0,0.6,0,0.6,0l0.9,0c0.1,0,0.2,0.1,0.3,0.2
		c0.1,0.1,0,0.2-0.1,0.3L16,30.4c0,0-0.1,0.1-0.1,0.1l-1.5,1c-0.1,0-0.9,0.3-0.9,0.3l-1.2,0.5c0,0-0.1,0-0.1,0
		c-0.7,0.2-1.1-0.2-1.5-0.5c-0.3-0.2-0.5-0.4-0.8-0.4c-0.3,0-0.5,0.1-0.7,0.3c-0.1,0.1-0.1,0.2-0.1,0.3c0,0,0,0.1,0,0.1
		c0,0,0.1,0,0.1,0c0.1,0.1,0.5,0.2,0.5,0.6c0,0.5-0.2,0.9-0.5,1.3c-0.2,0.4-0.4,0.7-0.4,1.1c0,0,0,0,0,0.1c0,0.1,0,0.1,0.1,0.2
		c0,0,0,0,0,0c0,0,0.1,0,0.1,0l0.1-0.1c0.1-0.2,0.2-0.4,0.6-0.5c0,0,0.1,0,0.1,0c0.6,0.1,0.9,0,1.2-0.2c0.1-0.1,0.1-0.1,0.2-0.1
		c0.2,0,0.4,0,0.5,0.2c0.2,0.1,0.2,0.3,0.2,0.5c0,0,0,0.1,0,0.2c0.4-0.1,0.6-0.4,0.9-0.9l0.1-0.2c0-0.1,0.1-0.1,0.2-0.2l0.2-0.1
		c0.3-0.1,0.7-0.2,1.1,0c0.1,0,0.1,0.1,0.1,0.2c0,0.1,0,0.2,0,0.3c0,0.3-0.1,0.6-0.2,0.8c0,0-0.1,0.1-0.1,0.3c0.6-0.1,1-0.6,1.4-1.2
		l0.3-0.3c0.1-0.2,0.3-0.6,0.7-0.6c0,0,0.1,0,0.1,0c0.2,0.1,0.3,0,0.6-0.4l0.5-0.5c0.1-0.1,0.1-0.1,0.2-0.1h0.2c0.1,0,0.2,0,0.2,0.1
		c0.1,0.1,0.1,0.1,0.1,0.2v0.4c0,0,0,0,0,0c0.1,0,0.4-0.1,0.5-0.2c0,0,0.6-0.4,0.6-0.4c0.1,0,0.2-0.1,0.3,0l2.3,0.6
		c0.5,0.2,0.6,0.5,0.6,0.8c0,0.1,0,0.2,0,0.3c0,0.1,0,0.2,0,0.2c0,0.1,0,0.1,0,0.1c0.1,0.1,0.1,0.2,0.1,0.2c0,0,0,0.1,0,0.1
		c-0.1,0.2-0.3,0.5-1,0.5c0,0-1.2,0.1-1.2,0.1c-1,0-1.9,0-2.6,0.7l-0.6,0.6c-0.1,0.1-0.1,0.1-0.2,0.1c-0.5,0-0.8,0.2-1.2,0.5
		c-0.4,0.2-0.7,0.5-1.2,0.5c-0.3,0.2-0.7,0.2-1,0.2c-0.3,0-0.5,0-0.6,0c0.3,0.4,0.9,0.5,1.4,0.7c0,0,0.3,0,0.3,0
		c0.2,0,0.6,0,0.8,0.4c0,0,0,0.1,0,0.1c0,0.3,0.1,0.4,0.2,0.5c0,0,0.1,0,0.1,0c0.1-0.1,0.4-0.3,0.8,0c0.1,0.1,0.6,0.6,0.6,0.6
		l0.6,0.6c0.1,0.1,0.1,0.2,0,0.4c-0.3,0.5-0.8,0.4-1.1,0.4l-0.3,0c0,0-0.4,0-0.4,0c-0.5,0.1-1.2,0.2-1.7-0.4c0,0,0,0,0.1,0.1
		l-0.5-0.4c-0.4-0.3-0.7-0.6-1.2-0.6c-0.5,0.1-0.7,0.3-0.7,0.5c0,0,0,0,0,0l0.1,0.1l0.2,0.2c0.1,0.1,0.1,0.1,0.1,0.2c0,0,0,0,0,0.1
		c0,0.1-0.1,0.2-0.2,0.2c-0.4,0.3-0.8,0.7-0.8,1.1c0,0.1,0,0.1,0,0.2c0,0,0,0,0,0.1c0,0,0.1,0,0.1,0c0.2-0.1,0.4-0.2,0.8,0
		c0.1,0.1,0.2,0.1,0.2,0.3l0,0.4c0,0.4,0.1,0.6,0.2,0.7c0.1,0,0.2-0.1,0.2-0.1c0.3-0.1,0.7-0.4,1.1,0c0.1,0,0.2,0,0.5-0.2l0.4-0.2
		c0,0,0,0,0.1,0c0.8,0,1.2,0.7,1.4,1.2v0c0,0,0,0,0,0c0.4,0.3,0.7,0.5,0.9,0.4c0,0,0-0.1,0-0.1c0-0.1,0-0.2,0-0.3c0-0.1,0-0.2,0-0.4
		c0-0.3,0.1-0.6,0.5-0.8c0.1,0,0.8-0.1,0.8-0.1l0.5,0c0,0,0.1,0,0.1,0c0.7,0.1,1.3,0.1,1.5-0.4c0,0,0.5-0.9,0.6-1
		c0-0.1,0.1-0.6,0.1-0.6c0-0.1,0.1-0.2,0.2-0.3c0.3-0.1,0.5,0,0.7,0.1c0,0,0.1,0,0.2,0.1c-0.1-0.4-0.2-0.8-0.2-1.2
		c0-0.2,0-0.4,0-0.6c0.2-0.6,0.4-1.1,0.7-1.4c0.1-0.1,0.2-0.1,0.4-0.1l0.2,0.1c0.1,0,0.2,0.1,0.2,0.2l0.1,0.8c0.1,0.5,0.2,1,0.4,1.4
		c0,0.1,0,0.1,0,0.2l-0.3,1.1l-0.2,0.9c-0.2,0.8-0.8,1.5-1.6,1.9c0,0,0,0.1,0,0.1c0,0,0.2,0,0.3,0c0,0,0.2,0,0.3,0
		c0.9-0.1,1.7-0.5,2.3-1.2C26,44,26.1,44,26.2,44c0.2,0,0.3,0,0.5-0.1c0.3-0.2,0.7-0.4,1.2-0.1c0.2,0.1,0.5,0.1,0.8,0.1
		c0.5,0,1.2-0.1,1.4,0.8c0,0,0,0.1,0,0.1l0,0.4c0.1,0.4,0.1,1.2-0.7,1.5c-0.1,0-0.1,0-0.1,0l-0.9-0.3c-0.7-0.3-1-0.4-1.3,0
		c-0.1,0.1-0.2,0.2-0.1,0.3c0.1,0.2,0.4,0.7,0,1.1c0,0,0.1-0.1,0.1-0.1l0,0.1c-0.2,0.4-0.4,0.7-0.3,0.9c0,0,0,0.1,0.3,0
		c0.4-0.1,0.7,0,1,0.1l0.4,0.1c0,0,0.1,0,0.2,0.1l0.1,0.1c0.3,0.2,0.6,0.4,0.8,0.4c0,0,0-0.1,0-0.1l0.2-0.4c0,0,0.6-0.3,0.6-0.3
		c0.4-0.1,0.4-0.2,0.4-0.3c0.1-0.6,0.5-1.1,1.1-1.4c0,0,0.1,0,0.2,0c0.1,0,0.5-0.1,0.7-0.3c0,0,0,0,0,0l-0.1-0.1
		c0,0-0.1-0.1-0.1-0.2c0-0.1,0-0.2,0-0.2c0-0.4,0.2-0.7,0.4-1c0.2-0.3,0.3-0.4,0.3-0.6c0-0.1,0-0.2-0.1-0.3c0,0,0-0.1,0-0.1
		l-0.1-0.6c0-0.4-0.1-0.7-0.3-0.9c0,0-0.6-0.3-0.6-0.3L31.3,42c-0.1-0.1-0.2-0.2-0.2-0.3c0-0.3,0.2-0.5,0.6-0.5l0.1,0
		c0.4-0.1,0.8,0,1.1,0.1c0.3,0.1,0.4,0.1,0.5,0.1c0-0.2-0.3-0.5-0.5-0.7c-0.4-0.3-0.8-0.4-1.3-0.5C30.8,40,30,39.8,29.4,39
		c0-0.1-0.1-0.1-0.1-0.2c0-0.1,0-0.2,0.1-0.2l0.1-0.1c0.1-0.1,0.2-0.1,0.3-0.1c0.9,0.2,1.9,0,2.5-0.5c0.4-0.5,0.8-1.1,1.6-1.3
		c0.5-0.4,0.6-1.1,0.6-2c0-0.4,0.2-0.8,0.5-1.1c0,0,0.7-0.3,0.7-0.3c0.2-0.1,0.3-0.1,0.3-0.1c-0.4-0.2-0.8-0.4-1.3-0.3
		c-0.1,0-0.1,0-0.2,0c-0.2-0.1-0.3-0.3-0.3-0.4c0,0,0,0,0-0.1c0-0.2,0.2-0.4,0.3-0.5l0.1-0.1c0,0,0.1-0.1,0.1-0.1l0.7-0.4
		c1-0.5,1.6-0.9,1.6-1.7c0,0,0,0,0,0c0,0,0-0.1,0-0.1c-0.1,0-0.2,0.1-0.4,0.2l-0.5,0.3c-0.5,0.3-1,0.4-1.5,0.5
		c-0.5,0.1-1,0.2-1.4,0.5c-0.1,0-0.1,0-0.2,0c-0.2,0-0.4-0.1-0.4-0.3c0-0.1,0-0.1,0-0.2c0-0.2,0.1-0.3,0.2-0.4
		c0.2-0.2,0.4-0.4,0.7-0.5c0.3-0.2,0.5-0.3,0.5-0.5l0.1-0.3c0.1-0.4,0.3-0.9,0.8-1.2c0.1,0,0.5-0.2,0.5-0.2c0.1,0,0.1-0.1,0.2-0.1
		c0,0,0,0-0.1,0c-0.8-0.3-1.6,0.4-2,0.8c0,0-0.1,0.1-0.1,0.1L33,28.1c-0.5,0.2-1.1,0.5-1.5,0.8c0,0-0.1,0.1-0.1,0.1
		c-0.2,0.1-0.3,0-0.5-0.1c-0.1-0.1-0.2-0.3-0.2-0.4c-0.1-1.3,0.9-2.2,1.7-2.9l0.2-0.2c0,0,0.1-0.1,0.1-0.1l0.5-0.3
		c0.4-0.2,0.9-0.6,1.5-0.3c0.5,0.2,0.9,0.4,1.3,0.3c0.3-0.1,0.4-0.3,0.6-0.6c0.2-0.3,0.4-0.6,0.7-0.8c0.4-0.1,0.6,0,0.9,0
		c0.1,0,0.3,0.1,0.3,0.1l0-0.1c0,0,0-0.1,0-0.1c0-0.2-0.2-0.4-0.4-0.8L38,22.6c0-0.1-0.1-0.1-0.1-0.2c0,0,0-0.1,0-0.1
		c0.1-0.2,0.1-0.5,0.1-0.8c0-0.6-0.3-1.2-0.7-1.6c-0.1-0.1-0.4-0.2-0.8-0.2c0,0.1,0.1,0.2,0.1,0.2l0.3,0.6c0,0.1,0,0.2,0,0.2
		c0,1.4-1.2,2-2.2,2.5l-0.9,0.5c-2,1-4.6,2.6-4.8,5.2c0,1.4,0.6,2.6,1.6,3.7c0,0,0,0,0.1,0.1l0.4,0.6c0.4,0.6,0.9,1.3,0.9,2.1
		c0,0.2,0,0.4-0.1,0.6c-0.4,0.8-1.3,0.8-1.6,0.8c-2-0.1-3-2.1-3.8-3.6l-0.1-0.2c0,0-0.2-0.4-0.2-0.4c-0.2-0.5-0.4-0.9-0.5-1.5
		c0-0.1,0-0.2,0.1-0.3c0.1-0.1,0.4-0.3,0.7,0c0,0,0.4,0.6,0.4,0.6c0,0.1,0.1,0.2,0.1,0.2c0-0.1,0.1-0.2,0.1-0.3
		c0-0.3-0.1-0.7-0.3-1.1l0-0.1c-0.1-0.2-0.3-0.4-0.5-0.6c-0.3-0.3-0.6-0.5-0.8-0.9c0,0,0-0.1,0-0.1c0,0,0,0,0-0.1
		c0-0.5,0.4-0.6,0.6-0.6c0,0,0.1,0,0.1,0c-0.1-0.5-0.2-1-0.2-1.6c0-0.3,0-0.5,0-0.8c0,0,0,0,0,0c0,0,0,0,0,0c0,0,0,0,0,0l0.4-0.5
		c0.1-0.1,0.1-0.1,0.1-0.1c-0.1-0.6-0.2-1.2-0.2-1.7c0-0.2,0-0.5,0-0.7c0,0,0.2-0.6,0.2-0.6c0.1-0.2,0.1-0.4,0.1-0.6
		c0-0.1,0-0.1,0-0.2c-0.3-0.2-0.4-0.5-0.4-0.7c0,0,0-0.2,0-0.2c0,0,0,0,0,0c0,0,0.1,0,0.1,0c-0.8,0-1.5-0.3-2.1-0.6l-0.7-0.3
		c-0.2,0-0.3,0-0.6,0.1l-0.4,0.1c0,0-0.4,0.1-0.4,0.1c-0.4,0.1-0.8,0.1-1,0.4C21,20.2,21,20.4,21,20.8V21c0,0,0,0.1,0,0.1
		c-0.1,0.2-0.2,0.3-0.3,0.3c-0.2,0.1-0.4,0-0.5-0.1l-0.1,0c-0.6-0.3-0.9-0.9-0.7-1.6c0-0.1-0.1-0.2-0.1-0.2
		c-0.1-0.1-0.4-0.2-0.7-0.1c-0.2,0.1-0.3,0.3-0.4,0.6c0,0,0,0.1-0.1,0.2c0,0,0,0.1,0,0.1c0,0.2,0.1,0.4,0.1,0.6
		c0.3,0.3,0.7,0.5,1.1,0.7l1,0.6c0.1,0,0.1,0.1,0.1,0.2c0,0.1,0.1,0.2,0.1,0.3c0,0.4-0.2,0.7-0.4,0.9c0,0,0,0,0,0
		c0.1,0.1,0.3,0.2,0.3,0.5c0,0,0,0.1,0,0.1c0,0.1-0.1,0.2-0.3,0.3c-0.6,0.2-1.2,0-1.7-0.3c0,0-0.3-0.4-0.3-0.4
		c-0.1-0.2-0.1-0.2-0.2-0.2c0,0-0.1,0.2-0.1,0.3l-0.1,0.3c0,0,0,0.2,0,0.2c0,0.3-0.1,0.6-0.3,0.8c-0.1,0.1-0.2,0.1-0.3,0.1l-0.3,0
		c-1.3-0.4-2.4-1.1-3.7-2c-0.6-0.4-1-1-1.4-1.5l-0.3-0.4c0,0,0-0.1-0.1-0.1l-0.1-0.4c-0.2-0.8-0.4-1.3-0.9-1.4
		C10.4,19.3,10.3,19.3,10.3,19.3L10.3,19.3L10.3,19.3z M11.1,23.8L11.1,23.8C11.1,23.8,11.1,23.8,11.1,23.8L11.1,23.8L11.1,23.8z
		 M8.6,23.3c0,0,0.1,0,0.1,0C8.7,23.3,8.7,23.3,8.6,23.3L8.6,23.3L8.6,23.3z M20,23.7c0.1-0.1,0.1-0.1,0.1-0.1l0,0
		C20.1,23.6,20,23.7,20,23.7L20,23.7L20,23.7z M26.2,28C26.2,28,26.2,28,26.2,28C26.2,28,26.2,27.9,26.2,28
		C26.2,27.9,26.2,28,26.2,28L26.2,28L26.2,28z M18.6,33.2C18.6,33.2,18.6,33.2,18.6,33.2C18.6,33.2,18.6,33.2,18.6,33.2L18.6,33.2
		L18.6,33.2L18.6,33.2z M18.6,33.3C18.6,33.2,18.6,33.2,18.6,33.3L18.6,33.3C18.6,33.2,18.6,33.3,18.6,33.3L18.6,33.3L18.6,33.3z
		 M11.9,35.3C11.9,35.3,11.9,35.3,11.9,35.3C11.9,35.3,11.9,35.3,11.9,35.3L11.9,35.3L11.9,35.3z M23.2,42c0,0,0,0.1,0,0.1
		C23.2,42.1,23.2,42,23.2,42C23.2,42,23.2,42,23.2,42L23.2,42L23.2,42z M23.6,45.3C23.6,45.3,23.7,45.3,23.6,45.3
		C23.6,45.3,23.6,45.3,23.6,45.3L23.6,45.3L23.6,45.3z"/>
	<path class="st2" d="M0.4,19.2c0-5.5,0-11.6,0-18.8h47.1c0,0,0,2.8,0,18.9c0,23.9-23.8,37.8-23.8,37.8S0.4,42.5,0.4,19.2L0.4,19.2
		L0.4,19.2z"/>
	<path d="M33.3,46.7L33.3,46.7L33.3,46.7L33.3,46.7L33.3,46.7L33.3,46.7L33.3,46.7L33.3,46.7L33.3,46.7L33.3,46.7L33.3,46.7
		L33.3,46.7L33.3,46.7L33.3,46.7c-0.1-0.1-0.3-0.4-0.4-0.5c-0.2-0.8,1.1-1.4,0.5-2.3c-0.2-0.5,0-1.2-0.6-1.6
		c-0.4-0.3-0.9-0.4-1.3-0.6c0-0.2,0.3-0.2,0.4-0.2c0.7-0.2,1.3,0.6,1.8,0c0.1-0.5-0.4-0.9-0.7-1.2c-1-0.7-2.6-0.4-3.3-1.5l0.1-0.1
		c1,0.2,2.1,0,2.8-0.6c0.4-0.6,0.9-1.1,1.5-1.3c0.7-0.5,0.8-1.4,0.8-2.3c0-0.3,0.2-0.6,0.4-0.9c0.4-0.3,1.3-0.2,1.1-0.9
		c-0.5-0.3-1.1-0.5-1.7-0.5c-0.3-0.2,0.1-0.4,0.2-0.5c1-0.6,2.5-1.1,2.5-2.5c-0.1-0.2-0.1-0.4-0.3-0.4c-0.4,0.1-0.7,0.5-1.1,0.6
		c-0.9,0.5-2.1,0.4-3,1c-0.2,0-0.1-0.2-0.1-0.3c0.3-0.5,1-0.5,1.3-1.1c0.2-0.5,0.3-1.1,0.8-1.3c0.3-0.2,0.8-0.2,1-0.6
		c0-0.2-0.3-0.3-0.5-0.4c-0.9-0.3-1.8,0.2-2.4,0.9c-0.6,0.3-1.4,0.5-1.9,1.1c-0.1,0-0.2,0-0.2-0.2c-0.1-1.2,1-2.1,1.8-2.9
		c0.6-0.2,1.1-0.9,1.8-0.6c0.5,0.2,1,0.5,1.5,0.3c0.7-0.2,0.8-1,1.4-1.4c0.5-0.2,1.1,0.5,1.4-0.1c0.2-0.7-0.4-1.1-0.7-1.6
		c0.4-1,0.1-2.1-0.7-2.7c-0.4-0.2-0.8-0.4-1.3-0.2c-0.3,0.4,0.3,0.7,0.3,1.1c0.2,1.8-1.8,2.2-2.9,2.9c-2.2,1.1-4.8,2.7-4.9,5.5
		c0,1.5,0.7,2.9,1.7,4c0.6,1,1.4,1.9,1.1,3.1c-0.2,0.5-0.8,0.6-1.3,0.6c-1.9-0.1-2.9-2.2-3.6-3.6c-0.2-0.6-0.6-1.1-0.6-1.7
		c0.1-0.1,0.2-0.1,0.3,0c0.3,0.3,0.3,1.1,0.9,1c0.5-0.6,0.1-1.4-0.1-2.1c-0.3-0.6-1.1-0.9-1.3-1.5c0-0.5,0.6-0.2,0.7-0.6
		c-0.2-0.8-0.3-1.6-0.2-2.4c0.1-0.3,0.6-0.3,0.6-0.7c-0.2-0.8-0.2-1.5-0.2-2.4c0.1-0.5,0.5-1,0.2-1.5c-0.6-0.2-0.1-0.8-0.6-1
		c-1.1,0-1.8-0.6-2.7-0.9c-0.5-0.1-0.8,0.2-1.2,0.2c-0.6,0.1-1.2,0.1-1.6,0.6c-0.3,0.3-0.2,0.7-0.2,1.2c-0.1,0.3-0.3,0-0.5,0
		c-0.4-0.2-0.6-0.7-0.5-1.2c0.1-0.2,0-0.4-0.2-0.6c-0.3-0.2-0.7-0.3-1-0.2c-0.4,0.2-0.6,0.6-0.7,1c0,0.3,0,0.7,0.2,0.9
		c0.6,0.6,1.5,0.9,2.2,1.4c0.1,0.4-0.1,0.7-0.4,1.1c0,0.3,0.5,0.3,0.4,0.6c-0.5,0.1-1,0-1.4-0.3c-0.2-0.2-0.3-0.7-0.7-0.7
		c-0.4,0-0.4,0.5-0.6,0.7c-0.1,0.3,0,0.7-0.3,1l-0.3,0c-1.3-0.4-2.4-1.1-3.5-1.9c-0.6-0.5-1.1-1.2-1.6-1.9c-0.2-0.8-0.4-1.9-1.4-2.1
		c-0.2,0-0.5,0.1-0.5,0.3l-0.1,0.3c-0.5,0-1-0.3-1.5-0.2c-0.2,0.2-0.5,0.3-0.6,0.6c0,0.6,0.6,0.3,0.7,0.8c0,0.4,0.3,0.7,0.5,1
		c-0.1,0.2-0.4,0.3-0.5,0.6l-0.3,0.8c0.1,0.2,0.3,0.6,0.6,0.6c0.4-0.2,0.8,0.1,1.3,0.1c0.3,0,0.7-0.2,0.8,0.2c0.2,0.4,0,0.7,0,1.1
		c-0.4,0.6-0.9,1-1.5,1.3C9,26.4,9,26.7,9.1,26.9c0.2,0.3,0.7,0.2,1.1,0.2c0.6,0,1.1-0.4,1.8-0.5c0.2,0.3,0.4,0.7,0.7,0.8
		c0.5,0.1,0.6-0.6,1.1-0.4c0.4,0.3,0.3,0.9,0.6,1.3c0,0.2-0.2,0.2-0.3,0.3c-0.5,0.2-1.3,0-1.7,0.4c-0.1,0.2,0.2,0.5,0.3,0.6
		c0.5,0.2,1.1,0.3,1.6,0.4c0.5,0.1,1-0.1,1.5,0l-0.2,0.2l-1.5,1c-0.7,0.3-1.4,0.4-2,0.8c-1,0.2-1.4-1-2.2-0.9
		c-0.4,0-0.6,0.1-0.9,0.3c-0.2,0.2-0.2,0.6-0.2,0.8c0.1,0.3,0.5,0.2,0.5,0.5c0,0.9-0.8,1.5-0.8,2.4c0,0.2,0,0.5,0.3,0.6
		c0.2,0.1,0.4,0,0.5-0.1c0.2-0.2,0.2-0.5,0.5-0.5c0.5,0.1,1.1,0.1,1.4-0.3c0.2,0,0.4,0.2,0.4,0.3c0,0.2,0,0.5,0.2,0.6
		c0.8,0,1.1-0.8,1.5-1.3c0.3-0.1,0.7-0.3,1.1-0.1c0.1,0.5-0.3,0.9-0.4,1.4c0,0.1,0.2,0.2,0.3,0.3c0.9-0.1,1.4-1,2-1.7
		c0.1-0.2,0.2-0.4,0.5-0.4c0.7,0.2,0.9-0.6,1.3-1h0.2c0.1,0.2-0.1,0.4,0,0.6c0.3,0.3,0.6,0,1-0.1l0.6-0.4c0.8,0.2,1.6,0.4,2.4,0.6
		c0.6,0.2,0,0.9,0.4,1.3c-0.1,0.2-0.4,0.3-0.6,0.3c-1.4,0.2-2.9-0.2-4,0.8l-0.6,0.6c-1,0-1.5,0.9-2.5,1.1c-0.6,0.4-1.6-0.2-2,0.5
		c0.3,0.6,1.1,0.9,1.8,1.1c0.3,0.1,0.7,0,0.9,0.3c0,0.3,0.1,0.7,0.5,0.8c0.3,0.1,0.4-0.3,0.7-0.1c0.3,0.5,0.8,0.7,1.1,1.1
		c-0.2,0.4-0.7,0.2-1.1,0.2l-0.1,0c-0.6,0.1-1.3,0.3-1.7-0.2c-0.6-0.4-1.1-1.1-1.9-1.1c-0.5,0.1-1,0.3-1.1,0.8
		c-0.1,0.3,0.2,0.4,0.4,0.6c-0.6,0.4-1.1,0.9-1,1.7c0.1,0.2,0.1,0.3,0.3,0.3c0.3,0,0.5-0.2,0.8-0.1c0.1,0.5-0.1,1.2,0.5,1.4
		c0.4-0.1,0.7-0.5,1.2-0.2c0.5,0.2,0.8-0.2,1.2-0.3c0.6,0,0.9,0.6,1.1,1.1c0.4,0.3,1,0.8,1.5,0.5c0.4-0.5-0.3-1.2,0.4-1.5
		c0.4-0.1,0.8,0,1.2-0.1c0.7,0.1,1.5,0.1,1.9-0.6l0.6-1.1l0.1-0.6c0.4-0.1,1,0.5,1.2-0.1c-0.2-0.6-0.3-1.2-0.2-1.9
		c0.1-0.5,0.3-0.9,0.6-1.2l0.2,0.1c0.2,0.8,0.2,1.5,0.6,2.3c-0.1,0.7-0.4,1.3-0.5,2c-0.2,0.7-0.7,1.3-1.4,1.7
		c-0.2,0.1-0.3,0.3-0.2,0.6c0.2,0.3,0.6,0.2,1,0.2c1-0.1,1.9-0.6,2.5-1.3c0.7,0.2,1-0.6,1.6-0.3c0.6,0.5,1.8-0.4,2.1,0.7
		c-0.1,0.5,0.4,1.4-0.4,1.6c-0.8-0.1-1.7-1.2-2.5-0.2c-0.2,0.2-0.3,0.4-0.2,0.7c0.1,0.2,0.3,0.5,0.1,0.7c-0.2,0.4-0.5,0.8-0.3,1.3
		c0.2,0.3,0.5,0.3,0.7,0.2c0.5-0.2,0.9,0.2,1.4,0.2c0.4,0.3,0.8,0.7,1.3,0.6c0.2-0.1,0.2-0.4,0.3-0.6c0.3-0.3,1.1-0.2,1.1-0.8
		c0.1-0.5,0.5-0.9,0.9-1.1C32.2,47.4,33.1,47.1,33.3,46.7L33.3,46.7L33.3,46.7z"/>
	<path class="st3" d="M33.3,46.7L33.3,46.7L33.3,46.7L33.3,46.7L33.3,46.7L33.3,46.7L33.3,46.7L33.3,46.7L33.3,46.7L33.3,46.7
		L33.3,46.7L33.3,46.7L33.3,46.7L33.3,46.7c-0.1-0.1-0.3-0.4-0.4-0.5c-0.2-0.8,1.1-1.4,0.5-2.3c-0.2-0.5,0-1.2-0.6-1.6
		c-0.4-0.3-0.9-0.4-1.3-0.6c0-0.2,0.3-0.2,0.4-0.2c0.7-0.2,1.3,0.6,1.8,0c0.1-0.5-0.4-0.9-0.7-1.2c-1-0.7-2.6-0.4-3.3-1.5l0.1-0.1
		c1,0.2,2.1,0,2.8-0.6c0.4-0.6,0.9-1.1,1.5-1.3c0.7-0.5,0.8-1.4,0.8-2.3c0-0.3,0.2-0.6,0.4-0.9c0.4-0.3,1.3-0.2,1.1-0.9
		c-0.5-0.3-1.1-0.5-1.7-0.5c-0.3-0.2,0.1-0.4,0.2-0.5c1-0.6,2.5-1.1,2.5-2.5c-0.1-0.2-0.1-0.4-0.3-0.4c-0.4,0.1-0.7,0.5-1.1,0.6
		c-0.9,0.5-2.1,0.4-3,1c-0.2,0-0.1-0.2-0.1-0.3c0.3-0.5,1-0.5,1.3-1.1c0.2-0.5,0.3-1.1,0.8-1.3c0.3-0.2,0.8-0.2,1-0.6
		c0-0.2-0.3-0.3-0.5-0.4c-0.9-0.3-1.8,0.2-2.4,0.9c-0.6,0.3-1.4,0.5-1.9,1.1c-0.1,0-0.2,0-0.2-0.2c-0.1-1.2,1-2.1,1.8-2.9
		c0.6-0.2,1.1-0.9,1.8-0.6c0.5,0.2,1,0.5,1.5,0.3c0.7-0.2,0.8-1,1.4-1.4c0.5-0.2,1.1,0.5,1.4-0.1c0.2-0.7-0.4-1.1-0.7-1.6
		c0.4-1,0.1-2.1-0.7-2.7c-0.4-0.2-0.8-0.4-1.3-0.2c-0.3,0.4,0.3,0.7,0.3,1.1c0.2,1.8-1.8,2.2-2.9,2.9c-2.2,1.1-4.8,2.7-4.9,5.5
		c0,1.5,0.7,2.9,1.7,4c0.6,1,1.4,1.9,1.1,3.1c-0.2,0.5-0.8,0.6-1.3,0.6c-1.9-0.1-2.9-2.2-3.6-3.6c-0.2-0.6-0.6-1.1-0.6-1.7
		c0.1-0.1,0.2-0.1,0.3,0c0.3,0.3,0.3,1.1,0.9,1c0.5-0.6,0.1-1.4-0.1-2.1c-0.3-0.6-1.1-0.9-1.3-1.5c0-0.5,0.6-0.2,0.7-0.6
		c-0.2-0.8-0.3-1.6-0.2-2.4c0.1-0.3,0.6-0.3,0.6-0.7c-0.2-0.8-0.2-1.5-0.2-2.4c0.1-0.5,0.5-1,0.2-1.5c-0.6-0.2-0.1-0.8-0.6-1
		c-1.1,0-1.8-0.6-2.7-0.9c-0.5-0.1-0.8,0.2-1.2,0.2c-0.6,0.1-1.2,0.1-1.6,0.6c-0.3,0.3-0.2,0.7-0.2,1.2c-0.1,0.3-0.3,0-0.5,0
		c-0.4-0.2-0.6-0.7-0.5-1.2c0.1-0.2,0-0.4-0.2-0.6c-0.3-0.2-0.7-0.3-1-0.2c-0.4,0.2-0.6,0.6-0.7,1c0,0.3,0,0.7,0.2,0.9
		c0.6,0.6,1.5,0.9,2.2,1.4c0.1,0.4-0.1,0.7-0.4,1.1c0,0.3,0.5,0.3,0.4,0.6c-0.5,0.1-1,0-1.4-0.3c-0.2-0.2-0.3-0.7-0.7-0.7
		c-0.4,0-0.4,0.5-0.6,0.7c-0.1,0.3,0,0.7-0.3,1l-0.3,0c-1.3-0.4-2.4-1.1-3.5-1.9c-0.6-0.5-1.1-1.2-1.6-1.9c-0.2-0.8-0.4-1.9-1.4-2.1
		c-0.2,0-0.5,0.1-0.5,0.3l-0.1,0.3c-0.5,0-1-0.3-1.5-0.2c-0.2,0.2-0.5,0.3-0.6,0.6c0,0.6,0.6,0.3,0.7,0.8c0,0.4,0.3,0.7,0.5,1
		c-0.1,0.2-0.4,0.3-0.5,0.6l-0.3,0.8c0.1,0.2,0.3,0.6,0.6,0.6c0.4-0.2,0.8,0.1,1.3,0.1c0.3,0,0.7-0.2,0.8,0.2c0.2,0.4,0,0.7,0,1.1
		c-0.4,0.6-0.9,1-1.5,1.3C9,26.4,9,26.7,9.1,26.9c0.2,0.3,0.7,0.2,1.1,0.2c0.6,0,1.1-0.4,1.8-0.5c0.2,0.3,0.4,0.7,0.7,0.8
		c0.5,0.1,0.6-0.6,1.1-0.4c0.4,0.3,0.3,0.9,0.6,1.3c0,0.2-0.2,0.2-0.3,0.3c-0.5,0.2-1.3,0-1.7,0.4c-0.1,0.2,0.2,0.5,0.3,0.6
		c0.5,0.2,1.1,0.3,1.6,0.4c0.5,0.1,1-0.1,1.5,0l-0.2,0.2l-1.5,1c-0.7,0.3-1.4,0.4-2,0.8c-1,0.2-1.4-1-2.2-0.9
		c-0.4,0-0.6,0.1-0.9,0.3c-0.2,0.2-0.2,0.6-0.2,0.8c0.1,0.3,0.5,0.2,0.5,0.5c0,0.9-0.8,1.5-0.8,2.4c0,0.2,0,0.5,0.3,0.6
		c0.2,0.1,0.4,0,0.5-0.1c0.2-0.2,0.2-0.5,0.5-0.5c0.5,0.1,1.1,0.1,1.4-0.3c0.2,0,0.4,0.2,0.4,0.3c0,0.2,0,0.5,0.2,0.6
		c0.8,0,1.1-0.8,1.5-1.3c0.3-0.1,0.7-0.3,1.1-0.1c0.1,0.5-0.3,0.9-0.4,1.4c0,0.1,0.2,0.2,0.3,0.3c0.9-0.1,1.4-1,2-1.7
		c0.1-0.2,0.2-0.4,0.5-0.4c0.7,0.2,0.9-0.6,1.3-1h0.2c0.1,0.2-0.1,0.4,0,0.6c0.3,0.3,0.6,0,1-0.1l0.6-0.4c0.8,0.2,1.6,0.4,2.4,0.6
		c0.6,0.2,0,0.9,0.4,1.3c-0.1,0.2-0.4,0.3-0.6,0.3c-1.4,0.2-2.9-0.2-4,0.8l-0.6,0.6c-1,0-1.5,0.9-2.5,1.1c-0.6,0.4-1.6-0.2-2,0.5
		c0.3,0.6,1.1,0.9,1.8,1.1c0.3,0.1,0.7,0,0.9,0.3c0,0.3,0.1,0.7,0.5,0.8c0.3,0.1,0.4-0.3,0.7-0.1c0.3,0.5,0.8,0.7,1.1,1.1
		c-0.2,0.4-0.7,0.2-1.1,0.2l-0.1,0c-0.6,0.1-1.3,0.3-1.7-0.2c-0.6-0.4-1.1-1.1-1.9-1.1c-0.5,0.1-1,0.3-1.1,0.8
		c-0.1,0.3,0.2,0.4,0.4,0.6c-0.6,0.4-1.1,0.9-1,1.7c0.1,0.2,0.1,0.3,0.3,0.3c0.3,0,0.5-0.2,0.8-0.1c0.1,0.5-0.1,1.2,0.5,1.4
		c0.4-0.1,0.7-0.5,1.2-0.2c0.5,0.2,0.8-0.2,1.2-0.3c0.6,0,0.9,0.6,1.1,1.1c0.4,0.3,1,0.8,1.5,0.5c0.4-0.5-0.3-1.2,0.4-1.5
		c0.4-0.1,0.8,0,1.2-0.1c0.7,0.1,1.5,0.1,1.9-0.6l0.6-1.1l0.1-0.6c0.4-0.1,1,0.5,1.2-0.1c-0.2-0.6-0.3-1.2-0.2-1.9
		c0.1-0.5,0.3-0.9,0.6-1.2l0.2,0.1c0.2,0.8,0.2,1.5,0.6,2.3c-0.1,0.7-0.4,1.3-0.5,2c-0.2,0.7-0.7,1.3-1.4,1.7
		c-0.2,0.1-0.3,0.3-0.2,0.6c0.2,0.3,0.6,0.2,1,0.2c1-0.1,1.9-0.6,2.5-1.3c0.7,0.2,1-0.6,1.6-0.3c0.6,0.5,1.8-0.4,2.1,0.7
		c-0.1,0.5,0.4,1.4-0.4,1.6c-0.8-0.1-1.7-1.2-2.5-0.2c-0.2,0.2-0.3,0.4-0.2,0.7c0.1,0.2,0.3,0.5,0.1,0.7c-0.2,0.4-0.5,0.8-0.3,1.3
		c0.2,0.3,0.5,0.3,0.7,0.2c0.5-0.2,0.9,0.2,1.4,0.2c0.4,0.3,0.8,0.7,1.3,0.6c0.2-0.1,0.2-0.4,0.3-0.6c0.3-0.3,1.1-0.2,1.1-0.8
		c0.1-0.5,0.5-0.9,0.9-1.1C32.2,47.4,33.1,47.1,33.3,46.7L33.3,46.7L33.3,46.7z"/>
	<path class="st1" d="M19.2,19.7c-0.1,0.4-0.1,0.8,0.2,1.1c0.6,0.7,1.6,0.9,2,1.8l-0.2,0c-0.8-0.5-1.5-1.1-2.3-1.4
		c-0.3-0.2-0.5-0.6-0.5-1c0.1-0.3,0.2-0.6,0.5-0.6C19,19.5,19.2,19.6,19.2,19.7L19.2,19.7L19.2,19.7L19.2,19.7z"/>
	<path class="st1" d="M25.8,20.5c0.1,0.2,0,0.6,0.4,0.6c0.1,0,0.2,0.1,0.2,0.2c0,0.3-0.1,0.6-0.2,1c-0.1,0.2-0.4,0.3-0.4,0.7
		c0,0.2,0.3,0.3,0.3,0.5l0,1.2c-0.8,0.2-0.4,1.2-0.5,1.7c-0.1,0.4,0,0.8,0,1.2c-0.2,0.1-0.5,0.1-0.6,0.3c0,0.5,0.2,0.8,0.4,1.2
		c0.3,0.4,0.9,0.5,0.9,1c-0.4,0-0.8-0.2-1.1-0.4c-0.6-0.3-1-0.9-1.3-1.5c-0.1-0.1-0.2-0.1-0.3,0c-0.1,0.4-0.1,0.9-0.4,1.1
		c-0.4-0.2-0.4-1.2-1-0.9c-0.2,1.3-1.1,2.4-1.9,3.5c-0.2,0.1-0.2,0.3-0.5,0.3c0.4-1,0.7-2.3,0.3-3.4c-0.1-0.2-0.3-0.2-0.5-0.1
		c-0.2,0.1-0.3,0.4-0.6,0.3c-0.2-0.3,0.2-0.9-0.3-1.1c-0.4,0.1-0.7,0.5-1.1,0.6c-0.9,0.6-2,0.8-3.1,0.8c-0.2,0-0.4-0.1-0.5-0.2
		c0.3-0.3,0.7-0.3,1-0.5c1.3-0.8,2.2-2.2,3.2-3.2c-0.1-0.5-0.5-1-0.1-1.4c0.3,0,0.5,0.4,0.7,0.5c0.5,0.2,1.1,0.4,1.5,0.2
		c0.4-0.1,0.7-0.5,0.8-0.9c0-0.2-0.1-0.3-0.2-0.3c-0.1,0-0.3,0-0.3-0.1c0-0.2,0.2-0.4,0.3-0.4c0.5,0,1.1,1.1,1.4,0.2
		c0.2-0.7-0.5-1.3-1-1.8c-0.1-0.2-0.2-0.3-0.2-0.5c0.4-0.2-0.1-0.6,0.2-0.9c0.5-0.4,1.3-0.2,1.9-0.6C24.2,19.5,24.9,20.2,25.8,20.5
		L25.8,20.5L25.8,20.5L25.8,20.5z"/>
	<path class="st1" d="M11.1,20.2c0,0.2,0.1,0.3,0,0.4c-0.1,0.1-0.3,0-0.4-0.1c-0.2-0.2-0.3-0.4-0.2-0.6
		C10.6,19.3,11.1,19.9,11.1,20.2L11.1,20.2L11.1,20.2L11.1,20.2z"/>
	<path class="st1" d="M10.7,21.1c0.8,0.4,1.4,1.2,2,1.9c1.3,1.1,2.7,2.1,4.3,2.5c0.1,0.2-0.1,0.5-0.3,0.6c-0.5,0.6-1,1.2-1.5,1.7
		c-0.1,0-0.2,0-0.3,0c-0.6-0.5-0.5-1.6-1.4-1.6c-0.3,0-0.6,0.4-0.9,0.2c-0.3-0.2,0.1-0.8-0.4-0.9c-0.5,0.2-1,0.8-1.6,0.7
		c0.4-0.7,1.1-1.4,0.7-2.3c-0.1-0.4-0.3-0.8-0.7-1c-0.4,0-0.6,0.4-1,0.2c-0.2-0.3-0.8-0.2-0.6-0.6c0.2-0.4,1.1-0.4,0.8-1.1
		c-0.2-0.3-0.8-0.2-0.9-0.6c0.1-0.3-0.2-0.6,0-0.8C9.8,19.9,10.3,20.7,10.7,21.1L10.7,21.1L10.7,21.1L10.7,21.1z"/>
	<path class="st1" d="M37.7,21.5c0.1,0.5-0.4,0.8-0.2,1.3c0.1,0.2,0.5,0.3,0.5,0.6c-1.2,0-1.4,1.6-2.6,1.5c-0.5-0.1-0.9-0.6-1.4-0.4
		c-1.5,0.7-3.1,1.8-3.5,3.5c-0.2,0.7-0.1,1.4,0.4,2c0.1,0.1,0.3,0.1,0.4,0c0.3-0.6,0.6-1.3,1.3-1.4c0.4-0.2,0.9-0.3,1.3-0.6
		c0.1,0,0.2-0.1,0.2,0.1c-0.2,0.5-0.4,1.2-1,1.4c-0.4,0.4-0.8,0.8-0.9,1.4c0,0.3-0.1,0.6,0.2,0.9c0.2,0.2,0.5-0.1,0.6-0.2
		c0.8-1,2-1.1,3.2-1.2c0.1,0.1-0.1,0.3-0.2,0.3c-1,0.3-2,1.2-2.3,2.2c0,0.2,0.1,0.3,0.2,0.3c0.5-0.1,0.9-0.4,1.4-0.3
		c0.1,0.3-0.4,0.3-0.5,0.6c-1,0.8,0,2.7-1.6,3c-0.5,0.1-0.4,0.7-0.7,1c-0.5,0.7-1.4,0.9-2.3,0.8c-0.6,0.1-1.1-0.8-1.7-0.2
		c0.1,0.6,0.6,1,0.9,1.5c0.8,0.7,1.9,0.8,2.8,1.1c0.1,0,0.2,0.1,0.3,0.2c0,0.2-0.3,0.2-0.5,0.1c-0.6,0.1-1.3,0.2-1.9-0.1
		c-0.1,0-0.2,0.1-0.2,0.2c0.1,0.7,0.9,0.9,1.3,1.3c0.5,0.2,1.1,0.2,1.3,0.7v0.7c0.2,0.3,0.3,0.8,0.2,1.2c-0.4,0.5-0.7,1.1-0.4,1.8
		c-0.2,0.2-0.5,0-0.6,0.1c-0.2,0.5-0.8,0.5-1,1c0,0.4-0.2,0.7-0.6,0.8c-0.3,0-0.5,0.1-0.8,0.1C29,48.4,29.3,48.1,29,48
		c-0.4-0.1-0.6,0.6-1.1,0.3c-0.2-0.1-0.4-0.2-0.5-0.4c0-0.3,0.2-0.4,0.4-0.5c1-0.1,2.3-0.3,2.7-1.4c0.1-0.5-0.2-1-0.1-1.4
		c-0.2-0.6-0.7-1-1.3-1c-0.6-0.2-1.2,0.1-1.6-0.3c-0.2-0.1-0.3-0.2-0.5-0.2c-0.2,0-0.2,0.2-0.4,0.2c-0.2-0.2-0.4-0.4-0.6-0.2
		c-0.4,0.7-0.9,1.5-1.8,1.7c-0.1-0.2,0.1-0.5,0.2-0.7c0.3-0.6,0.5-1.2,0.6-1.9c0.2-0.3,0.5-0.8,0.3-1.2c-0.4-1.1-0.8-2.2-0.5-3.4
		c0.2-1.4-0.1-2.7-1.2-3.7c-0.6-0.3-1.1-0.9-1.8-1c-0.5-0.2-1.1,0-1.4-0.4c0.1-0.5,0.6-0.8,0.8-1.2l0.8-1.2c0.3-0.1,0.2,0.4,0.6,0.4
		c0.6,0,0.6-1.1,1.3-0.7c0.3,0.4,0.8,0.6,1.1,0.9c0.4,1.8,1.1,3.4,2.3,4.9c0.9,1.2,2.3,2.1,3.8,1.7c0.4-0.3,1-0.7,1.1-1.3
		c0.4-2.8-3.2-4.2-2.9-7c0.2-2.6,2.9-4,5.1-5.1c1.2-0.6,2.7-1.4,2.7-3c0-0.2,0-0.2,0.1-0.4C37.7,20.6,37.7,21.1,37.7,21.5L37.7,21.5
		L37.7,21.5L37.7,21.5z"/>
	<path class="st1" d="M18.6,29.8c0.3,0.1,0.7-0.4,0.9,0.1c-0.1,0.6-0.1,1.4-0.4,1.9c-0.3,0.3-0.8,0.1-1.1,0.2
		c-0.5,0.1-0.6,1.3-1.1,0.5c-0.2-0.1-0.4,0.2-0.5,0.3c-0.2,0.6-0.5,1.2-0.9,1.6c-0.1,0.1-0.2,0.1-0.3,0c-0.1-0.4,0.2-1.1-0.3-1.2
		c-0.2,0-0.5,0.1-0.7,0.2c-0.5,0-1.1,0-1.3,0.4c-0.1,0.2-0.1,0.5-0.4,0.6c-0.3-0.1-0.6-0.2-0.8-0.6c-0.1-0.1-0.3-0.2-0.5-0.1
		c-0.2,0.2-0.3,0.7-0.7,0.7c-0.3,0-0.6-0.1-0.8-0.2c0.1-0.7,0.9-0.8,1.4-1.1c1-0.2,1.7-0.8,2.7-1c1.5-0.6,2.8-1.7,4-2.9
		c0.2-0.1,0.4-0.2,0.6-0.2C18.3,29.4,18.3,29.7,18.6,29.8L18.6,29.8L18.6,29.8L18.6,29.8z"/>
	<path class="st1" d="M11.1,32.6c-0.3,0.2-0.7,0.3-1.1,0.2c-0.2-0.2-0.1-0.5-0.1-0.8c0.1-0.2,0.4-0.2,0.5-0.1
		C10.7,32.2,11.1,32.3,11.1,32.6L11.1,32.6L11.1,32.6L11.1,32.6z"/>
	<path class="st1" d="M24.3,36.6c0,0.5-0.1,0.8-0.3,1.2c-0.5,0.5-1,1.1-1.2,1.9c0,0.5-0.1,1-0.1,1.5c-0.2,0.1-0.3-0.1-0.4-0.2
		c-0.2-0.4-0.2-1.2-0.8-1.1c-0.3,0.4-0.7,0.9-0.5,1.4c0.3,0.4,0.8,0.7,0.5,1.2c-0.5,0.2-0.3,1-1,1c-0.9,0.1-1.9-0.3-2.6,0.4
		c-0.2,0.2-0.4,0.5-0.5,0.8c-0.4,0.1-0.3-0.5-0.5-0.8c-0.2-0.2-0.5-0.1-0.7-0.2c-0.3-0.1-0.7-0.5-1.1-0.2c-0.3,0.2-0.7,0.6-1.1,0.3
		l-0.6-0.2c0-0.2,0.2-0.4,0-0.6l-1.1-0.5c-0.1-0.1,0-0.2,0.1-0.3c0.9-0.6,1.9,0.1,3-0.1c0.7-0.2,1.3-0.1,2.1-0.1
		c0.4,0,0.9,0.1,1.1-0.2c0.2-0.2,0.2-0.5,0.1-0.8c-0.3-0.7-1.3-0.8-1.4-1.6c-0.1-0.2-0.2-0.3-0.3-0.4c-0.2-0.1-0.4,0.2-0.6,0.1
		c-0.1-0.2-0.1-0.5-0.4-0.6c-0.5,0-1,0.2-1.4-0.1c0.1-0.2,0.4-0.2,0.6-0.3c0.6-0.1,1.2-0.6,1.8-0.8l0.9-0.1c0.9-1.4,2.7-1.4,4.3-1.4
		l1.5-0.5C24.1,35.6,24.2,36.2,24.3,36.6L24.3,36.6L24.3,36.6L24.3,36.6z"/>
	<path class="st1" d="M14.4,41.6c-0.3,0.2-0.6,0.1-1,0c-0.2-0.2-0.2-0.5-0.2-0.7C13.7,40.7,14.2,41.2,14.4,41.6L14.4,41.6L14.4,41.6
		L14.4,41.6z"/>
	<path class="st1" d="M28.2,46.6c0,0.2-0.2,0.1-0.2,0.1c-0.1,0-0.1-0.1-0.2-0.1C27.8,46.3,28.2,46.5,28.2,46.6L28.2,46.6L28.2,46.6
		L28.2,46.6z"/>
	<path d="M24.2,21c0.1,0.2-0.1,0.4-0.3,0.4c-0.4,0-0.7,0-1-0.3c-0.3-0.2-0.1-0.6-0.1-0.9c0.1-0.2,0.3-0.2,0.5-0.1
		C23.7,20.4,24,20.7,24.2,21L24.2,21L24.2,21L24.2,21z"/>
	<path d="M26,21.5c0,0.2-0.1,0.5-0.3,0.7c-0.2,0.1-0.3,0-0.3-0.1c-0.1-0.3,0.1-0.5,0.2-0.7C25.7,21.3,25.9,21.3,26,21.5L26,21.5
		L26,21.5L26,21.5z"/>
	<path d="M24,23.7l0,0.5c-0.5,0.6-0.5,1.5-1.3,1.8c-0.2,0-0.4-0.1-0.4-0.3c0-0.3-0.1-0.8,0-1.1c0.3-0.2,0.4,0.5,0.7,0.2
		c0.1-0.5,0.5-0.9,0.8-1.3C23.8,23.5,23.9,23.6,24,23.7L24,23.7L24,23.7z"/>
	<polygon points="0.4,14.1 47.5,14.1 47.5,17.3 0.4,17.3 	"/>
	<polygon class="st3" points="0.4,14.1 47.5,14.1 47.5,17.3 0.4,17.3 	"/>
	<polygon class="st1" points="35.4,14.7 40.8,14.7 40.8,16.8 35.4,16.8 	"/>
	<polygon class="st1" points="23.8,14.7 29.2,14.7 29.2,16.8 23.8,16.8 	"/>
	<polygon class="st1" points="12.1,14.7 17.5,14.7 17.5,16.8 12.1,16.8 	"/>
	<polygon class="st1" points="1,14.7 5.9,14.7 5.9,16.8 1,16.8 	"/>
	<path d="M45.4,2.5c0.4,0.5,0.1,1.2,0.2,1.7C46,4.6,46.9,4.2,47,5c0.1,0.3-0.1,0.5-0.3,0.7c-0.3,0.3-0.8,0-1.1,0.3c-0.1,1,0,2,0,3.1
		c0.3,0.2,0.7,0.2,1,0.3c0.2,0.2,0.3,0.4,0.3,0.6c0,0.3-0.2,0.4-0.5,0.5c-0.3,0.1-0.7,0-0.8,0.4c-0.1,0.5,0,1.1-0.1,1.6
		c-0.4,0.2-0.8,0.2-1.2,0.2l-3.8,0c-0.4,0.2-0.7,0.5-1.2,0.4c-0.8-0.5-1.9-0.4-2.8-0.4l-2.8,0c-0.5-0.4-0.1-1.2-0.3-1.8
		c-0.2-0.3-0.7-0.2-1-0.4c-0.3-0.1-0.4-0.4-0.3-0.7c0-0.3,0.3-0.5,0.6-0.5c0.2-0.1,0.6,0.1,0.7-0.3c0-1-0.1-1.9,0-2.9
		c-0.1-0.6-0.8-0.2-1.2-0.4c-0.3-0.2-0.3-0.5-0.3-0.9c0.3-0.5,0.9-0.4,1.4-0.6l0.1-0.2l0.1-1.7l0.2-0.1l4.4,0.1c0.5,0,1,0.2,1.4,0.4
		c0.9-0.7,2.3-0.4,3.4-0.5C43.8,2.5,44.6,2.3,45.4,2.5L45.4,2.5L45.4,2.5L45.4,2.5z"/>
	<path class="st4" d="M45.4,2.5c0.4,0.5,0.1,1.2,0.2,1.7C46,4.6,46.9,4.2,47,5c0.1,0.3-0.1,0.5-0.3,0.7c-0.3,0.3-0.8,0-1.1,0.3
		c-0.1,1,0,2,0,3.1c0.3,0.2,0.7,0.2,1,0.3c0.2,0.2,0.3,0.4,0.3,0.6c0,0.3-0.2,0.4-0.5,0.5c-0.3,0.1-0.7,0-0.8,0.4
		c-0.1,0.5,0,1.1-0.1,1.6c-0.4,0.2-0.8,0.2-1.2,0.2l-3.8,0c-0.4,0.2-0.7,0.5-1.2,0.4c-0.8-0.5-1.9-0.4-2.8-0.4l-2.8,0
		c-0.5-0.4-0.1-1.2-0.3-1.8c-0.2-0.3-0.7-0.2-1-0.4c-0.3-0.1-0.4-0.4-0.3-0.7c0-0.3,0.3-0.5,0.6-0.5c0.2-0.1,0.6,0.1,0.7-0.3
		c0-1-0.1-1.9,0-2.9c-0.1-0.6-0.8-0.2-1.2-0.4c-0.3-0.2-0.3-0.5-0.3-0.9c0.3-0.5,0.9-0.4,1.4-0.6l0.1-0.2l0.1-1.7l0.2-0.1l4.4,0.1
		c0.5,0,1,0.2,1.4,0.4c0.9-0.7,2.3-0.4,3.4-0.5C43.8,2.5,44.6,2.3,45.4,2.5L45.4,2.5L45.4,2.5L45.4,2.5z"/>
	<path d="M29.7,2.4c0.2,0,0.4,0.1,0.5,0.2c0.2,0.6,0,1.1,0.1,1.7c0.4,0.2,1,0,1.2,0.5c0.1,0.2,0.1,0.6-0.1,0.8
		c-0.3,0.4-1.1,0-1.3,0.5c-0.1,1.2-0.1,1.9,0,3c0.3,0.3,0.9,0.1,1.2,0.5c0.2,0.2,0.2,0.4,0.2,0.7c-0.3,0.4-0.8,0.4-1.2,0.5
		c-0.2,0.2,0,0.4-0.1,0.7c-0.2,0.4,0.2,0.9-0.3,1.2c-1.3,0.2-2.6-0.1-3.9,0l-1.3,0c-0.4,0.2-0.8,0.6-1.2,0.3l-0.8-0.4
		c-1,0-1.9,0-2.8,0c-0.6,0-1.5,0.3-1.9-0.4c0-0.5,0.1-1,0-1.5c-0.5-0.2-1.3,0.1-1.5-0.5c-0.1-0.2,0-0.4,0.1-0.6
		c0.4-0.5,1.2-0.1,1.5-0.5l0-1.4c0.1-0.7,0-1.2,0-1.9c-0.5-0.2-1.3,0.1-1.4-0.7c-0.1-0.4,0.2-0.7,0.5-0.8c0.3-0.1,0.8,0.1,0.9-0.2
		l0.1-1.5c0.4-0.6,1.3-0.3,1.9-0.4l2.9,0c0.4,0.1,0.9,0.5,1.3,0.2C26,2,27.9,2.6,29.7,2.4L29.7,2.4L29.7,2.4L29.7,2.4z"/>
	<path class="st4" d="M29.7,2.4c0.2,0,0.4,0.1,0.5,0.2c0.2,0.6,0,1.1,0.1,1.7c0.4,0.2,1,0,1.2,0.5c0.1,0.2,0.1,0.6-0.1,0.8
		c-0.3,0.4-1.1,0-1.3,0.5c-0.1,1.2-0.1,1.9,0,3c0.3,0.3,0.9,0.1,1.2,0.5c0.2,0.2,0.2,0.4,0.2,0.7c-0.3,0.4-0.8,0.4-1.2,0.5
		c-0.2,0.2,0,0.4-0.1,0.7c-0.2,0.4,0.2,0.9-0.3,1.2c-1.3,0.2-2.6-0.1-3.9,0l-1.3,0c-0.4,0.2-0.8,0.6-1.2,0.3l-0.8-0.4
		c-1,0-1.9,0-2.8,0c-0.6,0-1.5,0.3-1.9-0.4c0-0.5,0.1-1,0-1.5c-0.5-0.2-1.3,0.1-1.5-0.5c-0.1-0.2,0-0.4,0.1-0.6
		c0.4-0.5,1.2-0.1,1.5-0.5l0-1.4c0.1-0.7,0-1.2,0-1.9c-0.5-0.2-1.3,0.1-1.4-0.7c-0.1-0.4,0.2-0.7,0.5-0.8c0.3-0.1,0.8,0.1,0.9-0.2
		l0.1-1.5c0.4-0.6,1.3-0.3,1.9-0.4l2.9,0c0.4,0.1,0.9,0.5,1.3,0.2C26,2,27.9,2.6,29.7,2.4L29.7,2.4L29.7,2.4L29.7,2.4z M8.2,2.7
		c1.6-0.7,3.3-0.2,5-0.3c0.4,0.1,1.1-0.2,1.4,0.3c0,0.5,0,1,0,1.5c0.2,0.4,0.7,0.1,1,0.3c0.2,0.1,0.4,0.2,0.4,0.4
		c0.1,0.2,0,0.5-0.1,0.7c-0.3,0.4-0.7,0.2-1.2,0.3l-0.1,0.2c0.1,0.9-0.2,1.8,0,2.6c0,0.2-0.1,0.4,0.1,0.6c0.4,0,0.9,0,1.2,0.3
		c0.1,0.2,0.1,0.5,0.1,0.8c-0.2,1-1.7-0.1-1.5,1c0,0.4,0.1,1-0.1,1.4c-1.7,0-3.5-0.1-5.1,0c-0.3,0.3-0.7,0.4-1.1,0.5
		c-0.4-0.1-0.6-0.3-0.9-0.5c-1.6-0.1-3.1-0.1-4.6-0.1c-0.5-0.4-0.1-1.1-0.3-1.7c-0.3-0.3-0.6-0.1-0.9-0.2c-0.2,0-0.3-0.3-0.4-0.4
		c0-0.4,0-0.6,0.3-0.9C1.6,9.2,2,9.2,2.3,9.2L2.5,9C2.4,8,2.6,7,2.4,5.8C2.3,5.6,2,5.8,1.8,5.7C1.5,5.6,1.2,5.5,1.1,5.2
		C1,4.9,1,4.7,1.2,4.4c0.4-0.4,1,0.1,1.3-0.3l0.1-1.5c0.3-0.4,0.9-0.2,1.3-0.2c0.8-0.2,1.7,0,2.6,0C7.1,2.4,7.6,2.5,8.2,2.7L8.2,2.7
		L8.2,2.7L8.2,2.7z"/>
	<path class="st1" d="M7.9,3.1l0.1,0.3C8.1,5.6,8.1,7.7,8.1,10l-0.1,0.8c-0.5,0-1.1-0.3-1.7-0.2c-0.6-0.1-1.3,0.1-1.8-0.1
		C4.2,9.8,4.5,9,4.4,8.2c0-1.6,0.1-3.5,0.1-5.3c0-0.1,0.2-0.2,0.3-0.2C5.8,2.8,7,2.6,7.9,3.1L7.9,3.1L7.9,3.1z"/>
	<path class="st1" d="M3.7,2.9C3.4,3.2,3,3.6,3.1,4c0.1,2.7,0,5.1,0.1,7.6l0.2,0.3c1.2,0,2.6-0.1,3.8,0.1c0.1,0,0.1,0.1,0,0.2
		c-0.3,0.1-0.7,0.1-1.1,0.1l-3.3-0.1c-0.2-0.2-0.1-0.6-0.1-0.9c0-0.3,0.1-0.7-0.3-0.9c-0.4-0.1-0.9,0-1.2-0.3
		c0.2-0.6,1.2-0.1,1.4-0.8C3,8,2.8,6.8,2.9,5.7C2.8,5,2.1,5.2,1.6,5.1C1.6,5.1,1.4,5,1.5,4.8c0.4-0.4,1.2,0.1,1.4-0.5
		c0.1-0.5,0-1,0.1-1.5c0.2-0.2,0.5-0.2,0.7-0.1L3.7,2.9L3.7,2.9L3.7,2.9z"/>
	<path class="st1" d="M12.7,3c0,2.6,0,5,0,7.6c-1.3,0.1-2.7-0.1-4,0.3c-0.3-0.3-0.1-0.7-0.1-1c-0.1-0.8,0-1.8,0-2.6
		c0-1.2-0.1-2.6,0-3.9c0.2-0.4,0.6-0.5,1.1-0.5l3,0L12.7,3L12.7,3L12.7,3z"/>
	<path class="st1" d="M14.2,2.9c0.1,0.5-0.1,1.2,0.2,1.7c0.3,0.2,0.8,0.1,1.1,0.2c0.1,0.1,0.1,0.3,0,0.4c-0.4,0.4-1.1-0.1-1.3,0.5
		c0,1.2-0.1,2.5,0,3.7l0.2,0.2c0.4,0.1,0.9-0.1,1.2,0.2c0,0.2,0,0.4-0.2,0.5c-0.4,0.1-1-0.1-1.2,0.3c-0.1,0.5,0.1,1-0.1,1.5
		l-0.2,0.1l-4.5-0.1c-0.1-0.1,0-0.1,0-0.2l0.4-0.2l3.6,0c0.4-0.1,0.4-0.6,0.4-0.9c0-1.8,0-3.3,0-5.1c0-0.9,0.1-1.7-0.1-2.5
		c0-0.2-0.3-0.3-0.4-0.5C13.7,2.7,14,2.7,14.2,2.9L14.2,2.9L14.2,2.9L14.2,2.9z"/>
	<path class="st1" d="M34.7,2.9c-0.1,0.3-0.4,0.4-0.5,0.7c0,2.6,0,5.5,0.1,8.2l0.2,0.1c1.4,0,2.9-0.3,4.1,0.3c0.1,0,0,0,0,0.1
		c-1.5,0-3.1,0.1-4.6,0L34,12.1c-0.1-0.6,0.1-1.1-0.2-1.6c-0.4-0.3-1.4,0.1-1.1-0.6c0.4-0.3,1,0.1,1.2-0.4c0-1.3,0.1-2.5,0-3.8
		c-0.3-0.4-0.8-0.1-1.2-0.2c-0.1-0.1-0.2-0.3-0.1-0.5C33,4.6,34.2,5,33.9,4c0.1-0.4-0.2-1.2,0.4-1.2C34.4,2.8,34.6,2.8,34.7,2.9
		L34.7,2.9L34.7,2.9L34.7,2.9z"/>
	<path class="st1" d="M45.1,3c0.1,0.6-0.1,1.2,0.2,1.8c0.4,0.1,1-0.1,1.2,0.3c0,0.8-1.1,0.2-1.3,0.8c0.1,1.2-0.1,2.2,0,3.5
		c-0.1,0.1-0.2,0.2-0.1,0.4c0.4,0.3,0.8-0.2,1.1,0.1c0.2,0.1,0.1,0.3,0.1,0.4c-0.3,0.4-1-0.1-1.2,0.5l-0.1,1.6l-0.2,0.1l-4.2,0
		c-0.1-0.1,0-0.1,0-0.1l0.5-0.2h3.2c0.2,0,0.4-0.2,0.4-0.4c0-2.5-0.1-5.1-0.1-7.9l-0.4-0.8C44.6,2.7,45,2.7,45.1,3L45.1,3L45.1,3
		L45.1,3z"/>
	<path class="st1" d="M35.2,4c0,2.2,0,4.6,0,6.9c-0.1,0.2-0.3,0.3-0.4,0.4l-0.1-0.1c0-0.7,0-1.6,0-2.3V8.3c0-1.5,0-3.2,0-4.7
		c0.1-0.1,0.3-0.4,0.4-0.4C35.2,3.5,35.1,3.7,35.2,4L35.2,4L35.2,4L35.2,4z"/>
	<path class="st1" d="M44.5,3.6c-0.1,1.8,0,3.5,0,5.2c0,0.8,0,1.5,0,2.2c0,0.1,0,0.1-0.1,0.1c-0.5-0.2-0.4-0.8-0.4-1.3
		c0-0.7-0.1-1.4,0.1-2.1L44,7.5l0-4.2C44.1,3,44.4,3.5,44.5,3.6L44.5,3.6L44.5,3.6L44.5,3.6z"/>
	<path class="st1" d="M13.5,3.5c0,2.6,0,5.1-0.1,7.5c-0.1,0.1-0.2,0-0.3-0.1c-0.2-0.4,0-0.9,0-1.2c-0.1-2.1,0-4.2,0-6.3
		C13.3,3.2,13.5,3.4,13.5,3.5L13.5,3.5L13.5,3.5L13.5,3.5z"/>
	<path class="st1" d="M39.8,6.8c-0.1,0.2-0.4,0.2-0.5,0.1l-0.2-0.1c0.1-0.4,0-0.8,0.3-1C39.7,6,39.7,6.4,39.8,6.8L39.8,6.8L39.8,6.8
		L39.8,6.8z"/>
	<path class="st1" d="M13.2,11.3c-0.1,0.2-0.4,0.1-0.6,0.2h-1c-0.8,0-1.7-0.1-2.4,0.1c-0.1,0-0.3-0.1-0.3-0.3C9,11,9.4,11.1,9.6,11
		c1,0,2.2,0,3.1,0C12.9,11,13.1,11.2,13.2,11.3L13.2,11.3L13.2,11.3L13.2,11.3z"/>
	<path class="st1" d="M7.8,11.2c0,0.2-0.1,0.3-0.3,0.4c-1-0.3-2.1-0.1-3.2-0.2l0,0C4.3,11.1,4.5,11,4.7,11C5.8,11,6.8,11,7.8,11.2
		L7.8,11.2L7.8,11.2L7.8,11.2z"/>
	<path class="st1" d="M39.1,11.3c0.1,0.1,0.1,0.2,0,0.3c-0.4,0.5-0.9-0.1-1.4,0c-0.8-0.1-1.8,0-2.6-0.1c0.2-0.7,1.2-0.3,1.8-0.4
		C37.7,11.1,38.5,10.9,39.1,11.3L39.1,11.3L39.1,11.3L39.1,11.3z"/>
	<path class="st1" d="M43.8,11.1c0.2,0.1,0.3,0.3,0.4,0.4c-1.3,0.2-2.6-0.2-3.8,0.2c-0.2,0-0.3-0.3-0.2-0.4c0.3-0.3,0.7-0.2,1.1-0.3
		L43.8,11.1L43.8,11.1L43.8,11.1z"/>
	<path class="st1" d="M8.9,11.8c0.1,0.3,0,0.6-0.2,0.7c-0.1,0.2-0.4,0.2-0.6,0.1c-0.2,0-0.2-0.3-0.3-0.4c-0.1-0.4,0.3-0.5,0.5-0.7
		C8.6,11.5,8.7,11.6,8.9,11.8L8.9,11.8L8.9,11.8L8.9,11.8z"/>
	<path class="st1" d="M40.1,12c0,0.3,0,0.7-0.4,0.7c-0.3,0-0.5-0.1-0.5-0.3c-0.1-0.3,0.1-0.6,0.4-0.7C39.8,11.6,39.9,11.8,40.1,12
		L40.1,12L40.1,12L40.1,12z"/>
	<path class="st1" d="M28.4,3c0,2.5,0,5,0,7.5l-0.1,0.1c-1.4,0.1-2.7-0.2-4,0.2c-0.2-0.1,0-0.5-0.1-0.7c0-2.2,0-4.4,0-6.6
		c0-0.2,0.2-0.4,0.4-0.5c0.4-0.3,0.8-0.2,1.3-0.2l2.5,0.1L28.4,3L28.4,3L28.4,3z"/>
	<path class="st1" d="M29.9,3c0,0.6,0,1.1,0.1,1.7c0.4,0.4,1.5-0.2,1.2,0.7c-0.4,0.2-0.8,0.1-1.2,0.1l-0.1,0.1
		c-0.2,1.3,0.1,2.6,0,3.7c0,0.1,0.1,0.4,0.3,0.4c0.4,0,0.9-0.2,1,0.2c-0.1,0.8-1.1,0.1-1.3,0.7c-0.1,0.6,0.2,1.1-0.1,1.6l-0.2,0.1
		c-1.6,0-3.2,0-4.8-0.1c-0.1,0,0-0.1,0-0.2l0.3-0.2c1.3-0.1,2.7,0,4-0.1c0.2,0,0.4-0.2,0.3-0.4c0-2.4,0-4.9,0-7.7
		c-0.1-0.4-0.4-0.6-0.5-1C29.4,2.8,29.8,2.7,29.9,3L29.9,3L29.9,3L29.9,3z"/>
	<path class="st1" d="M19.3,2.8c-0.1,0.3-0.3,0.4-0.4,0.6c-0.2,0.5,0,1-0.1,1.6c0,2.2,0,4.3,0,6.4c0,0.2,0.1,0.4,0.3,0.4l3.4,0.1
		c0.2,0,0.4,0.1,0.5,0.2c-0.1,0.2-0.3,0.1-0.5,0.2c-1.3,0-2.6,0.1-3.9-0.1l-0.1-0.1c0-0.6,0-1.2-0.2-1.7c-0.4-0.2-0.9,0-1.3-0.1
		c-0.2-0.1-0.1-0.4,0-0.5c0.4-0.2,1.2,0.1,1.4-0.4c0-1.2,0.1-2.4,0-3.7c-0.4-0.5-1.1,0-1.4-0.5c0.1-0.7,1.1-0.1,1.4-0.7L18.6,3
		C18.8,2.7,19.1,2.8,19.3,2.8L19.3,2.8L19.3,2.8L19.3,2.8z"/>
	<path class="st1" d="M19.8,3.3c0.1,2.2-0.1,4.2,0,6.4c-0.2,0.5,0.2,1.2-0.5,1.4c-0.1-2.2,0-4.6-0.1-7c-0.1-0.4,0.2-0.7,0.5-0.9
		L19.8,3.3L19.8,3.3L19.8,3.3z"/>
	<path class="st1" d="M29.3,3.7c0,2.4,0.1,5-0.1,7.4c-0.1,0-0.3-0.1-0.3-0.3c0-1-0.1-2-0.1-3c0.1-1.4-0.1-3,0.1-4.4
		C29,3.3,29.3,3.5,29.3,3.7L29.3,3.7L29.3,3.7L29.3,3.7z"/>
	<path class="st1" d="M23.4,11.2c0.1,0,0.3,0.2,0.2,0.3l-0.3,0.2c-1.1-0.4-2.5-0.1-3.7-0.3c0.1-0.2,0.2-0.3,0.4-0.4
		C21.1,11.1,22.3,10.9,23.4,11.2L23.4,11.2L23.4,11.2L23.4,11.2z"/>
	<path class="st1" d="M28.5,11c0.2,0.1,0.4,0.3,0.4,0.4l-0.2,0.1c-1.3,0-2.7-0.2-4,0.2c-0.2,0-0.4,0-0.4-0.2
		c0.1-0.3,0.5-0.4,0.8-0.4C26.3,10.9,27.4,11,28.5,11L28.5,11L28.5,11L28.5,11z"/>
	<path class="st1" d="M24.4,12.1c0,0.3,0,0.6-0.3,0.6c-0.2,0-0.6,0-0.6-0.3c0.1-0.2,0.3-0.4,0.5-0.5C24.2,11.7,24.3,12,24.4,12.1
		L24.4,12.1L24.4,12.1L24.4,12.1z"/>
	<path class="st1" d="M23.7,8.1c0.1-1.3,0-2.7,0.1-3.9c0-0.4,0-0.8-0.3-1.1c-0.9-0.4-2.2-0.2-3.2-0.3c-0.1,0-0.2,0-0.2,0.1
		c0,2.5,0,4.9,0,7.4l0.1,0.3c0.8,0.1,1.5,0.1,2.3,0.1c0.4,0.1,0.8,0.2,1.2,0.3c0-0.9,0.1-1.5,0-2.4L23.7,8.1L23.7,8.1L23.7,8.1z"/>
	<path d="M23.4,8c-0.4-0.3-0.5-0.8-0.8-1.2c0.1-0.2,0.4-0.2,0.5-0.4c0.3-0.3,0.5-0.6,0.4-1c0-0.3-0.2-0.6-0.5-0.8
		c-0.7-0.3-1.5-0.2-2.2-0.1c-0.1,0.1-0.2,0.2-0.1,0.3c0.3,0.1,0.4,0.3,0.4,0.5c0,0.9,0,1.7-0.1,2.6l-0.4,0.4C21,8.6,21.5,8.4,22,8.5
		c0.1-0.2-0.2-0.4-0.3-0.6c0.1-0.3,0-0.6,0.2-0.8c0.5,0.4,0.6,1.1,1.2,1.5l0.7,0.1l0-0.4C23.7,8.2,23.5,8,23.4,8L23.4,8L23.4,8z
		 M22.4,6.4c-0.2,0-0.6,0.2-0.6-0.1c0-0.4-0.2-1,0-1.3c0.3-0.2,0.7-0.1,1,0.2c0.1,0.2,0.1,0.5,0.1,0.8C22.8,6.1,22.7,6.3,22.4,6.4
		L22.4,6.4L22.4,6.4z"/>
	<path class="st1" d="M43.7,3.7c0-0.3,0-0.6-0.1-0.9l-1.2,0c-0.8,0.1-1.8-0.1-2.4,0.3c-0.3,0.4-0.2,0.8-0.2,1.3
		c0.1,0.3,0.2,0.5,0.2,0.8l-0.1,0.3l-0.5-0.1l-0.1-0.3c0.1-0.2,0.1-0.4,0.2-0.6c0-0.5,0.2-1.4-0.5-1.6c-1.1-0.1-2-0.1-3.1-0.1
		c-0.1,0-0.2,0-0.2,0.1c0,2.5,0,4.6,0,7c0,0.3-0.1,0.7,0.2,0.8c0.9-0.1,1.8,0,2.6,0c0.4,0,0.6,0.3,0.9,0.2c0.1-1,0.1-2.2,0.1-3.3
		c0-0.1,0-0.3-0.1-0.3V7.1l0.5,0.1l0.1,0.2c0,0,0,0-0.1,0.1l-0.1,3.3c0,0.1,0,0.4,0.2,0.3c1-0.6,2.2-0.2,3.3-0.3l0.3-0.1
		c0.1-0.5,0.1-2.5,0.1-2.5C43.7,6.7,43.7,5.2,43.7,3.7L43.7,3.7L43.7,3.7z"/>
	<path d="M40,7.3c0.1,0.2,0.2,0.4,0.2,0.6l-0.3,0.4l0.2,0.1c0.4,0,0.9,0.1,1.2-0.1C41.2,8.2,41,8.1,40.9,8c-0.4-1.2-0.8-2.4-1.1-3.6
		l-0.4,0.2c-0.2,1.1-0.7,2.1-0.9,3.2C38.4,8,38.1,8,38,8.1c-0.2,0.1-0.3-0.2-0.4-0.3c0-1,0.1-1.8,0-2.8c0-0.2,0.2-0.4,0.3-0.2
		c0.3,0.1,0.2,0.4,0.3,0.7c0.1,0.1,0.2,0.1,0.3-0.1l0.2-1c-0.1-0.3-0.4,0-0.7,0c-0.5,0-1.2,0.1-1.6-0.2c-0.4,0.1-0.3,0.7-0.4,1
		c0,0.1,0,0.1,0,0.2c0.3-0.2,0.5-0.7,0.9-0.6l0,1l-0.1,2.1c-0.1,0.2-0.4,0.2-0.4,0.5c0.5,0.2,1.2,0,1.8,0.1c0.3,0,0.7,0.1,0.9,0
		c0.1-0.1,0-0.2,0-0.2c-0.2-0.1-0.4-0.3-0.4-0.5c0.1-0.2,0.1-0.5,0.4-0.4c0.1,0,0.1,0,0.1,0.1l0.5,0.1v0C39.9,7.3,39.9,7.3,40,7.3
		L40,7.3L40,7.3z M39.3,6.9l-0.2-0.1c0.1-0.4,0-0.8,0.3-1c0.3,0.2,0.3,0.6,0.4,1C39.8,6.9,39.5,6.9,39.3,6.9L39.3,6.9L39.3,6.9z"/>
	<path d="M42.9,4.7c0,0.2,0.2,0.7,0,0.8c-0.2-0.2-0.3-0.4-0.6-0.5c-0.2,0-0.4,0-0.4,0.3c-0.1,0.7,0.6,0.7,1,1.1
		c0.4,0.4,0.5,0.9,0.4,1.4c-0.1,0.4-0.3,0.6-0.7,0.6c-0.3,0.1-0.6-0.2-0.8,0c-0.1,0-0.2,0.1-0.3,0l0-1.3C41.5,7,41.5,7,41.6,7
		c0.2,0.4,0.1,0.9,0.6,0.9c0.2,0,0.4-0.1,0.4-0.3c0.1-1.1-1.4-0.9-1.4-2c0-0.3,0.1-0.5,0.2-0.7c0.3-0.4,0.8-0.2,1.2-0.4
		C42.9,4.4,42.9,4.6,42.9,4.7L42.9,4.7L42.9,4.7L42.9,4.7z"/>
	<path d="M26.9,4.6c-0.3,0.2-0.7,0.4-0.6,0.9c-0.1,0.8-0.1,1.6,0,2.4l0.5,0.5l0,0.1c-0.5,0-1.1,0.1-1.6,0c-0.2-0.3,0.3-0.4,0.4-0.6
		C25.6,6.9,25.7,6,25.6,5c-0.1-0.3-0.6-0.2-0.4-0.5C25.7,4.5,26.3,4.5,26.9,4.6L26.9,4.6L26.9,4.6L26.9,4.6z"/>
	<path d="M11.4,5.2c-0.3,0.4-0.4-0.4-0.7-0.4c-0.2,0-0.5-0.1-0.6,0.1C10,5.3,9.9,5.7,10,6.1c0.1,0.1,0.4,0.1,0.5,0.1
		c0.2-0.1,0.3-0.5,0.5-0.4c0.2,0.2-0.1,0.4,0,0.6c-0.1,0.3,0.2,0.5-0.1,0.6c-0.2-0.1-0.3-0.4-0.5-0.4l-0.4,0C9.9,7.1,10,7.6,10,8.1
		c0.3,0.3,0.6,0,0.9,0c0.4-0.1,0.3-0.7,0.7-0.6c0.1,0.2,0.1,0.6,0.1,0.8l-0.2,0.1l-2.3,0c-0.1,0-0.3,0-0.2-0.2
		c0.7-0.5,0.3-1.3,0.4-2C9.3,5.8,9.7,5,9,4.7c0-0.2,0.2-0.1,0.3-0.2c0.6,0,1.3,0.2,1.8-0.3C11.4,4.4,11.3,4.9,11.4,5.2L11.4,5.2
		L11.4,5.2L11.4,5.2z"/>
	<path d="M7.9,4.7c-0.6,0.5-0.7,1.4-1,2.1c-0.3,0.4-0.1,1-0.5,1.4C6.2,8.3,6.1,8.1,6.1,8C5.9,7,5.6,6,5.2,5.1c0-0.3-0.7-0.4-0.3-0.6
		c0.5-0.1,0.8,0.1,1.3,0C6.3,4.8,5.8,5,5.9,5.4c0.3,0.4,0.2,1.1,0.5,1.5l0.2-0.2c0-0.7,0.9-1.4,0.2-2c0.2-0.3,0.6-0.1,1-0.2
		C7.8,4.5,8.1,4.6,7.9,4.7L7.9,4.7L7.9,4.7L7.9,4.7z"/>
	<path class="st1" d="M4,3.2c0.1,2.6,0,5.1,0,7.5C4,10.9,3.9,11,3.7,11c-0.2-0.8-0.2-1.6-0.1-2.4c-0.1-1.6,0-3.4,0-5.1
		C3.7,3.4,3.8,3.3,4,3.2L4,3.2L4,3.2L4,3.2z"/>
</g>
</svg>
